SplineFontDB: 3.0
FontName: SomeTimeLater
FullName: Some Time Later
FamilyName: Some Time Later
Weight: Regular
Copyright: Copyright (c) 2016 Fredrick R Brennan [copypaste@kittens.ph], based off of the title cards and credits in the hit Nickelodeon show "SpongeBob SquarePants".\n\nThis font is licensed under the SIL Open Font License.
UComments: "2016-6-30: Created with FontForge (http://fontforge.org)"
Version: 002.000
ItalicAngle: 0
UnderlinePosition: -120
UnderlineWidth: 60
Ascent: 700
Descent: 300
InvalidEm: 0
sfntRevision: 0x00020000
LayerCount: 2
Layer: 0 0 "Back" 1
Layer: 1 0 "Fore" 0
XUID: [1021 637 1800187173 5109]
StyleMap: 0x0000
FSType: 0
OS2Version: 0
OS2_WeightWidthSlopeOnly: 0
OS2_UseTypoMetrics: 1
CreationTime: 1467280827
ModificationTime: 1467559554
OS2TypoAscent: 0
OS2TypoAOffset: 1
OS2TypoDescent: 0
OS2TypoDOffset: 1
OS2TypoLinegap: 90
OS2WinAscent: 0
OS2WinAOffset: 1
OS2WinDescent: 0
OS2WinDOffset: 1
HheadAscent: 0
HheadAOffset: 1
HheadDescent: 0
HheadDOffset: 1
OS2Vendor: 'PfEd'
Lookup: 3 0 0 "'salt' Stylistic Alternatives in Latin lookup 5" { "'salt' Stylistic Alternatives in Latin lookup 5-1"  } ['salt' ('DFLT' <'dflt' > 'cyrl' <'dflt' > 'grek' <'dflt' > 'latn' <'dflt' > ) ]
Lookup: 4 0 0 "'dlig' Discretionary Ligatures in Latin lookup 0" { "Fractions"  } ['dlig' ('DFLT' <'dflt' > 'cyrl' <'dflt' > 'grek' <'dflt' > 'latn' <'dflt' > ) ]
Lookup: 1 0 0 "'frac' Diagonal Fractions lookup 1" { "'frac' Diagonal Fractions lookup 1 subtable"  } ['frac' ('DFLT' <'dflt' > 'cyrl' <'dflt' > 'grek' <'dflt' > 'latn' <'dflt' > ) ]
Lookup: 6 0 0 "'frac' Diagonal Fractions lookup 2" { "'frac' Diagonal Fractions lookup 2 contextual 0"  "'frac' Diagonal Fractions lookup 2 contextual 1"  } ['frac' ('DFLT' <'dflt' > 'cyrl' <'dflt' > 'grek' <'dflt' > 'latn' <'dflt' > ) ]
Lookup: 1 0 0 "Single Substitution lookup 3" { "Single Substitution lookup 3 subtable"  } []
Lookup: 1 0 0 "Single Substitution lookup 4" { "Single Substitution lookup 4 subtable"  } []

StartChar: A
Encoding: 65 65 0
Width: 552
VWidth: 0
Flags: MW
AnchorPoint: "bottom" 440 20 basechar 0
AnchorPoint: "top" 276 741 basechar 0
LayerCount: 2
Fore
SplineSet
531.462890625 2.5341796875 m 1
 338.310546875 -5 l 1
 338.310546875 162.818359375 l 1
 168.795898438 160.276367188 l 1
 168.795898438 20.05078125 l 1
 20 12.5166015625 l 1
 151.844726562 513.431640625 l 1
 74.6220703125 511.077148438 l 1
 74.6220703125 671.173828125 l 1
 428.247070312 695 l 1
 531.462890625 2.5341796875 l 1
232.458984375 285.528320312 m 1
 398.958984375 293.0625 l 1
 343.866210938 555.998046875 l 1
 266.266601562 548.463867188 l 1
 232.458984375 285.528320312 l 1
EndSplineSet
Validated: 1
EndChar

StartChar: B
Encoding: 66 66 1
Width: 489
VWidth: 0
Flags: MW
LayerCount: 2
Fore
SplineSet
421.21875 293.099609375 m 0
 469.880859375 260.47265625 468.676757812 97.05859375 467.100585938 45.3369140625 c 0
 467.100585938 45.318359375 467.100585938 45.2890625 467.100585938 45.2705078125 c 0
 467.100585938 35.873046875 459.500976562 27.59765625 450.137695312 26.798828125 c 0
 415.286132812 23.6474609375 289.875976562 14.841796875 215.723632812 6.9638671875 c 0
 78.6337890625 -7.681640625 22 -4.80859375 22 -4.80859375 c 1
 30.712890625 673.96484375 l 2
 30.76171875 676.833984375 33.0458984375 679.782226562 35.810546875 680.545898438 c 0
 52.3095703125 685.180664062 133.228515625 693.893554688 202.09765625 695.005859375 c 0
 244.458007812 695.469726562 293.02734375 693.616210938 322.874023438 691.576171875 c 0
 370.979492188 688.795898438 416.120117188 641.24609375 424.370117188 609.267578125 c 0
 428.927734375 586.319335938 432.625976562 548.705078125 432.625976562 525.30859375 c 0
 432.625976562 524.638671875 432.623046875 523.549804688 432.619140625 522.87890625 c 2
 432.619140625 522.87890625 434.658203125 433.803710938 409.354492188 413.59765625 c 0
 373.946289062 384.770507812 284.870117188 374.759765625 257.063476562 366.232421875 c 0
 255.607421875 365.88671875 254.42578125 364.392578125 254.42578125 362.895507812 c 0
 254.42578125 361.3984375 255.607421875 359.904296875 257.063476562 359.55859375 c 0
 284.592773438 353.163085938 374.224609375 324.243164062 421.21875 293.099609375 c 0
216.650390625 630.123046875 m 0
 205.15625 630.123046875 131.745117188 624.654296875 131.745117188 624.654296875 c 1
 134.8046875 411.46484375 l 1
 134.8046875 411.46484375 214.981445312 408.870117188 224.250976562 411.001953125 c 0
 232.927734375 413.056640625 242.8515625 421.361328125 246.403320312 429.540039062 c 0
 252.892578125 441.775390625 256.322265625 492.19921875 254.838867188 528.163085938 c 0
 254.337890625 553.08984375 247.860351562 592.622070312 240.37890625 616.404296875 c 0
 236.106445312 623.977539062 225.58203125 630.124023438 216.88671875 630.124023438 c 0
 216.821289062 630.124023438 216.71484375 630.124023438 216.650390625 630.123046875 c 0
384.9765625 160.366210938 m 0
 385.254882812 169.635742188 382.288085938 213.014648438 381.361328125 218.112304688 c 0
 380.221679688 228.6171875 374.533203125 244.271484375 368.663085938 253.057617188 c 0
 359.486328125 264.272460938 291.915039062 279.380859375 250.9453125 281.698242188 c 0
 209.9765625 284.015625 98.0986328125 294.119140625 98.0986328125 294.119140625 c 1
 93.0009765625 128.294921875 l 1
 361.340820312 128.294921875 l 1
 361.340820312 128.294921875 377.838867188 125.700195312 379.877929688 131.076171875 c 0
 382.673828125 138.91796875 384.95703125 152.041015625 384.9765625 160.366210938 c 0
EndSplineSet
Validated: 33
EndChar

StartChar: C
Encoding: 67 67 2
Width: 506
VWidth: 0
Flags: MW
AnchorPoint: "top" 257 726 basechar 0
AnchorPoint: "bottom" 248 -0 basechar 0
LayerCount: 2
Fore
SplineSet
298.890625 458.669921875 m 1
 298.797851562 574.104492188 l 2
 297.966796875 588.153320312 279.57421875 609.872070312 219.129882812 609.6875 c 0
 158.686523438 609.502929688 162.19921875 561.258789062 162.19921875 561.258789062 c 1
 156.838867188 333.716796875 l 1
 156.838867188 333.716796875 152.95703125 147.118164062 162.19921875 118.65234375 c 0
 171.44140625 90.185546875 209.888671875 80.205078125 250.4609375 80.205078125 c 0
 295.83984375 80.205078125 297.411132812 117.173828125 297.411132812 117.173828125 c 1
 296.025390625 216.803710938 l 1
 485.3046875 199.3359375 l 1
 469.77734375 13.4765625 l 2
 468.805664062 3.271484375 459.6953125 -5.01171875 449.444335938 -5.01171875 c 0
 449.342773438 -5.01171875 449.177734375 -5.009765625 449.07421875 -5.0078125 c 0
 373.567382812 -3.62109375 97.78125 3.95703125 58.3173828125 54.51171875 c 0
 18.8525390625 105.065429688 24.2138671875 360.518554688 24.2138671875 360.518554688 c 1
 22.365234375 589.631835938 l 2
 22.1640625 591.4921875 22 594.521484375 22 596.393554688 c 0
 22 620.342773438 40.1748046875 646.668945312 62.568359375 655.158203125 c 0
 172.458007812 703.40234375 386.3203125 694.899414062 434.010742188 693.513671875 c 0
 481.700195312 692.126953125 468.206054688 458.669921875 468.206054688 458.669921875 c 1
 298.890625 458.669921875 l 1
EndSplineSet
Validated: 33
EndChar

StartChar: D
Encoding: 68 68 3
Width: 460
VWidth: 0
Flags: MW
LayerCount: 2
Fore
SplineSet
413.354492188 606.149414062 m 0
 435.453125 496.849609375 436.186523438 226.2578125 435.544921875 116.040039062 c 0
 435.383789062 85.9462890625 413.16015625 51.111328125 385.9375 38.283203125 c 0
 359.092773438 24.939453125 313.20703125 10.7666015625 283.513671875 6.6474609375 c 0
 206.03125 -3.3466796875 27.8681640625 -4.9970703125 27.8681640625 -4.9970703125 c 1
 22 687.758789062 l 1
 166.877929688 694.452148438 l 2
 252.0625 698.395507812 332.5703125 681.064453125 372.733398438 660.067382812 c 0
 391.033203125 650.526367188 409.23046875 626.37109375 413.354492188 606.149414062 c 0
338.439453125 321.4375 m 0
 346.69140625 436.331054688 345.591796875 508.403320312 329.26953125 517.114257812 c 0
 304.237304688 529.952148438 206.857421875 536.278320312 206.857421875 536.278320312 c 1
 206.857421875 129.977539062 l 1
 206.857421875 129.977539062 308.455078125 123.284179688 320.92578125 141.623046875 c 0
 338.439453125 167.756835938 330.095703125 206.54296875 338.439453125 321.4375 c 0
EndSplineSet
Validated: 33
EndChar

StartChar: E
Encoding: 69 69 4
Width: 418
VWidth: 0
Flags: MW
AnchorPoint: "bottom" 321 40 basechar 0
AnchorPoint: "top" 207 729 basechar 0
LayerCount: 2
Fore
SplineSet
24 695 m 1
 396.823242188 695 l 1
 396.823242188 611.81640625 l 1
 104.450195312 611.81640625 l 1
 104.450195312 539.474609375 l 1
 302.979492188 539.474609375 l 1
 302.979492188 416.020507812 l 1
 166.131835938 416.020507812 l 1
 166.131835938 209.564453125 l 1
 380.696289062 209.564453125 l 1
 380.696289062 19.14453125 l 1
 24 -5 l 1
 24 695 l 1
EndSplineSet
Validated: 1
EndChar

StartChar: F
Encoding: 70 70 5
Width: 434
VWidth: 0
Flags: MW
LayerCount: 2
Fore
SplineSet
24 -1.7470703125 m 1
 24 695 l 1
 412.889648438 695 l 1
 399.97265625 500.509765625 l 1
 198.977539062 507.013671875 l 1
 198.977539062 422.731445312 l 1
 341.616210938 422.731445312 l 1
 338.364257812 312.616210938 l 1
 153.629882812 315.775390625 l 1
 153.629882812 -5 l 1
 24 -1.7470703125 l 1
EndSplineSet
Validated: 1
EndChar

StartChar: G
Encoding: 71 71 6
Width: 518
VWidth: 0
Flags: MW
AnchorPoint: "top" 244 741 basechar 0
LayerCount: 2
Fore
SplineSet
421.145507812 472.815429688 m 1
 347.662109375 475.143554688 l 1
 347.662109375 475.143554688 339.280273438 475.143554688 338.348632812 497.030273438 c 0
 338.447265625 507.377929688 339.866210938 524.067382812 341.515625 534.284179688 c 0
 341.625976562 535.140625 341.71484375 536.537109375 341.71484375 537.401367188 c 0
 341.71484375 547.232421875 334.115234375 557.64453125 324.750976562 560.640625 c 0
 305.313476562 566.170898438 273.186523438 571.9296875 253.038085938 573.493164062 c 2
 250.616210938 573.493164062 l 2
 216.15625 576.194335938 214.666015625 559.244140625 212.709960938 539.872070312 c 0
 210.008789062 512.676757812 206.75 464.525390625 205.724609375 385.640625 c 0
 204.328125 274.903320312 208.892578125 145.166992188 211.779296875 96.9228515625 c 0
 212.459960938 85.2744140625 222.431640625 74.84375 234.038085938 73.6396484375 c 2
 330.525390625 69.1689453125 l 2
 330.837890625 69.154296875 331.344726562 69.1416015625 331.65625 69.1416015625 c 0
 343.138671875 69.1416015625 353.35546875 78.4169921875 354.4609375 89.845703125 c 0
 355.579101562 101.859375 357.162109375 119.276367188 357.162109375 142.931640625 c 0
 358.09375 195.83203125 340.770507812 190.337890625 340.770507812 190.337890625 c 1
 310.12890625 190.337890625 l 2
 310.11328125 190.337890625 310.087890625 190.337890625 310.071289062 190.337890625 c 0
 304.749023438 190.337890625 299.30859375 194.509765625 297.928710938 199.651367188 c 0
 294.87890625 211.439453125 292.041992188 230.8828125 291.595703125 243.051757812 c 0
 291.037109375 262.516601562 292.805664062 289.33984375 294.110351562 304.986328125 c 0
 294.684570312 312.111328125 300.942382812 318.202148438 308.080078125 318.583984375 c 2
 482.80078125 328.829101562 l 1
 496.771484375 18.9697265625 l 2
 496.779296875 18.779296875 496.787109375 18.46875 496.787109375 18.27734375 c 0
 496.787109375 10.4853515625 490.479492188 3.7021484375 482.708007812 3.13671875 c 0
 446.944335938 0.529296875 351.387695312 -5.6181640625 242.047851562 -4.873046875 c 0
 240.84765625 -4.8818359375 238.901367188 -4.8896484375 237.701171875 -4.8896484375 c 0
 184.864257812 -4.8896484375 101.401367188 8.970703125 51.4013671875 26.0478515625 c 0
 36.685546875 31.28125 23.9599609375 48.1796875 22.9951171875 63.767578125 c 0
 21.412109375 86.306640625 20.38671875 122.163085938 21.412109375 170.126953125 c 0
 23.4609375 247.98828125 38.548828125 584.390625 41.435546875 646.9765625 c 0
 41.69140625 652.807617188 46.322265625 659.233398438 51.7734375 661.319335938 c 0
 82.0234375 671.852539062 132.342773438 683.827148438 164.09375 688.048828125 c 0
 238.974609375 700.25 360.887695312 693.63671875 403.822265625 690.936523438 c 0
 412.430664062 690.361328125 419.440429688 682.892578125 419.46875 674.265625 c 2
 421.145507812 472.815429688 l 1
EndSplineSet
Validated: 33
EndChar

StartChar: H
Encoding: 72 72 7
Width: 487
VWidth: 0
Flags: MW
AnchorPoint: "top" 247 699 basechar 0
LayerCount: 2
Fore
SplineSet
24 0.560546875 m 1
 24 695 l 1
 178.350585938 681.233398438 l 1
 178.350585938 336.794921875 l 1
 354.671875 336.794921875 l 1
 354.671875 678.498046875 l 1
 442.833007812 678.498046875 l 1
 464.896484375 -5 l 1
 354.671875 -5 l 1
 354.671875 187.915039062 l 1
 244.448242188 187.915039062 l 1
 244.448242188 0.560546875 l 1
 24 0.560546875 l 1
EndSplineSet
Validated: 1
EndChar

StartChar: I
Encoding: 73 73 8
Width: 236
VWidth: 0
Flags: MW
LayerCount: 2
Fore
SplineSet
41.2177734375 474.427734375 m 1
 177.01171875 470.184570312 l 1
 215.203125 -5 l 1
 32.73046875 11.974609375 l 1
 41.2177734375 474.427734375 l 1
198.228515625 550.719726562 m 5
 36.974609375 546.4765625 l 1
 20 644.078125 l 1
 66.6796875 695 l 1
 198.228515625 682.26953125 l 5
 198.228515625 550.719726562 l 5
EndSplineSet
Validated: 1
AlternateSubs2: "'salt' Stylistic Alternatives in Latin lookup 5-1" I.dalt
EndChar

StartChar: J
Encoding: 74 74 9
Width: 482
VWidth: 0
Flags: MW
AnchorPoint: "top" 260 735 basechar 0
LayerCount: 2
Fore
SplineSet
113.915039062 532.146484375 m 1
 113.915039062 695.004882812 l 1
 435.77734375 695.004882812 l 2
 435.807617188 695.004882812 435.857421875 695.005859375 435.888671875 695.005859375 c 0
 441.47265625 695.005859375 446.276367188 690.481445312 446.610351562 684.907226562 c 0
 448.721679688 650.205078125 455.791015625 529.575195312 456.891601562 380.303710938 c 0
 458.176757812 239.569335938 454.505859375 96.814453125 452.852539062 43.5693359375 c 0
 452.438476562 29.4189453125 441.127929688 14.5302734375 427.606445312 10.3359375 c 0
 403.462890625 2.716796875 357.8359375 -5.8212890625 275.212890625 -4.9033203125 c 0
 128.328125 -3.3427734375 97.0234375 3.54296875 77.927734375 15.4775390625 c 0
 62.8720703125 24.841796875 29.1806640625 37.2353515625 20 300.250976562 c 1
 231.1484375 320.631835938 l 1
 231.1484375 320.631835938 224.905273438 146.205078125 231.1484375 123.346679688 c 0
 237.390625 100.487304688 282.833007812 93.6015625 296.87890625 93.6015625 c 0
 310.924804688 93.6015625 313.770507812 122.703125 319.094726562 225.248046875 c 0
 324.419921875 327.791992188 335.987304688 557.299804688 335.987304688 557.299804688 c 1
 113.915039062 532.146484375 l 1
EndSplineSet
Validated: 33
EndChar

StartChar: K
Encoding: 75 75 10
Width: 553
VWidth: 0
Flags: MW
AnchorPoint: "bottom" 219 22 basechar 0
LayerCount: 2
Fore
SplineSet
24 -5 m 1
 24 630.959960938 l 1
 211.767578125 630.959960938 l 1
 211.767578125 430.40234375 l 1
 305.651367188 430.40234375 l 1
 382.481445312 695 l 1
 531.87890625 665.157226562 l 1
 309.915039062 281.004882812 l 1
 510.5625 -0.736328125 l 1
 322.794921875 -0.736328125 l 1
 237.4375 255.42578125 l 1
 122.147460938 229.75390625 l 1
 122.147460938 20.669921875 l 1
 24 -5 l 1
EndSplineSet
Validated: 1
EndChar

StartChar: L
Encoding: 76 76 11
Width: 400
VWidth: 0
Flags: MW
AnchorPoint: "bottom" 213 11 basechar 0
LayerCount: 2
Fore
SplineSet
20 695 m 1
 161.051757812 661.80078125 l 1
 137.557617188 146.483398438 l 1
 376.938476562 191.474609375 l 1
 376.938476562 -5 l 1
 42.1328125 -5 l 1
 20 695 l 1
EndSplineSet
Validated: 1
EndChar

StartChar: M
Encoding: 77 77 12
Width: 573
VWidth: 0
Flags: MW
LayerCount: 2
Fore
SplineSet
41.4970703125 485.826171875 m 1
 20 496.529296875 l 1
 20 673.501953125 l 1
 205.045898438 673.501953125 l 1
 307.001953125 290.076171875 l 1
 387.4609375 695 l 1
 534.953125 695 l 1
 551.008789062 -5 l 1
 408.868164062 -5 l 1
 419.572265625 303.41015625 l 1
 384.740234375 308.76171875 l 1
 314.984375 -2.2783203125 l 1
 277.431640625 -2.2783203125 l 1
 179.556640625 477.752929688 l 1
 151.436523438 499.25 l 1
 164.861328125 -2.2783203125 l 1
 28.0732421875 -2.2783203125 l 1
 41.4970703125 485.826171875 l 1
EndSplineSet
Validated: 1
EndChar

StartChar: N
Encoding: 78 78 13
Width: 555
VWidth: 0
Flags: MW
AnchorPoint: "top" 277.5 735 basechar 0
LayerCount: 2
Fore
SplineSet
53.849609375 525.932617188 m 1
 20 525.932617188 l 1
 20 691.596679688 l 1
 197.484375 695 l 1
 366.642578125 329.821289062 l 1
 366.642578125 686.58203125 l 1
 534.0078125 686.58203125 l 1
 506.963867188 15.3271484375 l 1
 349.716796875 3.5078125 l 1
 153.606445312 515.813476562 l 1
 148.501953125 -1.5966796875 l 1
 45.341796875 -5 l 1
 53.849609375 525.932617188 l 1
EndSplineSet
Validated: 1
EndChar

StartChar: O
Encoding: 79 79 14
Width: 529
VWidth: 0
Flags: MW
AnchorPoint: "top" 252 723 basechar 0
LayerCount: 2
Fore
SplineSet
505.357421875 319.258789062 m 1
 505.357421875 319.258789062 517.333007812 65.78515625 462.766601562 24.275390625 c 0
 408.200195312 -17.234375 237.1171875 -2.73828125 237.1171875 -2.73828125 c 1
 237.1171875 -2.73828125 81.9716796875 -6.2490234375 49.3759765625 26.3466796875 c 0
 16.7802734375 58.9423828125 22.36328125 350.50390625 22.36328125 350.50390625 c 1
 22.36328125 350.50390625 29.3857421875 614.151367188 47.3046875 652.150390625 c 0
 65.2236328125 690.1484375 121.411132812 689.068359375 121.411132812 689.068359375 c 1
 241.709960938 692.399414062 l 1
 241.709960938 692.399414062 326.62109375 696.271484375 373.533203125 695.010742188 c 0
 438.365234375 692.399414062 459.165039062 668.62890625 478.344726562 598.393554688 c 0
 497.5234375 528.16015625 505.357421875 319.258789062 505.357421875 319.258789062 c 1
315.455078125 80.1025390625 m 0
 338.326171875 98.021484375 336.975585938 195.087890625 335.715820312 276.66796875 c 0
 334.454101562 358.247070312 334.543945312 473.323242188 317.706054688 500.15625 c 0
 300.868164062 526.989257812 239.458984375 533.653320312 239.458984375 533.653320312 c 1
 239.458984375 533.653320312 180.299804688 535.813476562 159.049804688 509.071289062 c 0
 137.798828125 482.328125 132.756835938 291.794921875 132.756835938 291.794921875 c 1
 132.756835938 291.794921875 122.130859375 109.096679688 143.381835938 89.0166015625 c 0
 164.631835938 68.9365234375 230.543945312 68.9365234375 230.543945312 68.9365234375 c 1
 230.543945312 68.9365234375 299.247070312 67.4970703125 315.455078125 80.1025390625 c 0
EndSplineSet
Validated: 33
EndChar

StartChar: P
Encoding: 80 80 15
Width: 474
VWidth: 0
Flags: MW
LayerCount: 2
Fore
SplineSet
450.986328125 389.337890625 m 0
 452.7109375 267.122070312 433.021484375 197.530273438 409.703125 173.7578125 c 0
 386.384765625 149.986328125 228.874023438 146.5390625 228.874023438 146.5390625 c 1
 228.874023438 3.634765625 l 1
 24 -4.984375 l 1
 24 680.31640625 l 2
 48.904296875 686.033203125 89.7958984375 692.211914062 115.27734375 694.108398438 c 0
 164.36328125 697.555664062 307.17578125 691.204101562 345.918945312 685.760742188 c 0
 384.661132812 680.31640625 419.139648438 645.022460938 435.471679688 613.174804688 c 0
 451.803710938 581.327148438 449.262695312 511.5546875 450.986328125 389.337890625 c 0
230.59765625 234.3671875 m 0
 254.732421875 254.146484375 249.560546875 265.397460938 247.564453125 399.681640625 c 0
 246.384765625 507.290039062 237.3125 566.447265625 228.239257812 595.75390625 c 0
 224.041992188 609.176757812 209.221679688 620.071289062 195.158203125 620.071289062 c 0
 195.09765625 620.071289062 195 620.071289062 194.939453125 620.0703125 c 2
 146.3984375 620.0703125 l 2
 141.389648438 620.0703125 137.325195312 616.005859375 137.325195312 610.997070312 c 2
 125.983398438 237.724609375 l 2
 125.979492188 237.607421875 125.9765625 237.416992188 125.9765625 237.299804688 c 0
 125.9765625 230.803710938 131.223632812 225.01953125 137.6875 224.38671875 c 0
 161.1875 222.208984375 212.451171875 219.305664062 230.59765625 234.3671875 c 0
EndSplineSet
Validated: 33
EndChar

StartChar: Q
Encoding: 81 81 16
Width: 510
VWidth: 0
Flags: MW
LayerCount: 2
Fore
SplineSet
440.203125 116.225585938 m 1
 482.958984375 72.6474609375 520.32421875 11.529296875 511.64453125 -0.5302734375 c 0
 502.965820312 -12.5888671875 430.193359375 53.7919921875 372.32421875 39.484375 c 0
 314.456054688 25.1767578125 219.215820312 10.361328125 159.735351562 6.4130859375 c 0
 155.020507812 6.0810546875 147.357421875 5.8125 142.630859375 5.8125 c 0
 114.961914062 5.8125 71.8740234375 14.6767578125 46.4521484375 25.5986328125 c 0
 36.5263671875 30.646484375 27.64453125 43.7431640625 26.6279296875 54.8330078125 c 0
 22.7900390625 91.55859375 22.0595703125 184.743164062 22.0595703125 335.7578125 c 0
 22.0263671875 339.387695312 22 345.28125 22 348.912109375 c 0
 22 429.5859375 35.123046875 559.206054688 51.2939453125 638.2421875 c 0
 53.3720703125 647.575195312 61.23046875 659.853515625 68.8349609375 665.649414062 c 0
 74.798828125 670.364257812 85.072265625 677.1171875 91.765625 680.723632812 c 0
 107.478515625 688.580078125 144.935546875 698.172851562 239.856445312 700 c 0
 242.6640625 700.04296875 247.220703125 700.079101562 250.029296875 700.079101562 c 0
 284.934570312 700.079101562 341.073242188 694.681640625 375.338867188 688.032226562 c 0
 393.067382812 684.654296875 411.03515625 667.709960938 415.4453125 650.209960938 c 0
 427.737304688 600.1953125 440.384765625 517.888671875 443.674804688 466.490234375 c 0
 451.53125 342.700195312 440.203125 116.225585938 440.203125 116.225585938 c 1
365.655273438 129.471679688 m 2
 365.747070312 129.471679688 l 2
 371.13671875 154.046875 375.522460938 202.1015625 370.223632812 295.286132812 c 0
 364.102539062 415.330078125 358.072265625 477.361328125 351.952148438 504.768554688 c 0
 349.551757812 515.259765625 338.869140625 523.813476562 328.107421875 523.862304688 c 2
 245.885742188 523.862304688 l 2
 245.86328125 523.862304688 245.826171875 523.862304688 245.803710938 523.862304688 c 0
 237.26171875 523.862304688 227.271484375 517.641601562 223.502929688 509.9765625 c 0
 213.1796875 489.146484375 199.659179688 437.62109375 201.302734375 311.365234375 c 0
 202.856445312 190.499023438 202.216796875 143.998046875 206.053710938 123.16796875 c 0
 207.556640625 115.05078125 215.168945312 106.455078125 223.045898438 103.983398438 c 0
 239.668945312 97.7705078125 267.5 91.3857421875 285.168945312 89.7314453125 c 0
 285.421875 89.73046875 285.833007812 89.728515625 286.0859375 89.728515625 c 0
 300.07421875 89.728515625 322.296875 93.00390625 335.690429688 97.0400390625 c 0
 349.342773438 101.018554688 362.766601562 115.547851562 365.655273438 129.471679688 c 2
EndSplineSet
Validated: 33
AlternateSubs2: "'salt' Stylistic Alternatives in Latin lookup 5-1" Q.dalt
EndChar

StartChar: R
Encoding: 82 82 17
Width: 482
VWidth: 0
Flags: MW
AnchorPoint: "top" 232 771 basechar 0
LayerCount: 2
Fore
SplineSet
362.849609375 269.36328125 m 2
 461.362304688 5.1640625 l 1
 272.106445312 -4.9873046875 l 1
 223.733398438 227.169921875 l 1
 124.868164062 227.169921875 l 1
 124.868164062 32.9697265625 l 1
 20 35.353515625 l 1
 20 35.353515625 37.125 342.982421875 38.1845703125 469.03515625 c 0
 38.2646484375 474.46484375 38.330078125 483.276367188 38.330078125 488.706054688 c 0
 38.330078125 542.57421875 31.9375 629.541992188 24.060546875 682.831054688 c 1
 24.060546875 682.831054688 207.491210938 696.072265625 255.952148438 695.012695312 c 0
 304.4140625 693.953125 342.635742188 683.537109375 370.970703125 664.735351562 c 0
 405.220703125 642.049804688 420.227539062 590.057617188 421.286132812 507.345703125 c 0
 422.345703125 424.634765625 416.254882812 353.045898438 401.16015625 317.737304688 c 0
 394.750976562 301.087890625 377.587890625 279.416992188 362.849609375 269.36328125 c 2
334.603515625 473.713867188 m 2
 334.69140625 473.713867188 l 2
 334.87109375 479.180664062 335.016601562 488.056640625 335.016601562 493.525390625 c 0
 335.016601562 525.203125 330.165039062 576.161132812 324.1875 607.270507812 c 0
 321.848632812 617.43359375 311.487304688 625.778320312 301.059570312 625.895507812 c 2
 196.544921875 627.04296875 l 1
 193.014648438 333.890625 l 1
 296.645507812 331.68359375 l 2
 296.829101562 331.6796875 297.126953125 331.67578125 297.309570312 331.67578125 c 0
 310.595703125 331.67578125 323.349609375 342.278320312 325.776367188 355.340820312 c 0
 330.672851562 385.684570312 334.646484375 435.256835938 334.646484375 465.993164062 c 0
 334.646484375 468.124023438 334.626953125 471.583007812 334.603515625 473.713867188 c 2
EndSplineSet
Validated: 33
EndChar

StartChar: S
Encoding: 83 83 18
Width: 501
VWidth: 0
Flags: MW
AnchorPoint: "top" 245 746 basechar 0
AnchorPoint: "bottom" 211 22 basechar 0
LayerCount: 2
Fore
SplineSet
459.638671875 663.860351562 m 1
 455.375 467.475585938 l 1
 379.905273438 503.759765625 269.603515625 567.255859375 182.250976562 541.22265625 c 0
 129.912109375 525.439453125 112.767578125 458.1328125 157.759765625 424.662109375 c 0
 192.591796875 398.809570312 243.20703125 384.477539062 282.756835938 367.424804688 c 0
 370.471679688 329.689453125 459.275390625 290.59375 477.326171875 185.372070312 c 0
 498.37109375 62.1884765625 405.938476562 6.5849609375 298.629882812 1.595703125 c 0
 206.7421875 -2.66796875 114.672851562 -3.8466796875 22.78515625 -5.1171875 c 1
 32.853515625 195.258789062 l 1
 92.0869140625 165.778320312 149.868164062 146.185546875 216.901367188 144.825195312 c 0
 264.161132812 143.827148438 374.916992188 153.895507812 339.176757812 232.8125 c 0
 322.124023438 270.184570312 263.616210938 284.42578125 229.23828125 299.392578125 c 0
 198.306640625 312.908203125 166.55859375 325.063476562 135.989257812 339.486328125 c 0
 26.5947265625 391.099609375 -20.57421875 549.83984375 61.6982421875 650.345703125 c 0
 102.518554688 700.234375 187.05859375 696.0625 245.565429688 693.704101562 c 0
 305.364257812 690.591796875 401.268554688 677.221679688 459.638671875 663.860351562 c 1
EndSplineSet
Validated: 33
EndChar

StartChar: T
Encoding: 84 84 19
Width: 491
VWidth: 0
Flags: MW
LayerCount: 2
Fore
SplineSet
145.54296875 484.555664062 m 1
 21 484.555664062 l 1
 21 695 l 1
 467.559570312 695 l 1
 467.559570312 518.934570312 l 1
 252.8515625 536.078125 l 1
 270.086914062 12.234375 l 1
 128.399414062 -5 l 1
 145.54296875 484.555664062 l 1
EndSplineSet
Validated: 1
EndChar

StartChar: U
Encoding: 85 85 20
Width: 512
VWidth: 0
Flags: MW
AnchorPoint: "top" 214 648 basechar 0
LayerCount: 2
Fore
SplineSet
152.708984375 591.001953125 m 1
 152.708984375 591.001953125 154.16015625 145.62109375 154.795898438 129.928710938 c 0
 155.883789062 104.983398438 185.455078125 99.8125 223.280273438 99.8125 c 0
 242.786132812 99.9306640625 273.630859375 105.05078125 292.12890625 111.2421875 c 0
 316.983398438 123.669921875 314.26171875 166.57421875 314.26171875 166.57421875 c 1
 314.26171875 675.6328125 l 1
 485.701171875 694.953125 l 1
 485.701171875 130.291015625 l 1
 485.701171875 130.291015625 481.528320312 44.48046875 430.368164062 19.626953125 c 0
 379.208984375 -5.2275390625 314.170898438 -5.2275390625 314.170898438 -5.2275390625 c 1
 200.78515625 -5.2275390625 l 2
 176.836914062 -6.044921875 100.641601562 7.2900390625 67.9873046875 31.0556640625 c 0
 48.935546875 45.447265625 31.5830078125 76.4130859375 29.25390625 100.17578125 c 2
 21 625.833007812 l 1
 152.708984375 591.001953125 l 1
EndSplineSet
Validated: 33
EndChar

StartChar: V
Encoding: 86 86 21
Width: 540
VWidth: 0
Flags: MW
LayerCount: 2
Fore
SplineSet
144.748046875 17.77734375 m 1
 20 647.397460938 l 1
 187.989257812 656.895507812 l 1
 187.989257812 656.895507812 245.614257812 265.01171875 271.938476562 192.732421875 c 0
 298.262695312 120.452148438 310.294921875 135.650390625 310.294921875 135.650390625 c 1
 310.294921875 135.650390625 317.53125 107.154296875 355.526367188 295.407226562 c 0
 393.520507812 483.66015625 430.248046875 694.98046875 430.248046875 694.98046875 c 1
 518.9921875 653.095703125 l 1
 518.9921875 653.095703125 459.015625 339.19140625 432.600585938 234.616210938 c 0
 406.185546875 130.041992188 365.38671875 -5.109375 365.38671875 -5.109375 c 1
 144.748046875 17.77734375 l 1
EndSplineSet
Validated: 33
EndChar

StartChar: W
Encoding: 87 87 22
Width: 670
VWidth: 0
Flags: MW
AnchorPoint: "top" 300 667 basechar 0
LayerCount: 2
Fore
SplineSet
20 692.400390625 m 1
 106.896484375 695 l 1
 120.63671875 164.244140625 l 1
 209.760742188 164.244140625 l 1
 198.62109375 616.459960938 l 1
 430.715820312 616.459960938 l 1
 430.715820312 616.459960938 432.665039062 224.310546875 455.50390625 185.225585938 c 0
 460.702148438 175.755859375 506.657226562 171.579101562 509.907226562 189.403320312 c 0
 522.439453125 259.217773438 509.907226562 683.48828125 509.907226562 683.48828125 c 1
 649.1640625 683.48828125 l 1
 595.0390625 -35.171875 556.326171875 -4.8134765625 556.326171875 -4.8134765625 c 1
 458.938476562 -3.236328125 l 1
 458.938476562 -3.236328125 433.779296875 -3.142578125 414.190429688 33.1572265625 c 0
 394.6015625 69.45703125 362.108398438 251.140625 362.108398438 251.140625 c 1
 307.797851562 251.140625 l 1
 307.797851562 251.140625 278.275390625 42.8125 253.952148438 6.419921875 c 0
 251.259765625 2.3349609375 138.833007812 5.212890625 127.506835938 9.3896484375 c 0
 116.1796875 13.568359375 96.962890625 31.857421875 89.4423828125 66.5791015625 c 0
 73.103515625 142.334960938 20 692.400390625 20 692.400390625 c 1
EndSplineSet
Validated: 33
EndChar

StartChar: X
Encoding: 88 88 23
Width: 584
VWidth: 0
Flags: MW
LayerCount: 2
Fore
SplineSet
245.940429688 369.395507812 m 1
 74.673828125 684.137695312 l 1
 198.598632812 695 l 1
 326.142578125 464.3515625 l 1
 428.25 678.706054688 l 1
 563.036132812 551.162109375 l 1
 388.149414062 288.016601562 l 1
 552.173828125 -5 l 1
 399.102539062 3.1474609375 l 1
 351.668945312 149.610351562 l 1
 264.225585938 3.1474609375 l 1
 20 3.1474609375 l 1
 245.940429688 369.395507812 l 1
EndSplineSet
Validated: 1
EndChar

StartChar: Y
Encoding: 89 89 24
Width: 500
VWidth: 0
Flags: MW
AnchorPoint: "top" 219 699 basechar 0
LayerCount: 2
Fore
SplineSet
162.094726562 162.626953125 m 2
 145.651367188 164.833007812 119.390625 170.42578125 103.475585938 175.111328125 c 0
 86.76953125 178.913085938 66.099609375 193.948242188 57.3388671875 208.672851562 c 0
 45.7607421875 225.499023438 30.1103515625 318.1328125 21.697265625 426.688476562 c 0
 20.7607421875 442.82421875 20 469.038085938 20 485.201171875 c 0
 20 530.392578125 25.9072265625 603.267578125 33.185546875 647.869140625 c 1
 194.299804688 649.768554688 l 2
 187.854492188 639.6015625 179.749023438 622.012695312 176.20703125 610.5078125 c 0
 166.079101562 568.301757812 153.920898438 499.040039062 149.068359375 455.907226562 c 0
 142.374023438 393.306640625 134.413085938 254.71875 144.907226562 235.811523438 c 0
 155.400390625 216.904296875 195.204101562 205.416015625 228.765625 200.168945312 c 0
 234.133789062 199.603515625 242.870117188 199.143554688 248.266601562 199.143554688 c 0
 262.84765625 199.143554688 286.046875 202.439453125 300.05078125 206.501953125 c 2
 300.05078125 206.501953125 336.14453125 209.396484375 342.38671875 275.796875 c 0
 348.62890625 342.196289062 320.314453125 502.223632812 310.182617188 554.602539062 c 0
 300.05078125 606.979492188 279.515625 695 279.515625 695 c 1
 461.797851562 688.66796875 l 1
 474.462890625 573.780273438 l 2
 480.704101562 516.155273438 475.458007812 339.30078125 468.129882812 267.745117188 c 0
 460.802734375 196.189453125 450.30859375 191.9375 430.407226562 177.282226562 c 0
 410.505859375 162.626953125 329.8125 162.626953125 329.8125 162.626953125 c 1
 344.467773438 -5 l 1
 162.094726562 -5 l 1
 162.094726562 162.626953125 l 2
EndSplineSet
Validated: 33
EndChar

StartChar: Z
Encoding: 90 90 25
Width: 534
VWidth: 0
Flags: MW
AnchorPoint: "top" 210 745 basechar 0
LayerCount: 2
Fore
SplineSet
20 695 m 1
 437.36328125 688.455078125 l 1
 424.272460938 412.36328125 l 1
 181 156 l 1
 490 198.727539062 l 1
 513.000976562 -5 l 1
 52.9091796875 -5 l 1
 52.9091796875 162.63671875 l 1
 355.181640625 484.63671875 l 1
 355.181640625 520.818359375 l 1
 36.455078125 540.544921875 l 1
 20 695 l 1
EndSplineSet
Validated: 1
EndChar

StartChar: a
Encoding: 97 97 26
Width: 453
VWidth: 0
Flags: MW
AnchorPoint: "bottom" 351 22 basechar 0
AnchorPoint: "top" 226.5 534 basechar 0
LayerCount: 2
Fore
SplineSet
429.37109375 120.037109375 m 0
 429.37109375 81.3212890625 443.68359375 32.7890625 394.784179688 12.880859375 c 0
 370.090820312 3.3564453125 328.620117188 -5.8505859375 302.215820312 -7.669921875 c 0
 301.991210938 -7.685546875 301.626953125 -7.6982421875 301.40234375 -7.6982421875 c 0
 295.7265625 -7.6982421875 290.583984375 -3.123046875 289.921875 2.513671875 c 2
 288.270507812 15.724609375 l 2
 287.873046875 19.1787109375 284.729492188 21.9814453125 281.252929688 21.9814453125 c 0
 281.11328125 21.9814453125 280.88671875 21.9736328125 280.748046875 21.962890625 c 0
 245.9765625 19.486328125 86.435546875 9.2109375 66.802734375 26.275390625 c 0
 44.7841796875 45.265625 45.2431640625 64.4404296875 41.8486328125 131.596679688 c 0
 38.4541015625 198.751953125 49.279296875 229.853515625 66.802734375 237.284179688 c 0
 84.3251953125 244.715820312 319.73828125 261.962890625 319.73828125 261.962890625 c 1
 319.73828125 261.962890625 313.041015625 351.229492188 298.637695312 367.467773438 c 0
 284.234375 383.706054688 207.4453125 372.23828125 185.426757812 361.688476562 c 0
 172.307617188 355.44921875 173.224609375 339.302734375 176.251953125 327.008789062 c 0
 176.481445312 326.09375 176.66796875 324.5859375 176.66796875 323.642578125 c 0
 176.66796875 316.696289062 171.056640625 310.518554688 164.142578125 309.853515625 c 0
 126.52734375 306.091796875 37.8115234375 300.495117188 26.52734375 329.02734375 c 0
 12.1240234375 365.724609375 23.224609375 410.770507812 43.591796875 446.18359375 c 0
 63.958984375 481.596679688 208.729492188 480.678710938 208.729492188 480.678710938 c 1
 208.729492188 480.678710938 330.47265625 480.678710938 350.65625 472.97265625 c 0
 370.83984375 465.265625 390.10546875 437.375976562 400.564453125 401.962890625 c 0
 411.022460938 366.55078125 429.37109375 158.385742188 429.37109375 120.037109375 c 0
255.059570312 78.935546875 m 2
 255.426757812 78.935546875 l 2
 304.967773438 78.4775390625 349.646484375 70.9541015625 349.646484375 137.651367188 c 0
 349.646484375 204.348632812 334.325195312 219.39453125 309.096679688 221.321289062 c 0
 301.755859375 222.016601562 289.815429688 222.580078125 282.442382812 222.580078125 c 0
 278.604492188 222.580078125 272.37890625 222.426757812 268.545898438 222.23828125 c 2
 268.545898438 222.23828125 194.784179688 215.541015625 198.729492188 158.018554688 c 0
 202.673828125 100.495117188 205.518554688 79.39453125 255.059570312 78.935546875 c 2
EndSplineSet
Validated: 33
AlternateSubs2: "'salt' Stylistic Alternatives in Latin lookup 5-1" a.dalt
EndChar

StartChar: b
Encoding: 98 98 27
Width: 508
VWidth: 0
Flags: MW
LayerCount: 2
Fore
SplineSet
483.403320312 335.139648438 m 0
 484.862304688 278.809570312 487.323242188 99.1533203125 469.731445312 67.70703125 c 0
 439.287109375 13.9287109375 417.958007812 -4.6650390625 253.70703125 -6.8525390625 c 0
 89.4560546875 -9.041015625 39.8701171875 30.609375 39.8701171875 30.609375 c 1
 20 658.538085938 l 1
 218.432617188 696 l 1
 200.020507812 364.489257812 l 1
 200.020507812 364.489257812 298.916992188 410.611328125 399.181640625 398.305664062 c 0
 417.612304688 396.749023438 445.216796875 387.3984375 460.798828125 377.432617188 c 0
 472.991210938 368.94140625 483.118164062 349.994140625 483.403320312 335.139648438 c 0
189.719726562 100.612304688 m 0
 254.436523438 99.9736328125 313.13671875 90.6767578125 313.13671875 174.807617188 c 0
 313.13671875 258.938476562 293.174804688 277.989257812 260.26953125 280.450195312 c 0
 250.640625 281.3359375 234.977539062 282.0546875 225.307617188 282.0546875 c 0
 220.36328125 282.0546875 212.341796875 281.8671875 207.403320312 281.634765625 c 2
 207.403320312 281.634765625 111.149414062 272.884765625 116.25390625 200.420898438 c 0
 121.358398438 127.95703125 125.095703125 101.159179688 189.719726562 100.612304688 c 0
EndSplineSet
Validated: 33
EndChar

StartChar: c
Encoding: 99 99 28
Width: 479
VWidth: 0
Flags: MW
AnchorPoint: "top" 235 528 basechar 0
AnchorPoint: "bottom" 217 12 basechar 0
LayerCount: 2
Fore
SplineSet
270.87890625 470.510742188 m 0
 299.373046875 465.50390625 340.51953125 457.765625 385.581054688 447.296875 c 0
 469.96875 428.362304688 454.493164062 239.286132812 454.493164062 239.286132812 c 1
 322.404296875 277.247070312 l 2
 329.294921875 294.16015625 334.963867188 322.708007812 335.057617188 340.970703125 c 0
 334.329101562 362.544921875 271.880859375 411.9765625 240.9296875 411.521484375 c 0
 209.978515625 411.06640625 181.211914062 348.981445312 174.838867188 283.619140625 c 0
 168.466796875 218.2578125 174.475585938 89.71875 181.848632812 76.9736328125 c 0
 189.22265625 64.2294921875 285.80859375 80.615234375 298.462890625 95.1806640625 c 0
 311.116210938 109.74609375 313.938476562 149.80078125 313.938476562 149.80078125 c 1
 444.662109375 149.80078125 l 1
 452.672851562 33.0048828125 l 1
 452.672851562 33.0048828125 221.266601562 -1.4970703125 175.75 -0.7685546875 c 0
 130.233398438 -0.0400390625 62.2314453125 5.240234375 46.8466796875 20.7158203125 c 0
 31.4619140625 36.19140625 15.2578125 98.0029296875 22.99609375 213.250976562 c 0
 30.7333984375 328.499023438 52.3994140625 407.970703125 84.8076171875 435.28125 c 0
 107.201171875 454.033203125 145.071289062 464.59375 176.66015625 470.510742188 c 0
 189.556640625 472.849609375 210.662109375 474.748046875 223.76953125 474.748046875 c 0
 236.876953125 474.748046875 257.982421875 472.849609375 270.87890625 470.510742188 c 0
EndSplineSet
Validated: 33
EndChar

StartChar: d
Encoding: 100 100 29
Width: 503
VWidth: 0
Flags: MW
LayerCount: 2
Fore
SplineSet
285.413085938 674.944335938 m 1
 478.923828125 696 l 1
 471.99609375 54.763671875 l 2
 472.002929688 54.453125 472.008789062 53.94921875 472.008789062 53.6376953125 c 0
 472.008789062 30.107421875 453.259765625 7.376953125 430.158203125 2.900390625 c 2
 275.205078125 -4.4833984375 l 1
 275.205078125 -4.4833984375 100.379882812 -7.2177734375 75.9521484375 20.3095703125 c 0
 51.5244140625 47.8369140625 25 131.694335938 21.2626953125 203.79296875 c 0
 17.525390625 275.892578125 21.8095703125 338.23828125 37.7607421875 355.739257812 c 0
 68.306640625 386.764648438 127.395507812 420.454101562 169.653320312 430.9375 c 0
 212.67578125 441.966796875 293.434570312 470.405273438 293.434570312 470.405273438 c 1
 285.413085938 674.944335938 l 1
411.928710938 146.551757812 m 0
 413.751953125 202.517578125 410.834960938 242.896484375 395.61328125 280.450195312 c 0
 380.390625 318.00390625 328.618164062 373.96875 298.356445312 373.96875 c 0
 256.154296875 373.96875 230.450195312 260.032226562 221.334960938 207.07421875 c 2
 221.334960938 207.07421875 212.220703125 128.047851562 239.565429688 100.703125 c 0
 261.262695312 80.083984375 303.16015625 62.8115234375 333.084960938 62.1474609375 c 0
 357.239257812 63.05859375 410.10546875 90.5859375 411.928710938 146.551757812 c 0
EndSplineSet
Validated: 33
EndChar

StartChar: e
Encoding: 101 101 30
Width: 484
VWidth: 0
Flags: MW
AnchorPoint: "bottom" 357 22 basechar 0
AnchorPoint: "top" 228 540 basechar 0
LayerCount: 2
Fore
SplineSet
428.10546875 423.33984375 m 0
 459.848632812 386.55078125 463.977539062 342.7890625 463.059570312 296.734375 c 0
 462.142578125 250.678710938 458.013671875 250.678710938 426.362304688 229.2109375 c 0
 394.7109375 207.743164062 318.013671875 206.734375 318.013671875 206.734375 c 1
 107.004882812 196.55078125 l 1
 107.004882812 196.55078125 105.99609375 164.899414062 121.31640625 145.44921875 c 0
 144.161132812 116.55078125 178.564453125 122.97265625 211.31640625 120.954101562 c 0
 244.069335938 118.935546875 265.078125 120.954101562 282.41796875 129.119140625 c 0
 299.756835938 137.284179688 293.151367188 157.743164062 293.151367188 157.743164062 c 1
 448.564453125 163.889648438 l 1
 451.591796875 72.146484375 431.224609375 39.9453125 417.830078125 24.5322265625 c 0
 393.518554688 -3.541015625 293.793945312 2.0546875 217.463867188 2.0546875 c 0
 141.1328125 2.0546875 97.73828125 4.2568359375 56.1787109375 31.1376953125 c 0
 39.7763671875 42.7255859375 25.103515625 68.3720703125 23.4267578125 88.3857421875 c 2
 23.4267578125 88.3857421875 20.2158203125 242.146484375 23.4267578125 313.33984375 c 0
 26.6376953125 384.532226562 38.380859375 408.385742188 72.509765625 441.780273438 c 0
 106.637695312 475.173828125 174.7109375 481.596679688 244.252929688 480.586914062 c 0
 288.748046875 479.9453125 324.986328125 476.734375 345.169921875 474.532226562 c 0
 356.555664062 473.37890625 373.735351562 467.625 383.518554688 461.688476562 c 0
 397.448242188 452.991210938 417.422851562 435.811523438 428.10546875 423.33984375 c 0
281.958984375 263.522460938 m 0
 288.509765625 273.668945312 293.826171875 291.704101562 293.826171875 303.78125 c 0
 293.826171875 312.119140625 291.180664062 325.114257812 287.921875 332.7890625 c 0
 282.14453125 346.52734375 265.705078125 360.54296875 251.224609375 364.073242188 c 0
 232.963867188 368.399414062 202.911132812 371.91015625 184.14453125 371.91015625 c 0
 168.791992188 371.91015625 144.09765625 369.549804688 129.0234375 366.642578125 c 0
 108.619140625 362.616210938 87.3701171875 343.134765625 81.591796875 323.15625 c 0
 78.0078125 309.638671875 75.099609375 287.319335938 75.099609375 273.334960938 c 0
 75.099609375 271.892578125 75.130859375 269.551757812 75.169921875 268.110351562 c 1
 75.904296875 238.293945312 82.142578125 232.697265625 92.41796875 231.962890625 c 1
 131.958984375 230.586914062 238.508789062 243.389648438 249.940429688 244.348632812 c 0
 261.372070312 245.307617188 275.716796875 253.897460938 281.958984375 263.522460938 c 0
EndSplineSet
Validated: 33
EndChar

StartChar: f
Encoding: 102 102 31
Width: 343
VWidth: 0
Flags: MW
LayerCount: 2
Fore
SplineSet
44.01171875 -3.2607421875 m 1
 44.01171875 -3.2607421875 20 611.182617188 20 623.96484375 c 0
 20 636.747070312 37.62109375 641.220703125 74.779296875 658.475585938 c 0
 111.938476562 675.731445312 321.287109375 699.012695312 321.287109375 699.012695312 c 1
 321.287109375 532.756835938 l 1
 180.50390625 532.756835938 l 2
 171.956054688 549.477539062 149.787109375 563.588867188 131.01953125 564.254882812 c 0
 96.5087890625 564.254882812 95.0478515625 519.245117188 95.0478515625 519.245117188 c 1
 95.0478515625 281.8671875 l 1
 297.640625 281.8671875 l 1
 297.640625 208.279296875 l 1
 177.58203125 208.279296875 l 1
 177.58203125 -3.2607421875 l 1
 44.01171875 -3.2607421875 l 1
EndSplineSet
Validated: 1
EndChar

StartChar: g
Encoding: 103 103 32
Width: 550
VWidth: 0
Flags: MW
AnchorPoint: "top" 270 522 basechar 0
LayerCount: 2
Fore
SplineSet
344.12890625 457.467773438 m 5
 373.39453125 478.84375 l 5
 373.39453125 478.84375 464.586914062 479.9453125 488.165039062 478.84375 c 4
 511.743164062 477.743164062 530.916992188 458.568359375 528.715820312 395.541015625 c 4
 526.513671875 332.513671875 478.715820312 271.87109375 478.715820312 271.87109375 c 5
 346.330078125 319.119140625 l 5
 346.330078125 370.862304688 l 5
 346.330078125 370.862304688 263.76171875 376.458984375 245.413085938 357.375976562 c 4
 227.064453125 338.293945312 216.146484375 319.119140625 216.146484375 249.302734375 c 4
 216.146484375 179.486328125 211.651367188 131.137695312 258.899414062 111.688476562 c 4
 277.00390625 104.583007812 307.483398438 98.81640625 326.932617188 98.81640625 c 4
 333.657226562 98.81640625 344.525390625 99.52734375 351.192382812 100.403320312 c 6
 351.192382812 219.669921875 l 5
 470.458984375 223.064453125 495.229492188 183.614257812 495.229492188 183.614257812 c 5
 495.229492188 183.614257812 490.734375 -198.954101562 479.44921875 -237.2109375 c 4
 468.165039062 -275.467773438 89.724609375 -321.15625 62.751953125 -297.578125 c 4
 35.7802734375 -274 34.5869140625 -223.265625 35.7802734375 -142.256835938 c 4
 36.97265625 -61.248046875 65.0458984375 -54.458984375 65.0458984375 -54.458984375 c 5
 267.706054688 -104 l 5
 267.706054688 -104 220.275390625 -169.321289062 240.18359375 -184.734375 c 4
 260.091796875 -200.146484375 315.596679688 -201.614257812 330.18359375 -187.02734375 c 4
 344.770507812 -172.440429688 345.962890625 -130.7890625 345.962890625 -130.7890625 c 5
 345.962890625 46.734375 l 5
 345.962890625 46.734375 205.321289062 44.4404296875 136.697265625 46.734375 c 4
 68.0732421875 49.02734375 20 89.578125 20 208.84375 c 4
 20.1748046875 261.001953125 38.587890625 341.51953125 61.1005859375 388.568359375 c 4
 84.94140625 434.26953125 146.125 471.360351562 197.670898438 471.360351562 c 4
 206.198242188 471.360351562 219.900390625 469.986328125 228.256835938 468.293945312 c 6
 344.12890625 457.467773438 l 5
EndSplineSet
Validated: 33
EndChar

StartChar: h
Encoding: 104 104 33
Width: 501
VWidth: 0
Flags: MW
AnchorPoint: "top" 99 729 basechar 0
LayerCount: 2
Fore
SplineSet
26.306640625 -3.2470703125 m 1
 23 680.475585938 l 1
 215.08203125 696 l 1
 189.268554688 456.610351562 l 1
 369.591796875 458.5390625 l 2
 431.965820312 458.5390625 461.912109375 441.084960938 461.912109375 372.373046875 c 2
 479.641601562 -59.3740234375 l 1
 355.537109375 -56.06640625 l 1
 353.700195312 217.311523438 l 2
 353.700195312 258.465820312 322.651367188 261.680664062 299.685546875 261.680664062 c 2
 171.72265625 266.08984375 l 2
 153.315429688 265.350585938 136.854492188 249.876953125 134.978515625 231.549804688 c 2
 122.118164062 17.7890625 l 1
 26.306640625 -3.2470703125 l 1
EndSplineSet
Validated: 1
EndChar

StartChar: i
Encoding: 105 105 34
Width: 218
VWidth: 0
Flags: MW
LayerCount: 2
Fore
SplineSet
41.5751953125 4.3720703125 m 1
 30.013671875 359.127929688 l 1
 196.604492188 367.047851562 l 1
 176.577148438 4.3720703125 l 1
 41.5751953125 4.3720703125 l 1
20 475.46875 m 1
 44.396484375 665 l 1
 172.208007812 626.219726562 l 1
 172.208007812 469.733398438 l 1
 20 475.46875 l 1
EndSplineSet
Validated: 1
EndChar

StartChar: j
Encoding: 106 106 35
Width: 337
VWidth: 0
Flags: MW
LayerCount: 2
Fore
SplineSet
125.12890625 390.212890625 m 1
 301.926757812 418.91796875 l 1
 301.926757812 -220.994140625 l 2
 276.354492188 -250.478515625 224.997070312 -282.586914062 187.291015625 -292.6640625 c 0
 110.8671875 -314.147460938 72.6552734375 -297.41796875 72.6552734375 -297.41796875 c 1
 20 -140.090820312 l 1
 221.115234375 -140.090820312 l 1
 125.12890625 390.212890625 l 1
125.12890625 535.930664062 m 1
 148.98828125 696 l 1
 287.575195312 696 l 1
 316.1875 535.930664062 l 1
 125.12890625 535.930664062 l 1
EndSplineSet
Validated: 33
EndChar

StartChar: k
Encoding: 107 107 36
Width: 481
VWidth: 0
Flags: MW
LayerCount: 2
Fore
SplineSet
20 675.217773438 m 1
 203.575195312 696 l 1
 203.575195312 696 175.865234375 317.547851562 177.59765625 308.068359375 c 0
 179.329101562 298.588867188 196.46484375 295.9453125 212.234375 295.9453125 c 0
 228.002929688 295.9453125 328.267578125 474.32421875 328.267578125 474.32421875 c 1
 459.88671875 387.732421875 l 1
 319.608398438 240.252929688 l 1
 319.608398438 240.252929688 427.802734375 99.3359375 440.836914062 69.07421875 c 0
 453.87109375 38.8125 446.032226562 -17.517578125 446.032226562 -17.517578125 c 1
 297.09375 27.5107421875 l 1
 288.434570312 224.028320312 244.13671875 244.993164062 186.165039062 245.813476562 c 0
 128.194335938 246.633789062 121.17578125 207.712890625 125.55078125 161.7734375 c 0
 129.92578125 115.833984375 140.225585938 113.190429688 154.171875 81.197265625 c 0
 168.118164062 49.2041015625 167.206054688 -1.9306640625 167.206054688 -1.9306640625 c 1
 49.44140625 -0.19921875 l 1
 20 675.217773438 l 1
EndSplineSet
Validated: 33
EndChar

StartChar: l
Encoding: 108 108 37
Width: 219
VWidth: 0
Flags: MW
LayerCount: 2
Fore
SplineSet
39.2744140625 -5.2939453125 m 1
 20 672.834960938 l 2
 44.498046875 667.782226562 84.6728515625 663.080078125 109.674804688 662.337890625 c 0
 143.790039062 660.346679688 196.364257812 696 196.364257812 696 c 1
 184.69140625 -9.818359375 l 1
 39.2744140625 -5.2939453125 l 1
EndSplineSet
Validated: 33
EndChar

StartChar: m
Encoding: 109 109 38
Width: 744
VWidth: 0
Flags: MW
LayerCount: 2
Fore
SplineSet
24 -3.57421875 m 1
 24 436.928710938 l 2
 49.0693359375 444.473632812 90.662109375 450.676757812 116.841796875 450.7734375 c 0
 168.240234375 450.7734375 191.676757812 447.063476562 203.802734375 438.918945312 c 0
 213.374023438 432.157226562 226.630859375 418.900390625 233.392578125 409.329101562 c 0
 240.155273438 399.7578125 337.09375 467.604492188 387.224609375 466.609375 c 0
 437.356445312 465.61328125 436.6328125 393.493164062 436.6328125 393.493164062 c 1
 436.6328125 393.493164062 631.275390625 471.495117188 657.87890625 468.599609375 c 0
 684.483398438 465.704101562 698.418945312 374.76171875 703.124023438 341.9140625 c 0
 707.829101562 309.06640625 722.850585938 11.9892578125 722.850585938 11.9892578125 c 1
 620.688476562 -1.6748046875 l 1
 620.688476562 -1.6748046875 626.5703125 204.822265625 604.852539062 227.53515625 c 0
 583.134765625 250.248046875 560.421875 250.248046875 527.845703125 247.262695312 c 0
 495.26953125 244.276367188 458.711914062 240.384765625 448.848632812 221.563476562 c 0
 438.985351562 202.741210938 436.904296875 -1.6748046875 436.904296875 -1.6748046875 c 1
 276.91796875 -9.818359375 l 1
 276.91796875 -9.818359375 278.909179688 61.306640625 280.899414062 134.421875 c 0
 282.890625 207.537109375 288.772460938 326.079101562 262.801757812 345.805664062 c 0
 236.831054688 365.532226562 132.587890625 344.0859375 116.841796875 312.504882812 c 0
 101.096679688 280.924804688 102.997070312 -1.6748046875 102.997070312 -1.6748046875 c 1
 24 -3.57421875 l 1
EndSplineSet
Validated: 33
EndChar

StartChar: n
Encoding: 110 110 39
Width: 509
VWidth: 0
Flags: MW
AnchorPoint: "top" 254.5 480 basechar 0
LayerCount: 2
Fore
SplineSet
20 -30.9931640625 m 1
 84.337890625 446.97265625 l 1
 199.259765625 468.690429688 l 1
 199.259765625 416.659179688 l 1
 380.782226562 400.732421875 l 1
 380.782226562 400.732421875 424.125976562 398.560546875 450.1875 367.432617188 c 0
 458.538085938 357.173828125 469.524414062 338.971679688 474.709960938 326.802734375 c 0
 481.00390625 312.0546875 486.112304688 287.072265625 486.112304688 271.037109375 c 0
 486.112304688 270.944335938 486.112304688 270.79296875 486.111328125 270.69921875 c 0
 486.115234375 269.428710938 486.118164062 267.368164062 486.118164062 266.09765625 c 0
 486.118164062 191.817382812 476.5078125 72.017578125 464.666015625 -1.3125 c 1
 280.971679688 1.5830078125 l 1
 285.586914062 258.211914062 l 2
 285.588867188 258.317382812 285.58984375 258.489257812 285.58984375 258.594726562 c 0
 285.58984375 270.795898438 275.697265625 281.124023438 263.5078125 281.6484375 c 2
 231.564453125 283.095703125 l 2
 231.065429688 283.118164062 230.254882812 283.135742188 229.754882812 283.135742188 c 0
 206.955078125 283.135742188 188.428710938 264.631835938 188.401367188 241.833007812 c 2
 188.401367188 -15.791015625 l 1
 20 -30.9931640625 l 1
EndSplineSet
Validated: 1
EndChar

StartChar: o
Encoding: 111 111 40
Width: 491
VWidth: 0
Flags: MW
AnchorPoint: "top" 227 527 basechar 0
LayerCount: 2
Fore
SplineSet
456.345703125 385.078125 m 0
 471.909179688 313.047851562 483.220703125 160.392578125 415.262695312 59.767578125 c 0
 406.981445312 47.6298828125 390.765625 30.5625 379.067382812 21.671875 c 2
 328.6640625 -9.1845703125 l 2
 314.208007812 -18.3544921875 288.586914062 -26.21875 271.474609375 -26.740234375 c 2
 148.861328125 -26.740234375 l 6
 124.803710938 -26.4921875 93.3857421875 -10.802734375 78.732421875 8.279296875 c 0
 51.857421875 43.298828125 21.6337890625 113.700195312 21 248.80078125 c 2
 23.3525390625 349.967773438 l 2
 23.3671875 354.596679688 24.2177734375 362.015625 25.2529296875 366.52734375 c 0
 34.439453125 404.083984375 72.140625 442.920898438 109.408203125 453.216796875 c 0
 138.046875 460.768554688 185.31640625 467.66015625 214.918945312 468.599609375 c 0
 265.533203125 468.334960938 346.612304688 458.767578125 395.8984375 447.244140625 c 0
 423.239257812 440.44921875 450.319335938 412.598632812 456.345703125 385.078125 c 0
310.114257812 179.124023438 m 0
 342.599609375 232.512695312 337.170898438 313.41015625 329.66015625 352.139648438 c 0
 327.24609375 366.270507812 314.15234375 381.107421875 300.431640625 385.258789062 c 0
 280.46484375 390.287109375 247.549804688 394.3671875 226.959960938 394.3671875 c 0
 225.310546875 394.3671875 222.631835938 394.340820312 220.981445312 394.307617188 c 0
 204.607421875 394.28515625 178.297851562 391.609375 162.25390625 388.3359375 c 0
 143.735351562 382.08984375 125.655273438 361.455078125 121.895507812 342.276367188 c 0
 121.395507812 339.889648438 120.990234375 335.973632812 120.990234375 333.53515625 c 0
 120.990234375 333.450195312 120.990234375 333.3125 120.991210938 333.227539062 c 2
 119.905273438 279.748046875 l 2
 120.538085938 207.356445312 134.745117188 171.16015625 147.685546875 153.0625 c 0
 154.342773438 143.91015625 168.931640625 136.482421875 180.249023438 136.482421875 c 0
 180.602539062 136.482421875 181.17578125 136.4921875 181.528320312 136.502929688 c 2
 240.618164062 136.502929688 l 2
 241.043945312 136.490234375 241.734375 136.478515625 242.16015625 136.478515625 c 0
 249.9765625 136.478515625 261.690429688 139.854492188 268.307617188 144.013671875 c 2
 292.46875 159.03515625 l 2
 298.2421875 163.786132812 306.147460938 172.786132812 310.114257812 179.124023438 c 0
EndSplineSet
Validated: 33
EndChar

StartChar: p
Encoding: 112 112 41
Width: 590
VWidth: 0
Flags: MW
LayerCount: 2
Fore
SplineSet
512.643554688 424.53125 m 0
 547.572265625 392.860351562 565.670898438 334.313476562 565.670898438 234.05078125 c 0
 565.670898438 133.788085938 561.959960938 80.3994140625 542.143554688 56.962890625 c 0
 522.326171875 33.5263671875 341.346679688 46.9189453125 341.346679688 46.9189453125 c 1
 123.538085938 67.0068359375 l 1
 123.538085938 -304 l 1
 24 -300.923828125 l 1
 24 384.444335938 l 2
 24 461.360351562 24 467.15234375 93.8583984375 467.15234375 c 0
 153.12890625 467.15234375 230.768554688 469.866210938 275.379882812 467.966796875 c 0
 355.553710938 464.618164062 477.533203125 456.29296875 512.643554688 424.53125 c 0
348.676757812 127.091796875 m 0
 422.154296875 125.916015625 489.116210938 113.06640625 489.116210938 234.141601562 c 0
 489.116210938 355.216796875 466.403320312 382.634765625 428.940429688 386.1640625 c 0
 418.123046875 387.413085938 400.505859375 388.427734375 389.616210938 388.427734375 c 0
 383.856445312 388.427734375 374.514648438 388.143554688 368.765625 387.79296875 c 2
 368.765625 387.79296875 259.36328125 375.21484375 265.154296875 270.790039062 c 0
 270.946289062 166.364257812 275.19921875 127.90625 348.676757812 127.091796875 c 0
EndSplineSet
Validated: 33
EndChar

StartChar: q
Encoding: 113 113 42
Width: 511
VWidth: 0
Flags: HMW
LayerCount: 2
Fore
SplineSet
489.862304688 77.7333984375 m 1
 389.142578125 -4.84765625 l 1
 307.108398438 67.0693359375 l 1
 307.108398438 67.0693359375 318.958007812 -6.48828125 203.5625 -3.3896484375 c 0
 94.18359375 -0.47265625 58.361328125 25.3232421875 46.4208984375 49.4775390625 c 0
 30.37890625 82.9287109375 22.904296875 165.0546875 21.263671875 227.674804688 c 0
 19.623046875 290.293945312 24.3623046875 378.618164062 72.9453125 428.932617188 c 0
 121.528320312 479.247070312 267.001953125 475.418945312 267.001953125 475.418945312 c 1
 267.001953125 475.418945312 374.83203125 475.418945312 424.143554688 420.728515625 c 0
 456.411132812 385.08984375 472.7265625 348.811523438 467.440429688 262.584960938 c 0
 462.153320312 176.357421875 403.635742188 149.650390625 403.635742188 149.650390625 c 1
 489.862304688 77.7333984375 l 1
350.221679688 244.081054688 m 0
 359.427734375 268.236328125 374.83203125 345.530273438 339.284179688 374.060546875 c 0
 316.314453125 392.290039062 277.302734375 390.102539062 216.049804688 389.099609375 c 0
 154.797851562 388.09765625 127.634765625 362.940429688 109.22265625 342.522460938 c 0
 90.810546875 322.10546875 83.8837890625 276.986328125 85.9794921875 233.143554688 c 0
 87.3203125 197.793945312 116.272460938 162.186523438 150.604492188 153.661132812 c 0
 173.665039062 148.009765625 210.3984375 155.392578125 227.53515625 159.495117188 c 0
 232.579101562 160.708984375 239.806640625 164.506835938 243.66796875 167.971679688 c 2
 249.13671875 172.893554688 l 1
 207.846679688 230.409179688 l 1
 284.502929688 286.556640625 l 1
 324.244140625 227.674804688 l 1
 324.244140625 227.674804688 344.662109375 229.40625 350.221679688 244.081054688 c 0
EndSplineSet
EndChar

StartChar: r
Encoding: 114 114 43
Width: 428
VWidth: 0
Flags: MW
AnchorPoint: "top" 191 573 basechar 0
LayerCount: 2
Fore
SplineSet
32.302734375 -13.962890625 m 1
 21 470.041015625 l 1
 168.024414062 490.3671875 l 1
 172.581054688 438.3203125 l 1
 403.189453125 459.01171875 l 1
 403.189453125 257.48046875 l 1
 403.189453125 257.48046875 277.220703125 278.991210938 238.846679688 276.712890625 c 0
 151.434570312 272.155273438 164.1953125 285.0078125 156.8125 209.626953125 c 2
 143.140625 -19.6142578125 l 1
 32.302734375 -13.962890625 l 1
EndSplineSet
Validated: 33
EndChar

StartChar: s
Encoding: 115 115 44
Width: 419
VWidth: 0
Flags: MW
AnchorPoint: "bottom" 193 2 basechar 0
AnchorPoint: "top" 218 553 basechar 0
LayerCount: 2
Fore
SplineSet
81.203125 203.79296875 m 1
 115.56640625 187.11328125 219.568359375 129.32421875 248.09765625 185.19921875 c 0
 280.638671875 250.005859375 106.452148438 305.060546875 84.029296875 356.650390625 c 0
 39.2744140625 459.741210938 161.779296875 471.772460938 233.60546875 474.05078125 c 0
 330.587890625 477.241210938 380.08203125 456.27734375 382.26953125 352.184570312 c 1
 324.116210938 360.934570312 136.075195312 389.829101562 242.08203125 298.6796875 c 0
 303.42578125 245.995117188 438.053710938 160.315429688 386.827148438 63.6962890625 c 0
 327.762695312 -47.0498046875 103.625976562 2.900390625 4 9.736328125 c 1
 11.8388671875 86.7578125 30.068359375 143.908203125 81.203125 203.79296875 c 1
EndSplineSet
Validated: 33
EndChar

StartChar: t
Encoding: 116 116 45
Width: 434
VWidth: 0
Flags: MW
LayerCount: 2
Fore
SplineSet
105.041992188 -7.3994140625 m 1
 99.8466796875 367.498046875 l 1
 20 384.26953125 l 1
 20 587.805664062 l 1
 97.294921875 587.805664062 l 1
 97.294921875 696 l 1
 259.631835938 696 l 1
 259.631835938 551.7109375 l 1
 411.668945312 551.7109375 l 1
 411.668945312 415.168945312 l 1
 223.536132812 415.168945312 l 1
 223.536132812 -7.3994140625 l 1
 105.041992188 -7.3994140625 l 1
EndSplineSet
Validated: 1
EndChar

StartChar: u
Encoding: 117 117 46
Width: 517
VWidth: 0
Flags: MW
AnchorPoint: "top" 249 515 basechar 0
LayerCount: 2
Fore
SplineSet
47.4677734375 436.588867188 m 2
 179.178710938 458.19140625 l 2
 179.838867188 458.309570312 180.91796875 458.405273438 181.587890625 458.405273438 c 0
 188.158203125 458.405273438 194.225585938 453.123046875 195.129882812 446.615234375 c 0
 209.166992188 327.02734375 141.443359375 172.255859375 157.12109375 140.900390625 c 0
 172.798828125 109.544921875 190.572265625 114.740234375 278.258789062 111.641601562 c 0
 365.944335938 108.541992188 398.301757812 130.41796875 391.009765625 188.935546875 c 0
 385.0859375 236.060546875 328.9375 347.080078125 307.42578125 388.279296875 c 0
 305.951171875 391.123046875 304.75390625 396.030273438 304.75390625 399.234375 c 0
 304.75390625 405.119140625 308.319335938 413.075195312 312.712890625 416.9921875 c 0
 342.701171875 443.971679688 415.255859375 500.302734375 459.918945312 460.469726562 c 0
 517.434570312 409.334960938 493.37109375 78.9189453125 447.431640625 36.5341796875 c 0
 401.4921875 -5.8505859375 319.731445312 -7.30859375 234.233398438 -7.30859375 c 0
 148.735351562 -7.30859375 120.5703125 -5.2119140625 61.0498046875 42.8232421875 c 0
 10.279296875 83.8408203125 21.9462890625 339.241210938 26.3212890625 413.436523438 c 0
 27.095703125 424.450195312 36.5693359375 434.822265625 47.4677734375 436.588867188 c 2
EndSplineSet
Validated: 33
EndChar

StartChar: v
Encoding: 118 118 47
Width: 505
VWidth: 0
Flags: MW
LayerCount: 2
Fore
SplineSet
20 432.668945312 m 1
 177.232421875 474.59765625 l 1
 177.232421875 474.59765625 256.897460938 216.736328125 292.537109375 216.736328125 c 0
 328.17578125 216.736328125 372.201171875 432.668945312 372.201171875 432.668945312 c 1
 483.129882812 432.668945312 l 1
 495.890625 294.3046875 348.137695312 28.0576171875 328.17578125 4.99609375 c 0
 308.21484375 -18.064453125 185.891601562 3.90234375 166.750976562 25.9609375 c 0
 147.609375 48.0185546875 132.751953125 106.627929688 102.034179688 176.904296875 c 0
 71.3173828125 247.180664062 20 432.668945312 20 432.668945312 c 1
EndSplineSet
Validated: 33
EndChar

StartChar: w
Encoding: 119 119 48
Width: 799
VWidth: 0
Flags: MW
AnchorPoint: "top" 376 530 basechar 0
LayerCount: 2
Fore
SplineSet
20 443.333984375 m 1
 177.505859375 445.704101562 l 1
 177.505859375 445.704101562 205.489257812 125.678710938 207.220703125 112.643554688 c 0
 208.953125 99.609375 230.737304688 96.0546875 264.827148438 96.9658203125 c 0
 298.916992188 97.8779296875 296.2734375 117.930664062 296.2734375 117.930664062 c 1
 310.219726562 433.125 l 1
 502.088867188 433.125 l 1
 520.319335938 230.135742188 l 2
 520.989257812 222.112304688 526.256835938 211.086914062 532.077148438 205.525390625 c 0
 542.286132812 195.86328125 558.419921875 183.466796875 573.915039062 183.466796875 c 0
 593.23828125 183.466796875 606.181640625 200.330078125 611.46875 208.624023438 c 0
 612.901367188 210.96875 614.53515625 215.052734375 615.114257812 217.739257812 c 2
 676.822265625 464.20703125 l 1
 778.08984375 427.747070312 l 1
 778.08984375 427.747070312 748.465820312 285.918945312 717.01953125 190.758789062 c 0
 690.3125 109.727539062 624.3203125 23.681640625 605.270507812 -0.1083984375 c 0
 602.430664062 -3.6298828125 596.454101562 -6.48828125 591.9296875 -6.48828125 c 0
 591.9140625 -6.48828125 591.887695312 -6.48828125 591.87109375 -6.48828125 c 2
 449.952148438 -6.48828125 l 1
 439.287109375 66.4306640625 l 2
 438.321289062 72.279296875 432.7265625 77.09765625 426.799804688 77.1865234375 c 2
 387.696289062 77.1865234375 l 2
 387.68359375 77.1865234375 387.662109375 77.1865234375 387.6484375 77.1865234375 c 0
 380.688476562 77.1865234375 374.2578125 71.5927734375 373.294921875 64.69921875 c 2
 362.8125 -11.775390625 l 1
 162.284179688 -11.775390625 l 2
 162.258789062 -11.775390625 162.217773438 -11.775390625 162.192382812 -11.775390625 c 0
 156.947265625 -11.775390625 150.168945312 -8.3447265625 147.0625 -4.1181640625 c 0
 136.489257812 10.1005859375 113.51953125 45.8310546875 86.8125 115.743164062 c 0
 50.0791015625 211.814453125 20 443.333984375 20 443.333984375 c 1
EndSplineSet
Validated: 33
EndChar

StartChar: x
Encoding: 120 120 49
Width: 579
VWidth: 0
Flags: MW
LayerCount: 2
Fore
SplineSet
213.509765625 269.330078125 m 1
 83.8955078125 415.715820312 l 1
 181.516601562 474.59765625 l 1
 292.537109375 395.48046875 l 1
 358.1640625 467.853515625 l 1
 489.418945312 376.977539062 l 1
 380.040039062 257.571289062 l 1
 558.419921875 -11.68359375 l 1
 388.516601562 -11.68359375 l 1
 317.78515625 114.557617188 l 1
 213.509765625 -9.9521484375 l 1
 20 -9.9521484375 l 1
 213.509765625 269.330078125 l 1
EndSplineSet
Validated: 1
EndChar

StartChar: y
Encoding: 121 121 50
Width: 581
VWidth: 0
Flags: MW
AnchorPoint: "top" 302 481 basechar 0
LayerCount: 2
Fore
SplineSet
62.56640625 -151.872070312 m 1
 169.120117188 40.7265625 l 1
 20 396.209960938 l 1
 168.299804688 474.59765625 l 1
 318.33203125 237.609375 l 1
 451.227539062 462.657226562 l 1
 560.333984375 372.328125 l 1
 212.598632812 -152.692382812 l 1
 62.56640625 -151.872070312 l 1
EndSplineSet
Validated: 1
EndChar

StartChar: z
Encoding: 122 122 51
Width: 480
VWidth: 0
Flags: MW
AnchorPoint: "top" 222 492 basechar 0
LayerCount: 2
Fore
SplineSet
38.2294921875 474.59765625 m 1
 38.2294921875 474.59765625 159.276367188 445.430664062 215.879882812 445.430664062 c 0
 259.359375 447.091796875 329.595703125 453.502929688 372.657226562 459.741210938 c 1
 381.04296875 348.264648438 l 1
 287.796875 146.186523438 l 2
 281.872070312 130.96484375 294.90625 94.5966796875 309.30859375 86.8486328125 c 0
 318.884765625 81.8125 335.439453125 77.7255859375 346.258789062 77.7255859375 c 0
 346.576171875 77.7255859375 347.091796875 77.7294921875 347.408203125 77.7333984375 c 0
 377.943359375 77.7333984375 424.521484375 101.888671875 448.12890625 115.377929688 c 0
 449.0234375 115.890625 450.5859375 116.306640625 451.616210938 116.306640625 c 0
 455.490234375 116.306640625 458.634765625 113.162109375 458.634765625 109.288085938 c 0
 458.634765625 108.717773438 458.501953125 107.811523438 458.337890625 107.265625 c 0
 449.860351562 78.736328125 430.171875 22.2236328125 402.189453125 2.080078125 c 0
 363.998046875 -25.265625 92.28125 -14.0537109375 92.28125 -14.0537109375 c 1
 92.28125 -14.0537109375 77.970703125 104.896484375 73.2314453125 161.956054688 c 0
 71.8642578125 178.088867188 180.969726562 279.994140625 191.26953125 288.926757812 c 0
 204.577148438 300.502929688 212.598632812 349.541015625 196.19140625 352.731445312 c 2
 20 353.734375 l 1
 38.2294921875 474.59765625 l 1
EndSplineSet
Validated: 33
EndChar

StartChar: zero
Encoding: 48 48 53
Width: 577
VWidth: 0
Flags: MW
LayerCount: 2
Fore
SplineSet
552.5078125 312.118164062 m 0
 553.236328125 249.977539062 547.131835938 161.958984375 490.822265625 96.4462890625 c 0
 434.512695312 30.93359375 362.89453125 -1.7763671875 253.373046875 -3.1435546875 c 0
 143.8515625 -4.509765625 88.8173828125 48.1552734375 69.865234375 70.5693359375 c 0
 50.9130859375 92.984375 32.78125 129.977539062 23.578125 302.55078125 c 0
 14.3759765625 475.125 46.7216796875 624.555664062 86.8125 661.3671875 c 0
 126.904296875 698.177734375 265.673828125 700 265.673828125 700 c 1
 265.673828125 700 402.166015625 708.3828125 464.580078125 647.790039062 c 0
 521.892578125 592.118164062 551.778320312 374.168945312 552.5078125 312.118164062 c 0
316.607421875 67.8359375 m 0
 368.270507812 86.0595703125 370.822265625 178.724609375 364.625976562 353.39453125 c 0
 358.430664062 528.063476562 334.557617188 597.584960938 322.986328125 613.986328125 c 0
 311.4140625 630.387695312 262.849609375 629.020507812 262.849609375 629.020507812 c 1
 262.849609375 629.020507812 223.487304688 630.022460938 202.712890625 611.252929688 c 0
 181.938476562 592.483398438 202.166015625 409.612304688 204.26171875 392.57421875 c 0
 206.357421875 375.53515625 240.252929688 144.19140625 247.177734375 125.1484375 c 0
 252.21484375 113.461914062 263.27734375 96.357421875 271.870117188 86.970703125 c 0
 284.990234375 71.9365234375 308.86328125 65.1025390625 316.607421875 67.8359375 c 0
EndSplineSet
Validated: 33
Substitution2: "'frac' Diagonal Fractions lookup 1 subtable" uni2070
EndChar

StartChar: one
Encoding: 49 49 54
Width: 269
VWidth: 0
Flags: MW
LayerCount: 2
Fore
SplineSet
28.833984375 550.114257812 m 1
 24.7333984375 669.749023438 l 1
 246.145507812 700 l 1
 246.145507812 700 224.82421875 464.19140625 222.456054688 327.334960938 c 0
 220.086914062 190.478515625 213.34375 -4.0546875 213.34375 -4.0546875 c 1
 22 -5.421875 l 1
 22 -5.421875 82.2275390625 394.305664062 70.109375 485.512695312 c 0
 62.546875 542.55078125 28.833984375 550.114257812 28.833984375 550.114257812 c 1
EndSplineSet
Validated: 33
Substitution2: "'frac' Diagonal Fractions lookup 1 subtable" uni00B9
EndChar

StartChar: two
Encoding: 50 50 55
Width: 630
VWidth: 0
Flags: MW
LayerCount: 2
Fore
SplineSet
21 499.8359375 m 1
 70.15234375 665.711914062 l 1
 70.15234375 665.711914062 190.25 700 258.096679688 700 c 0
 325.942382812 700 397.618164062 682.856445312 411.296875 674.831054688 c 0
 430.462890625 665.352539062 453.013671875 641.780273438 461.634765625 622.213867188 c 0
 474.21875 591.30078125 501.66796875 494.546875 501.66796875 494.546875 c 1
 216.513671875 228.81640625 l 1
 216.513671875 228.81640625 223.352539062 210.578125 256.545898438 199.087890625 c 0
 289.739257812 187.59765625 452.059570312 199.087890625 506.95703125 212.766601562 c 0
 561.853515625 226.4453125 607.266601562 242.495117188 607.266601562 242.495117188 c 1
 552.551757812 64.125 l 1
 65.5927734375 -4.4501953125 l 1
 65.5927734375 201.368164062 l 1
 351.475585938 503.30078125 l 1
 351.475585938 503.30078125 319.467773438 535.309570312 230.283203125 530.658203125 c 0
 141.098632812 526.0078125 21 499.8359375 21 499.8359375 c 1
EndSplineSet
Validated: 33
Substitution2: "'frac' Diagonal Fractions lookup 1 subtable" uni00B2
EndChar

StartChar: three
Encoding: 51 51 56
Width: 552
VWidth: 0
Flags: MW
LayerCount: 2
Fore
SplineSet
80.73046875 677.749023438 m 1
 80.73046875 677.749023438 222.258789062 701.094726562 283.265625 700 c 0
 344.271484375 698.905273438 443.03125 702.188476562 478.048828125 675.469726562 c 0
 511.516601562 650.02734375 518.90234375 612.45703125 499.296875 502.844726562 c 0
 497.014648438 493.271484375 487.250976562 484.40625 477.501953125 483.056640625 c 2
 330.137695312 456.155273438 l 2
 326.3515625 455.840820312 323.279296875 452.501953125 323.279296875 448.703125 c 0
 323.279296875 446.157226562 325.125976562 443.163085938 327.401367188 442.020507812 c 0
 374.365234375 414.663085938 513.157226562 328.123046875 524.739257812 233.010742188 c 0
 539.055664062 116.377929688 498.840820312 78.533203125 444.30859375 39.6865234375 c 0
 389.776367188 0.8388671875 253.4453125 -15.9404296875 127.510742188 8.58984375 c 1
 23.5537109375 224.166015625 l 1
 23.5537109375 224.166015625 130.428710938 175.287109375 249.524414062 184.1328125 c 0
 368.620117188 192.978515625 327.401367188 284.442382812 317.005859375 319.733398438 c 0
 308.981445312 347.090820312 197.91015625 370.25390625 150.764648438 382.017578125 c 0
 145.208984375 382.711914062 140.701171875 387.819335938 140.701171875 393.41796875 c 0
 140.701171875 396.349609375 142.512695312 400.270507812 144.74609375 402.169921875 c 0
 170.09765625 423.874023438 224.08203125 468.739257812 241.681640625 479.865234375 c 0
 259.282226562 490.990234375 343.998046875 533.211914062 379.2890625 552.817382812 c 0
 381.938476562 554.243164062 384.087890625 557.840820312 384.087890625 560.848632812 c 0
 384.087890625 565.8828125 380.002929688 569.967773438 374.96875 569.967773438 c 0
 374.877929688 569.967773438 374.729492188 569.96484375 374.638671875 569.961914062 c 0
 345.275390625 572.879882812 275.60546875 568.229492188 202.743164062 539.50390625 c 0
 153.5703125 519.53515625 72.1494140625 491.8359375 21 477.676757812 c 1
 80.73046875 677.749023438 l 1
EndSplineSet
Validated: 33
Substitution2: "'frac' Diagonal Fractions lookup 1 subtable" uni00B3
EndChar

StartChar: four
Encoding: 52 52 57
Width: 619
VWidth: 0
Flags: MW
LayerCount: 2
Fore
SplineSet
22.0068359375 662.095703125 m 1
 266.015625 700 l 1
 266.015625 700 239.774414062 548.9296875 210.708007812 476.127929688 c 0
 188.111328125 420.456054688 137.6328125 257.540039062 164.239257812 239.225585938 c 0
 190.844726562 220.911132812 280.594726562 252.073242188 300.913085938 258.815429688 c 0
 310.025390625 261.822265625 311.665039062 291.526367188 313.123046875 302.82421875 c 0
 324.1484375 390.295898438 344.922851562 647.790039062 344.922851562 647.790039062 c 1
 461.186523438 648.610351562 528.430664062 620.456054688 528.430664062 620.456054688 c 1
 472.211914062 248.610351562 l 1
 594.581054688 258.360351562 l 1
 594.581054688 180.090820312 l 1
 455.08203125 148.291992188 l 1
 455.08203125 -10.7060546875 l 1
 200.594726562 -10.7060546875 l 1
 239.774414062 161.685546875 l 1
 172.530273438 150.66015625 77.861328125 139.7265625 49.341796875 175.170898438 c 0
 20.822265625 210.615234375 22.0068359375 292.619140625 22.0068359375 292.619140625 c 1
 22.0068359375 662.095703125 l 1
EndSplineSet
Validated: 33
Substitution2: "'frac' Diagonal Fractions lookup 1 subtable" uni2074
EndChar

StartChar: five
Encoding: 53 53 58
Width: 647
VWidth: 0
Flags: MW
LayerCount: 2
Fore
SplineSet
68.9453125 277.625976562 m 1
 68.9453125 700 l 1
 68.9453125 700 268.762695312 697.716796875 360.086914062 693.150390625 c 0
 451.411132812 688.584960938 473.146484375 685.114257812 473.146484375 685.114257812 c 1
 454.790039062 462.556640625 l 1
 454.790039062 462.556640625 300.725585938 542.465820312 215.063476562 560.73046875 c 0
 129.401367188 578.995117188 153.419921875 583.561523438 155.703125 410.045898438 c 1
 155.703125 410.045898438 454.790039062 412.329101562 557.529296875 334.703125 c 0
 660.26953125 257.077148438 621.45703125 157.716796875 582.643554688 97.2607421875 c 0
 543.831054688 36.8037109375 350.954101562 -5.4794921875 123.739257812 -7.7626953125 c 1
 21 165.75390625 l 1
 21 165.75390625 177.438476562 117.80859375 249.310546875 117.80859375 c 0
 321.182617188 117.80859375 341.822265625 130.319335938 357.803710938 147.48828125 c 0
 373.78515625 164.657226562 381.822265625 223.926757812 352.141601562 252.51171875 c 0
 322.4609375 281.095703125 68.9453125 277.625976562 68.9453125 277.625976562 c 1
EndSplineSet
Validated: 33
Substitution2: "'frac' Diagonal Fractions lookup 1 subtable" uni2075
EndChar

StartChar: six
Encoding: 54 54 59
Width: 619
VWidth: 0
Flags: MW
LayerCount: 2
Fore
SplineSet
575.78125 420.182617188 m 0
 602.5390625 386.119140625 605.279296875 272.694335938 557.69921875 135.890625 c 0
 517.516601562 19.908203125 451.854492188 -10.7763671875 292.858398438 -0.5478515625 c 0
 133.86328125 9.6806640625 84.73046875 54.0634765625 37.1513671875 222.374023438 c 0
 -10.4287109375 390.684570312 66.5576171875 574.063476562 96.6943359375 611.32421875 c 0
 113.747070312 631.984375 144.390625 662.545898438 165.096679688 679.54296875 c 2
 358.520507812 700 l 1
 358.520507812 700 206.740234375 555.525390625 251.397460938 452.237304688 c 1
 251.397460938 452.237304688 330.666992188 495.708007812 412.127929688 484.109375 c 0
 493.58984375 472.51171875 549.0234375 454.337890625 575.78125 420.182617188 c 0
382.356445312 331.506835938 m 2
 384.9140625 350.8671875 364.822265625 367.580078125 339.434570312 366.940429688 c 2
 210.576171875 366.940429688 l 2
 178.794921875 364.657226562 154.137695312 344.56640625 153.223632812 320.182617188 c 2
 145.1875 163.37890625 l 2
 144.73046875 134.4296875 170.301757812 109.041015625 206.831054688 101.826171875 c 2
 290.119140625 90.4111328125 l 2
 323.26953125 86.9404296875 354.045898438 104.474609375 358.977539062 129.771484375 c 2
 382.356445312 331.506835938 l 2
EndSplineSet
Validated: 33
Substitution2: "'frac' Diagonal Fractions lookup 1 subtable" uni2076
EndChar

StartChar: seven
Encoding: 55 55 60
Width: 551
VWidth: 0
Flags: MW
LayerCount: 2
Fore
SplineSet
21 455.328125 m 1
 21 688.56640625 l 1
 21 688.56640625 171.918945312 700 276.0078125 700 c 0
 380.096679688 700 527.540039062 672.560546875 527.540039062 672.560546875 c 1
 270.245117188 -4.2900390625 l 1
 270.245117188 -4.2900390625 183.993164062 -8.22265625 152.528320312 -3.1923828125 c 0
 117.130859375 2.478515625 55.3916015625 16.1982421875 55.3916015625 16.1982421875 c 1
 55.3916015625 16.1982421875 329.790039062 415.173828125 389.243164062 578.715820312 c 1
 389.243164062 578.715820312 325.216796875 593.533203125 183.444335938 521.549804688 c 0
 41.6708984375 449.565429688 21 455.328125 21 455.328125 c 1
EndSplineSet
Validated: 33
Substitution2: "'frac' Diagonal Fractions lookup 1 subtable" uni2077
EndChar

StartChar: eight
Encoding: 56 56 61
Width: 620
VWidth: 0
Flags: MW
LayerCount: 2
Fore
SplineSet
548.649414062 340.080078125 m 0
 598.498046875 318.403320312 616.608398438 254.376953125 568.588867188 160.806640625 c 0
 520.569335938 67.236328125 433.493164062 -11.1494140625 312.940429688 -5.9365234375 c 0
 192.387695312 -0.72265625 167.966796875 18.9423828125 144.368164062 32.296875 c 0
 120.770507812 45.650390625 33.6025390625 130.713867188 48.419921875 234.985351562 c 0
 52.5361328125 261.419921875 131.928710938 311.817382812 155.252929688 326.177734375 c 0
 156.2578125 326.780273438 157.072265625 328.220703125 157.072265625 329.392578125 c 0
 157.072265625 330.87890625 155.9296875 332.470703125 154.521484375 332.946289062 c 0
 130.740234375 341.543945312 55.3720703125 368.892578125 31.9560546875 404.380859375 c 0
 3.8759765625 446.913085938 28.48046875 584.112304688 120.770507812 649.236328125 c 0
 213.059570312 714.360351562 369.649414062 720.03125 467.426757812 647.315429688 c 0
 552.399414062 584.112304688 548.923828125 518.805664062 545.356445312 496.212890625 c 0
 541.7890625 473.62109375 524.227539062 436.486328125 468.616210938 389.47265625 c 0
 467.411132812 388.487304688 466.434570312 386.42578125 466.434570312 384.870117188 c 0
 466.434570312 383.078125 467.657226562 380.836914062 469.165039062 379.868164062 c 0
 490.389648438 367.462890625 525.998046875 349.637695312 548.649414062 340.080078125 c 0
358.307617188 259.315429688 m 2
 358.387695312 259.938476562 358.453125 260.954101562 358.453125 261.583007812 c 0
 358.453125 270.534179688 351.216796875 278.452148438 342.30078125 279.255859375 c 2
 194.217773438 288.40234375 l 2
 193.948242188 288.41796875 193.51171875 288.4296875 193.243164062 288.4296875 c 0
 185.076171875 288.4296875 177.563476562 281.861328125 176.47265625 273.767578125 c 2
 160.008789062 162.270507812 l 2
 159.969726562 161.643554688 159.938476562 160.625976562 159.938476562 159.999023438 c 0
 159.938476562 142.423828125 174.06640625 126.189453125 191.473632812 123.762695312 c 2
 312.026367188 113.426757812 l 2
 313.000976562 113.317382812 314.588867188 113.228515625 315.5703125 113.228515625 c 0
 330.109375 113.228515625 344.051757812 124.83203125 346.69140625 139.12890625 c 2
 358.307617188 259.315429688 l 2
398.1875 409.594726562 m 1
 398.1875 409.502929688 l 2
 410.206054688 409.701171875 420 419.6171875 420.047851562 431.637695312 c 2
 412.364257812 591.978515625 l 2
 411.904296875 599.162109375 405.688476562 604.993164062 398.490234375 604.993164062 c 0
 398.254882812 604.993164062 397.873046875 604.981445312 397.638671875 604.966796875 c 2
 287.87890625 596.91796875 l 2
 270.129882812 595.498046875 255.725585938 579.89453125 255.725585938 562.088867188 c 0
 255.725585938 561.223632812 255.788085938 559.821289062 255.865234375 558.958984375 c 2
 274.708007812 419.747070312 l 2
 276.08203125 411.264648438 284.171875 404.379882812 292.765625 404.379882812 c 0
 292.830078125 404.379882812 292.935546875 404.380859375 293.000976562 404.380859375 c 2
 398.1875 409.594726562 l 1
EndSplineSet
Validated: 33
Substitution2: "'frac' Diagonal Fractions lookup 1 subtable" uni2078
EndChar

StartChar: nine
Encoding: 57 57 62
Width: 589
VWidth: 0
Flags: MW
LayerCount: 2
Fore
SplineSet
473.756835938 656.828125 m 0
 499.3671875 638.3515625 568.606445312 541.580078125 563.484375 348.220703125 c 0
 558.362304688 150.928710938 505.76953125 95.7744140625 469.18359375 65.31640625 c 0
 426.130859375 32.2744140625 347.16796875 4 292.927734375 2.2041015625 c 1
 227.62109375 84.5234375 l 1
 227.62109375 84.5234375 282.04296875 125.866210938 314.696289062 156.325195312 c 0
 334.734375 176.389648438 363.869140625 211.752929688 379.729492188 235.259765625 c 0
 380.35546875 236.184570312 380.864257812 237.83984375 380.864257812 238.956054688 c 0
 380.864257812 242.591796875 377.9140625 245.541992188 374.278320312 245.541992188 c 0
 373.162109375 245.541992188 371.506835938 245.033203125 370.583007812 244.407226562 c 0
 342.685546875 229.314453125 273.811523438 190.166992188 212.620117188 190.899414062 c 0
 121.154296875 191.997070312 48.255859375 235.259765625 31.974609375 251.815429688 c 0
 15.693359375 268.37109375 10.296875 523.104492188 88.591796875 637.25390625 c 0
 166.887695312 751.404296875 442.749023438 679.237304688 473.756835938 656.828125 c 0
403.418945312 420.387695312 m 2
 423.450195312 440.327148438 436.987304688 495.84765625 420.431640625 518.805664062 c 2
 341.770507812 625.637695312 l 2
 336.528320312 631.728515625 325.750976562 636.671875 317.71484375 636.671875 c 0
 309.678710938 636.671875 298.90234375 631.728515625 293.659179688 625.637695312 c 2
 206.94921875 531.427734375 l 2
 199.684570312 522.239257812 193.784179688 505.274414062 193.778320312 493.560546875 c 2
 193.778320312 493.560546875 183.625976562 339.897460938 195.2421875 290.505859375 c 0
 196.642578125 284.427734375 200.53515625 275.249023438 203.931640625 270.017578125 c 0
 207.772460938 264.895507812 233.3828125 267.181640625 238.047851562 271.6640625 c 2
 403.418945312 420.387695312 l 2
EndSplineSet
Validated: 33
Substitution2: "'frac' Diagonal Fractions lookup 1 subtable" uni2079
EndChar

StartChar: exclam
Encoding: 33 33 63
Width: 384
VWidth: 0
Flags: MW
LayerCount: 2
Fore
SplineSet
236.774414062 -24.365234375 m 1
 210.362304688 103.30859375 l 1
 346.80859375 118.75390625 l 1
 362.25390625 6.43359375 l 1
 236.774414062 -24.365234375 l 1
222.060546875 179.071289062 m 1
 21 663.443359375 l 1
 185.50390625 700 l 1
 286.034179688 197.349609375 l 1
 222.060546875 179.071289062 l 1
EndSplineSet
Validated: 1
EndChar

StartChar: ampersand
Encoding: 38 38 64
Width: 405
VWidth: 0
Flags: MW
LayerCount: 2
Fore
SplineSet
219.841796875 241.060546875 m 0
 224.815429688 240.81640625 232.89453125 240.618164062 237.874023438 240.618164062 c 0
 279.098632812 240.618164062 343.369140625 253.653320312 381.3359375 269.71484375 c 2
 306.72265625 115.544921875 l 2
 291.333007812 112.594726562 266.149414062 109.395507812 250.510742188 108.404296875 c 2
 269.918945312 16.8544921875 l 1
 169.21484375 11.544921875 l 1
 173.791992188 109.77734375 l 1
 133.693359375 114.171875 100.002929688 123.967773438 80.685546875 137.791992188 c 0
 41.4111328125 165.623046875 12.84765625 192.629882812 23.1005859375 276.032226562 c 0
 31.431640625 343.961914062 130.85546875 406.033203125 164.087890625 425.350585938 c 0
 165.615234375 426.203125 166.85546875 428.31640625 166.85546875 430.06640625 c 0
 166.85546875 432.677734375 164.75390625 435.077148438 162.165039062 435.420898438 c 2
 56.8828125 454.646484375 l 2
 49.833984375 455.54296875 42.861328125 461.900390625 41.3193359375 468.8359375 c 0
 27.3125 547.203125 32.6220703125 573.935546875 56.5166015625 592.24609375 c 0
 77.5732421875 608.450195312 130.85546875 609.182617188 173.333984375 609.548828125 c 1
 169.21484375 700 l 1
 270.28515625 694.690429688 l 1
 251.426757812 606.161132812 l 1
 294.729492188 601.400390625 340.504882812 593.893554688 340.504882812 593.893554688 c 1
 383.166992188 450.618164062 l 2
 346.600585938 460.8203125 288.400390625 480.75390625 253.256835938 495.111328125 c 0
 223.455078125 507.2421875 173.153320312 517.087890625 140.9765625 517.087890625 c 0
 138.055664062 517.087890625 133.31640625 517.00390625 130.397460938 516.900390625 c 0
 126.954101562 516.760742188 124.16015625 513.8515625 124.16015625 510.405273438 c 0
 124.16015625 508.42578125 125.518554688 505.962890625 127.193359375 504.907226562 c 0
 152.369140625 490.625 213.06640625 460.4140625 225.609375 452.44921875 c 0
 238.151367188 444.484375 276.602539062 412.349609375 294.912109375 396.877929688 c 0
 296.470703125 395.518554688 297.736328125 392.737304688 297.736328125 390.668945312 c 0
 297.736328125 386.698242188 294.54296875 383.041015625 290.609375 382.504882812 c 0
 256.736328125 374.08203125 177.362304688 357.603515625 171.594726562 338.01171875 c 0
 164.1796875 312.560546875 134.42578125 247.376953125 219.841796875 241.060546875 c 0
EndSplineSet
Validated: 33
EndChar

StartChar: question
Encoding: 63 63 65
Width: 471
VWidth: 0
Flags: MW
LayerCount: 2
Fore
SplineSet
327.322265625 691.421875 m 0
 418.541992188 680.077148438 460.692382812 567.3671875 446.765625 455.764648438 c 0
 432.837890625 344.161132812 356.836914062 332.81640625 312.47265625 283.379882812 c 0
 268.108398438 233.942382812 274.47265625 204.795898438 274.47265625 204.795898438 c 1
 208.340820312 206.087890625 l 1
 210.831054688 250.452148438 l 2
 212.830078125 289.032226562 243.490234375 332.170898438 279.268554688 346.744140625 c 0
 316.9921875 361.962890625 354.162109375 394.982421875 358.036132812 445.619140625 c 0
 361.91015625 496.254882812 334.516601562 527.522460938 314.225585938 538.959960938 c 0
 295.13671875 549.204101562 262.080078125 558.294921875 240.438476562 559.250976562 c 0
 230.108398438 560.265625 186.020507812 555.838867188 166.651367188 538.959960938 c 0
 126.344726562 503.911132812 159.91796875 443.681640625 159.91796875 443.681640625 c 1
 36.9697265625 434.458984375 l 1
 36.9697265625 434.458984375 10.4990234375 467.109375 25.7177734375 595.129882812 c 0
 40.9365234375 723.150390625 236.103515625 702.859375 327.322265625 691.421875 c 0
167.666015625 143.552734375 m 1
 305.37109375 159.140625 l 1
 320.958007812 45.78515625 l 1
 194.321289062 14.7021484375 l 1
 167.666015625 143.552734375 l 1
EndSplineSet
Validated: 33
EndChar

StartChar: period
Encoding: 46 46 66
Width: 197
VWidth: 0
Flags: MW
LayerCount: 2
Fore
SplineSet
48.189453125 -24.5126953125 m 1
 22 102.083984375 l 1
 157.387695312 117.30859375 l 1
 172.611328125 6.0263671875 l 1
 48.189453125 -24.5126953125 l 1
EndSplineSet
Validated: 1
EndChar

StartChar: hyphen
Encoding: 45 45 67
Width: 243
VWidth: 0
Flags: MW
LayerCount: 2
Fore
SplineSet
25 304.330078125 m 1
 195.473632812 348.821289062 l 1
 217.672851562 207.948242188 l 1
 25 207.948242188 l 1
 25 304.330078125 l 1
EndSplineSet
Validated: 1
EndChar

StartChar: colon
Encoding: 58 58 68
Width: 189
VWidth: 0
Flags: MW
LayerCount: 2
Fore
SplineSet
41.2080078125 428.137695312 m 1
 21 509.696289062 l 2
 23.7734375 517.749023438 28.970703125 530.537109375 32.599609375 538.2421875 c 0
 39.7587890625 552.559570312 48.1865234375 572.133789062 48.1865234375 572.133789062 c 1
 143.06640625 568.237304688 l 1
 143.06640625 568.237304688 138.806640625 560.08203125 138.806640625 525.5546875 c 0
 138.806640625 491.028320312 160.012695312 442.18359375 160.012695312 442.18359375 c 1
 41.2080078125 428.137695312 l 1
46.6455078125 230.494140625 m 1
 145.512695312 210.647460938 l 2
 144.278320312 202.90625 143.276367188 190.259765625 143.276367188 182.419921875 c 0
 143.276367188 174.580078125 144.278320312 161.93359375 145.512695312 154.19140625 c 0
 148.16796875 134.766601562 156.733398438 104.440429688 164.633789062 86.4970703125 c 2
 37.7646484375 67.376953125 l 1
 37.7646484375 67.376953125 46.283203125 123.017578125 48.1865234375 147.213867188 c 0
 50.0888671875 171.409179688 46.6455078125 230.494140625 46.6455078125 230.494140625 c 1
EndSplineSet
Validated: 33
EndChar

StartChar: semicolon
Encoding: 59 59 69
Width: 184
VWidth: 0
Flags: MW
LayerCount: 2
Fore
SplineSet
41.373046875 434.423828125 m 1
 21 516.188476562 l 2
 23.828125 524.23046875 29.1083984375 537 32.78515625 544.692382812 c 0
 40.001953125 559.4921875 48.4072265625 579.225585938 48.4072265625 579.225585938 c 1
 144.05859375 575.296875 l 1
 144.05859375 575.296875 139.764648438 567.075195312 139.764648438 532.267578125 c 0
 139.764648438 497.459960938 161.142578125 448.583984375 161.142578125 448.583984375 c 1
 41.373046875 434.423828125 l 1
55.2587890625 194.975585938 m 1
 55.2587890625 194.975585938 60.740234375 230.1484375 75.083984375 239.009765625 c 0
 89.4267578125 247.87109375 104.774414062 243.943359375 118.5703125 242.846679688 c 0
 136.110351562 241.4765625 152.646484375 210.962890625 152.646484375 184.012695312 c 0
 152.668945312 182.672851562 152.686523438 180.499023438 152.686523438 179.159179688 c 0
 152.686523438 145.540039062 141.700195312 93.2802734375 128.162109375 62.5068359375 c 0
 127.633789062 61.4453125 126.241210938 60.5830078125 125.0546875 60.5830078125 c 0
 123.138671875 60.5830078125 121.583007812 62.138671875 121.583007812 64.0546875 c 0
 121.583007812 64.0810546875 121.583984375 64.125 121.584960938 64.1513671875 c 0
 122.315429688 84.4326171875 121.584960938 90.0966796875 103.313476562 108.002929688 c 0
 91.25390625 120.0625 53.2490234375 120.0625 52.1533203125 135.41015625 c 0
 51.056640625 150.7578125 55.2587890625 194.975585938 55.2587890625 194.975585938 c 1
EndSplineSet
Validated: 33
EndChar

StartChar: slash
Encoding: 47 47 70
Width: 447
VWidth: 0
Flags: MW
LayerCount: 2
Fore
SplineSet
291.049804688 700 m 1
 423.537109375 648.708984375 l 1
 423.537109375 648.708984375 327.1171875 444.177734375 268.123046875 305.165039062 c 0
 209.12890625 166.153320312 163.002929688 -3.7607421875 171.33984375 -16.5380859375 c 2
 21 32.759765625 l 1
 21 32.759765625 118.780273438 198.142578125 176.415039062 344.67578125 c 0
 213.697265625 440.924804688 265.053710938 600.110351562 291.049804688 700 c 1
EndSplineSet
Validated: 33
Substitution2: "'frac' Diagonal Fractions lookup 1 subtable" fraction
EndChar

StartChar: comma
Encoding: 44 44 71
Width: 147
VWidth: 0
Flags: MW
LayerCount: 2
Fore
SplineSet
25.802734375 67.2861328125 m 2
 25.802734375 67.2861328125 30.8779296875 101.903320312 45.4677734375 110.96484375 c 0
 60.0576171875 120.02734375 74.9189453125 115.858398438 88.6025390625 114.771484375 c 0
 106.001953125 113.412109375 122.404296875 83.14453125 122.404296875 56.4111328125 c 0
 122.426757812 55.0830078125 122.444335938 52.92578125 122.444335938 51.59765625 c 0
 122.444335938 18.2490234375 111.546875 -33.5888671875 98.1181640625 -64.1142578125 c 0
 97.59375 -65.16796875 96.212890625 -66.0224609375 95.0361328125 -66.0224609375 c 0
 93.134765625 -66.0224609375 91.591796875 -64.4794921875 91.591796875 -62.5791015625 c 0
 91.591796875 -62.552734375 91.5927734375 -62.509765625 91.59375 -62.4833984375 c 0
 92.318359375 -42.365234375 90.5966796875 -8.7451171875 72.8349609375 9.0166015625 c 0
 60.873046875 20.978515625 23.1748046875 20.978515625 22.0869140625 36.203125 c 0
 22.0390625 37.3388671875 22 39.1845703125 22 40.3212890625 c 0
 22 47.912109375 23.7041015625 59.9921875 25.802734375 67.2861328125 c 2
EndSplineSet
Validated: 33
EndChar

StartChar: underscore
Encoding: 95 95 72
Width: 523
VWidth: 0
Flags: MW
LayerCount: 2
Fore
SplineSet
478.788085938 91.1015625 m 1
 498.88671875 -21.724609375 l 1
 498.88671875 -21.724609375 353.993164062 -1.80859375 257.793945312 6.8701171875 c 0
 161.594726562 15.548828125 53.4267578125 6.322265625 49.4072265625 -3.453125 c 2
 22 122.711914062 l 1
 22 122.711914062 146.337890625 91.650390625 246.100585938 86.1689453125 c 0
 269.017578125 84.9560546875 306.2421875 83.97265625 329.19140625 83.97265625 c 0
 370.573242188 83.97265625 437.592773438 87.166015625 478.788085938 91.1015625 c 1
EndSplineSet
Validated: 33
EndChar

StartChar: quotesingle
Encoding: 39 39 73
Width: 157
VWidth: 0
Flags: MW
LayerCount: 2
Fore
SplineSet
23 495.499023438 m 1
 32.5927734375 694.650390625 l 1
 133.598632812 700 l 1
 88.4921875 481.938476562 l 1
 23 495.499023438 l 1
EndSplineSet
Validated: 1
EndChar

StartChar: exclamdown
Encoding: 161 161 74
Width: 384
VWidth: 0
Flags: MW
LayerCount: 2
Fore
SplineSet
161.193359375 496.563476562 m 1
 362.25390625 12.19140625 l 1
 197.75 -24.365234375 l 1
 97.2197265625 478.28515625 l 1
 161.193359375 496.563476562 l 1
146.479492188 700 m 1
 172.891601562 572.326171875 l 1
 36.4453125 556.880859375 l 1
 21 669.201171875 l 1
 146.479492188 700 l 1
EndSplineSet
Validated: 1
EndChar

StartChar: cent
Encoding: 162 162 75
Width: 482
VWidth: 0
Flags: MW
LayerCount: 2
Fore
SplineSet
183.135742188 89.6201171875 m 1
 183.595703125 89.6201171875 l 1
 186.171875 85.38671875 198.594726562 84.375 214.0546875 85.203125 c 1
 221.048828125 141.520507812 227.765625 203.7265625 231.907226562 261.1484375 c 0
 236.047851562 318.5703125 238.9921875 375.071289062 241.109375 427.33984375 c 1
 210.557617188 424.670898438 182.491210938 364.581054688 176.049804688 298.508789062 c 0
 169.608398438 232.4375 175.313476562 102.411132812 183.135742188 89.6201171875 c 1
459.200195312 254.430664062 m 1
 325.584960938 292.98828125 l 1
 332.501953125 309.961914062 338.232421875 338.614257812 338.375976562 356.943359375 c 0
 338.099609375 365.77734375 327.701171875 379.028320312 313.438476562 391.727539062 c 1
 307.548828125 334.397460938 301.84375 275.135742188 297.2421875 223.419921875 c 0
 293.745117188 183.7578125 290.985351562 141.888671875 288.959960938 100.938476562 c 1
 292.8515625 102.227539062 298.458007812 105.525390625 301.475585938 108.30078125 c 0
 314.266601562 123.0234375 317.119140625 163.513671875 317.119140625 163.513671875 c 1
 449.262695312 163.513671875 l 1
 457.8203125 45.0810546875 l 1
 457.8203125 45.0810546875 365.798828125 31.3701171875 285.83203125 21.33984375 c 1
 282.794921875 -76.294921875 283.899414062 -154.881835938 288.408203125 -163.532226562 c 1
 184.423828125 -118.993164062 l 1
 184.423828125 -118.993164062 193.90234375 -63.7802734375 204.30078125 12.8740234375 c 1
 192.797851562 11.4931640625 183.50390625 11.4931640625 177.4296875 11.4931640625 c 0
 131.418945312 12.1376953125 62.6787109375 17.1064453125 47.126953125 32.7509765625 c 0
 31.5751953125 48.39453125 15.1953125 110.876953125 23.017578125 227.375976562 c 0
 30.83984375 343.875976562 52.740234375 424.39453125 85.408203125 451.541015625 c 0
 108.137695312 470.866210938 146.418945312 481.540039062 178.442382812 487.614257812 c 0
 191.530273438 490.020507812 212.952148438 491.973632812 226.258789062 491.973632812 c 0
 231.125 491.973632812 239.014648438 491.7109375 243.870117188 491.38671875 c 1
 247.090820312 606.690429688 247.090820312 688.588867188 247.090820312 688.588867188 c 1
 340.032226562 640.553710938 l 1
 340.032226562 640.553710938 331.750976562 570.249023438 322.547851562 479.147460938 c 1
 343.069335938 474.73046875 365.706054688 469.9453125 389.540039062 464.700195312 c 0
 474.844726562 445.559570312 459.200195312 254.430664062 459.200195312 254.430664062 c 1
EndSplineSet
Validated: 33
EndChar

StartChar: sterling
Encoding: 163 163 76
Width: 513
VWidth: 0
Flags: MW
LayerCount: 2
Fore
SplineSet
159.80859375 145.040039062 m 1
 490.294921875 190.006835938 l 1
 490.294921875 -6.7587890625 l 1
 63.787109375 -6.7587890625 l 1
 27.4501953125 118.604492188 l 1
 59.2451171875 121.693359375 l 1
 52.068359375 283.302734375 l 1
 22.3623046875 282.7578125 l 1
 21 349.799804688 l 1
 48.9794921875 353.978515625 l 1
 48.2529296875 370.512695312 l 1
 43.529296875 514.134765625 l 1
 42.984375 596.438476562 l 2
 42.7802734375 598.294921875 42.6142578125 601.317382812 42.6142578125 603.184570312 c 0
 42.6142578125 626.610351562 60.361328125 652.443359375 82.228515625 660.846679688 c 0
 190.240234375 708.266601562 400.451171875 699.909179688 447.326171875 698.546875 c 0
 494.201171875 697.18359375 480.84765625 467.71484375 480.84765625 467.71484375 c 1
 314.33203125 467.71484375 l 1
 314.33203125 581.086914062 l 2
 313.514648438 594.89453125 295.436523438 616.243164062 236.025390625 616.061523438 c 0
 176.614257812 615.87890625 180.06640625 568.458984375 180.06640625 568.458984375 c 1
 170.254882812 372.056640625 l 1
 259.64453125 385.41015625 l 1
 292.893554688 288.118164062 l 1
 166.348632812 285.57421875 l 1
 159.80859375 145.040039062 l 1
EndSplineSet
Validated: 33
EndChar

StartChar: yen
Encoding: 165 165 78
Width: 505
VWidth: 0
Flags: MW
LayerCount: 2
Fore
SplineSet
478.904296875 577.47265625 m 2
 485.55859375 519.400390625 479.90625 341.352539062 472.522460938 269.240234375 c 0
 465.137695312 197.127929688 454.5625 192.84375 434.505859375 178.07421875 c 0
 414.44921875 163.305664062 333.129882812 163.305664062 333.129882812 163.305664062 c 1
 334.131835938 152.091796875 l 1
 396.763671875 155.739257812 l 1
 434.049804688 93.380859375 l 1
 339.237304688 94.2021484375 l 1
 340.87890625 75.96875 l 1
 401.686523438 79.5244140625 l 1
 438.97265625 17.1669921875 l 1
 345.983398438 17.9873046875 l 1
 347.989257812 -5.4423828125 l 1
 164.74609375 -5.4423828125 l 1
 164.74609375 19.6279296875 l 1
 111.778320312 20.083984375 l 1
 111.778320312 62.4755859375 l 1
 164.654296875 65.3935546875 l 1
 164.654296875 95.8427734375 l 1
 106.85546875 96.3896484375 l 1
 106.85546875 138.873046875 l 1
 164.290039062 142.24609375 l 1
 164.290039062 163.396484375 l 1
 147.69140625 165.640625 121.184570312 171.317382812 105.123046875 176.069335938 c 0
 88.287109375 179.900390625 67.45703125 195.052734375 58.62890625 209.891601562 c 0
 46.958984375 226.848632812 31.1875 320.202148438 22.708984375 429.6015625 c 0
 21.765625 445.862304688 21 472.278320312 21 488.565429688 c 0
 21 534.109375 26.953125 607.553710938 34.287109375 652.502929688 c 1
 196.654296875 654.416992188 l 1
 190.159179688 644.170898438 181.990234375 626.4453125 178.420898438 614.850585938 c 0
 168.213867188 572.31640625 155.9609375 502.516601562 151.071289062 459.047851562 c 0
 144.32421875 395.9609375 136.301757812 256.294921875 146.876953125 237.241210938 c 0
 157.452148438 218.1875 197.565429688 206.609375 231.387695312 201.322265625 c 0
 236.796875 200.750976562 245.6015625 200.288085938 251.040039062 200.288085938 c 0
 265.734375 200.288085938 289.114257812 203.610351562 303.2265625 207.703125 c 1
 303.2265625 207.703125 339.602539062 210.62109375 345.892578125 277.537109375 c 0
 352.182617188 344.452148438 323.6484375 505.725585938 313.4375 558.510742188 c 0
 303.2265625 611.295898438 282.532226562 700 282.532226562 700 c 1
 466.231445312 693.618164062 l 1
 478.904296875 577.47265625 l 2
EndSplineSet
Validated: 33
EndChar

StartChar: brokenbar
Encoding: 166 166 79
Width: 237
VWidth: 0
Flags: MW
LayerCount: 2
Fore
SplineSet
55.4816094723 405.42592969 m 1
 40.7722567318 541.485161201 21 691.477539062 21 691.477539062 c 1
 161.396484375 700 l 1
 158.75390625 651.612304688 156.608398438 573.010742188 156.608398438 524.55078125 c 0
 156.608398438 492.895422889 157.523434485 449.624549326 158.938935579 408.468792223 c 1
 55.4816094723 405.42592969 l 1
169.353359551 255.696113296 m 1
 184.897225697 121.168276108 215.04296875 -10.5048828125 215.04296875 -10.5048828125 c 1
 58.4091796875 -11.7607421875 l 1
 68.1719202693 -3.72540663411 75.1684477703 120.553840116 69.1362830717 247.344690256 c 1
 169.353359551 255.696113296 l 1
EndSplineSet
Validated: 33
EndChar

StartChar: section
Encoding: 167 167 80
Width: 473
VWidth: 0
Flags: MW
LayerCount: 2
Fore
SplineSet
150.78125 338.575195312 m 1
 150.78125 338.666015625 l 1
 183.215820312 317.893554688 230.318359375 306.504882812 267.399414062 292.565429688 c 0
 289.447265625 284.45703125 311.586914062 275.892578125 332.541992188 266.782226562 c 1
 339.375 278.352539062 336.368164062 298.123046875 319.512695312 329.919921875 c 0
 303.66015625 359.802734375 249.086914062 371.19140625 217.016601562 383.217773438 c 0
 191.506835938 393.240234375 165.358398438 401.622070312 139.939453125 411.4609375 c 1
 132.740234375 404.006835938 126.8984375 389.546875 126.8984375 379.18359375 c 0
 126.8984375 364.098632812 137.59765625 345.90625 150.78125 338.575195312 c 1
448.521484375 147.249023438 m 0
 468.474609375 48.669921875 382.012695312 4.208984375 281.9765625 0.2001953125 c 0
 196.426757812 -3.26171875 110.602539062 -4.1728515625 24.9609375 -5.1748046875 c 1
 33.9814453125 155.083984375 l 1
 79.072265625 134.34765625 155.9296875 116.265625 205.537109375 114.72265625 c 0
 249.541992188 113.994140625 352.767578125 122.28515625 319.421875 185.149414062 c 0
 303.569335938 215.033203125 248.99609375 226.420898438 216.92578125 238.447265625 c 0
 188.044921875 249.2890625 158.434570312 259.038085938 130.008789062 270.517578125 c 0
 38.171875 307.689453125 -6.5615234375 414.55859375 41.6337890625 494.096679688 c 1
 12.296875 547.94140625 13.7548828125 614.905273438 60.857421875 664.286132812 c 0
 98.94140625 704.19140625 177.749023438 700.911132812 232.231445312 698.998046875 c 0
 287.870117188 696.540039062 377.379882812 685.845703125 432.03125 675.127929688 c 1
 428.38671875 517.966796875 l 1
 358.142578125 546.84765625 255.282226562 598.141601562 173.922851562 577.00390625 c 0
 125.088867188 564.340820312 109.145507812 510.49609375 151.0546875 483.709960938 c 0
 183.489257812 463.2109375 231.138671875 451.731445312 267.58203125 438.15625 c 0
 349.305664062 407.817382812 439.775390625 377.38671875 448.88671875 292.383789062 c 0
 449.498046875 286.71484375 449.994140625 277.487304688 449.994140625 271.786132812 c 0
 449.994140625 248.310546875 441.947265625 211.986328125 432.03125 190.70703125 c 1
 438.721679688 179.524414062 446.109375 160.0546875 448.521484375 147.249023438 c 0
EndSplineSet
Validated: 33
EndChar

StartChar: dieresis
Encoding: 168 168 81
Width: 361
VWidth: 0
Flags: MW
AnchorPoint: "top" 180.5 551 mark 0
LayerCount: 2
Fore
SplineSet
281.774414062 622.900390625 m 1024,0,-1
90.935546875 622.900390625 m 1024,1,-1
331.870117188 680.15234375 m 0,2,-1
 336.068359375 662.977539062 339.026367188 626.717773438 320.801757812 602.862304688 c 0,5,-1
 318.568359375 599.9609375 314.29296875 595.943359375 311.259765625 593.893554688 c 2,8,-1
 297.99609375 586.259765625 l 2,9,-1
 294.0390625 584.15234375 287.188476562 582.442382812 282.705078125 582.442382812 c 0,12,-1
 282.685546875 582.442382812 282.653320312 582.442382812 282.633789062 582.442382812 c 2,15,-1
 250.286132812 582.442382812 l 2,16,-1
 250.051757812 582.434570312 249.669921875 582.427734375 249.434570312 582.427734375 c 0,19,-1
 243.426757812 582.427734375 235.258789062 586.025390625 231.202148438 590.458007812 c 0,22,-1
 224.045898438 599.141601562 215.83984375 615.553710938 215.83984375 647.709960938 c 2,25,-1
 216.5078125 671.8515625 l 2,26,-1
 216.5078125 671.859375 216.5078125 671.873046875 216.5078125 671.881835938 c 0,29,-1
 216.5078125 672.96875 216.721679688 674.708007812 216.984375 675.763671875 c 0,32,-1
 219.829101562 685.046875 229.83203125 694.280273438 239.3125 696.374023438 c 0,35,-1
 246.98046875 698.165039062 259.590820312 699.790039062 267.461914062 700 c 0,38,-1
 280.928710938 699.948242188 302.559570312 697.682617188 315.744140625 694.942382812 c 0,41,-1
 322.719726562 693.61328125 329.943359375 686.987304688 331.870117188 680.15234375 c 0,2,-1
141.030273438 680.15234375 m 0,44,-1
 145.229492188 662.977539062 148.1875 626.717773438 129.961914062 602.862304688 c 0,47,-1
 127.728515625 599.9609375 123.454101562 595.943359375 120.419921875 593.893554688 c 2,50,-1
 107.15625 586.259765625 l 2,51,-1
 103.19921875 584.15234375 96.3486328125 582.442382812 91.865234375 582.442382812 c 0,54,-1
 91.845703125 582.442382812 91.8134765625 582.442382812 91.7939453125 582.442382812 c 2,57,-1
 59.4462890625 582.442382812 l 2,58,-1
 59.2119140625 582.434570312 58.830078125 582.427734375 58.5947265625 582.427734375 c 0,61,-1
 52.5869140625 582.427734375 44.4189453125 586.025390625 40.3623046875 590.458007812 c 0,64,-1
 33.2060546875 599.141601562 25 615.553710938 25 647.709960938 c 2,67,-1
 25.572265625 671.374023438 l 2,68,-1
 25.572265625 671.387695312 25.572265625 671.408203125 25.572265625 671.421875 c 0,71,-1
 25.572265625 672.615234375 25.8291015625 674.517578125 26.1455078125 675.66796875 c 0,74,-1
 28.9638671875 684.98828125 38.9677734375 694.264648438 48.4736328125 696.374023438 c 0,77,-1
 56.140625 698.165039062 68.7509765625 699.790039062 76.6220703125 700 c 0,80,-1
 90.0888671875 699.948242188 111.719726562 697.682617188 124.904296875 694.942382812 c 0,83,-1
 131.879882812 693.61328125 139.104492188 686.987304688 141.030273438 680.15234375 c 0,44,-1
EndSplineSet
Validated: 33
EndChar

StartChar: copyright
Encoding: 169 169 82
Width: 750
VWidth: 0
Flags: MW
LayerCount: 2
Fore
SplineSet
374.642578125 78.05078125 m 0
 522.645507812 78.05078125 642.763671875 198.168945312 642.763671875 346.171875 c 0
 642.763671875 494.17578125 522.645507812 614.293945312 374.642578125 614.293945312 c 0
 226.639648438 614.293945312 106.521484375 494.17578125 106.521484375 346.171875 c 0
 106.521484375 198.168945312 226.639648438 78.05078125 374.642578125 78.05078125 c 0
374.642578125 700 m 0
 569.853515625 700 728.28515625 541.568359375 728.28515625 346.357421875 c 0
 728.28515625 151.146484375 569.853515625 -7.28515625 374.642578125 -7.28515625 c 0
 179.431640625 -7.28515625 21 151.146484375 21 346.357421875 c 0
 21 541.568359375 179.431640625 700 374.642578125 700 c 0
402.841796875 417.640625 m 1
 402.471679688 489.848632812 l 2
 401.916992188 498.631835938 390.453125 512.22265625 352.545898438 512.129882812 c 0
 314.638671875 512.038085938 316.858398438 481.8046875 316.858398438 481.8046875 c 1
 313.899414062 339.422851562 l 1
 313.899414062 339.422851562 310.848632812 222.189453125 316.858398438 204.4375 c 0
 322.8671875 186.686523438 346.90625 180.399414062 372.331054688 180.399414062 c 0
 400.9921875 180.21484375 402.009765625 203.60546875 402.009765625 203.60546875 c 1
 401.084960938 266.013671875 l 1
 519.3359375 255.658203125 l 1
 510.08984375 139.1640625 l 2
 509.572265625 132.630859375 503.833007812 127.328125 497.279296875 127.328125 c 0
 497.216796875 127.328125 497.116210938 127.329101562 497.053710938 127.330078125 c 0
 449.624023438 127.884765625 276.916992188 132.692382812 252.138671875 164.3125 c 0
 227.361328125 195.931640625 230.782226562 356.065429688 230.782226562 356.065429688 c 1
 229.857421875 499.6484375 l 2
 229.7265625 500.833984375 229.62109375 502.763671875 229.62109375 503.95703125 c 0
 229.62109375 518.8671875 240.91015625 535.328125 254.8203125 540.69921875 c 0
 323.69921875 570.5625 457.575195312 565.754882812 487.53125 564.830078125 c 0
 517.486328125 563.905273438 508.98046875 417.640625 508.98046875 417.640625 c 1
 402.841796875 417.640625 l 1
EndSplineSet
Validated: 33
EndChar

StartChar: guillemotleft
Encoding: 171 171 84
Width: 493
VWidth: 0
Flags: MW
LayerCount: 2
Fore
SplineSet
238.15625 492.110351562 m 1
 144.853515625 285.688476562 l 1
 271.734375 64.037109375 l 1
 21 278.073242188 l 1
 238.15625 492.110351562 l 1
438.15625 492.110351562 m 1
 344.853515625 285.688476562 l 1
 471.734375 64.037109375 l 1
 221 278.073242188 l 1
 438.15625 492.110351562 l 1
EndSplineSet
Validated: 1
EndChar

StartChar: registered
Encoding: 174 174 86
Width: 739
VWidth: 0
Flags: MW
LayerCount: 2
Fore
SplineSet
368.822265625 88.2880859375 m 0
 514.388671875 88.2880859375 632.530273438 206.428710938 632.530273438 351.99609375 c 0
 632.530273438 497.5625 514.388671875 615.704101562 368.822265625 615.704101562 c 0
 223.254882812 615.704101562 105.114257812 497.5625 105.114257812 351.99609375 c 0
 105.114257812 206.428710938 223.254882812 88.2880859375 368.822265625 88.2880859375 c 0
368.822265625 700 m 0
 560.8203125 700 716.64453125 544.17578125 716.64453125 352.177734375 c 0
 716.64453125 160.1796875 560.8203125 4.35546875 368.822265625 4.35546875 c 0
 176.82421875 4.35546875 21 160.1796875 21 352.177734375 c 0
 21 544.17578125 176.82421875 700 368.822265625 700 c 0
427.383789062 432.291015625 m 2
 427.383789062 432.563476562 l 2
 427.475585938 435.659179688 427.55078125 440.684570312 427.55078125 443.78125 c 0
 427.55078125 463.88671875 424.420898438 496.217773438 420.563476562 515.950195312 c 0
 419.1015625 522.303710938 412.624023438 527.518554688 406.10546875 527.588867188 c 2
 340.905273438 528.31640625 l 1
 339.268554688 345.357421875 l 1
 403.922851562 343.629882812 l 2
 404.013671875 343.62890625 404.162109375 343.626953125 404.252929688 343.626953125 c 0
 412.537109375 343.626953125 420.537109375 350.228515625 422.109375 358.361328125 c 0
 425.045898438 376.930664062 427.428710938 407.259765625 427.428710938 426.059570312 c 0
 427.428710938 427.779296875 427.408203125 430.571289062 427.383789062 432.291015625 c 2
445.024414062 304.983398438 m 1
 506.586914062 140.029296875 l 1
 388.373046875 133.754882812 l 1
 358.364257812 278.521484375 l 1
 296.711914062 278.521484375 l 1
 296.711914062 157.669921875 l 1
 231.239257812 158.943359375 l 1
 231.239257812 158.943359375 241.969726562 350.905273438 242.60546875 429.5625 c 0
 242.642578125 432.469726562 242.672851562 437.188476562 242.672851562 440.094726562 c 0
 242.672851562 474.1953125 238.569335938 529.239257812 233.512695312 562.962890625 c 1
 233.512695312 562.962890625 348.088867188 571.146484375 378.279296875 570.509765625 c 0
 379.205078125 570.533203125 380.70703125 570.552734375 381.6328125 570.552734375 c 0
 401.959960938 570.552734375 432.599609375 562.059570312 450.026367188 551.595703125 c 0
 471.395507812 537.319335938 480.852539062 504.85546875 481.489257812 453.387695312 c 0
 482.125976562 401.918945312 478.034179688 357.1796875 468.940429688 335.172851562 c 0
 464.939453125 324.78125 454.225585938 311.255859375 445.024414062 304.983398438 c 1
EndSplineSet
Validated: 33
EndChar

StartChar: degree
Encoding: 176 176 87
Width: 341
VWidth: 0
Flags: MW
LayerCount: 2
Fore
SplineSet
213.319335938 553.947265625 m 0
 234.748046875 580.920898438 231.176757812 621.7109375 225.725585938 641.165039062 c 0
 223.315429688 648.895507812 214.893554688 656.34765625 206.928710938 657.80078125 c 0
 193.668945312 660.359375 171.94921875 662.435546875 158.4453125 662.435546875 c 0
 157.377929688 662.435546875 155.645507812 662.421875 154.579101562 662.40625 c 0
 143.877929688 662.368164062 126.614257812 660.978515625 116.044921875 659.3046875 c 0
 104.983398438 657.16015625 93.0673828125 646.760742188 89.447265625 636.08984375 c 0
 89.1064453125 634.89453125 88.8115234375 632.916015625 88.7890625 631.672851562 c 2
 88.1318359375 604.51171875 l 2
 88.7890625 568.420898438 98.1875 549.624023438 106.364257812 540.977539062 c 0
 111.290039062 535.788085938 121.092773438 531.576171875 128.248046875 531.576171875 c 0
 128.35546875 531.576171875 128.53125 531.577148438 128.638671875 531.579101562 c 2
 167.361328125 531.579101562 l 2
 167.418945312 531.579101562 167.513671875 531.578125 167.572265625 531.578125 c 0
 172.8203125 531.578125 180.893554688 533.473632812 185.59375 535.80859375 c 2
 201.571289062 543.890625 l 2
 205.268554688 546.135742188 210.53125 550.640625 213.319335938 553.947265625 c 0
309.560546875 657.89453125 m 0
 319.8984375 621.522460938 327.323242188 544.737304688 283.056640625 493.703125 c 0
 277.266601562 487.463867188 266.529296875 479.041992188 259.08984375 474.90625 c 2
 225.913085938 459.680664062 l 2
 216.079101562 455.270507812 199.350585938 451.69140625 188.573242188 451.69140625 c 0
 188.502929688 451.69140625 188.389648438 451.69140625 188.319335938 451.69140625 c 2
 107.586914062 451.69140625 l 2
 106.791992188 451.657226562 105.501953125 451.62890625 104.70703125 451.62890625 c 0
 90.7275390625 451.62890625 70.96484375 459.236328125 60.59375 468.609375 c 0
 43.30078125 485.713867188 23 520.958984375 23 589.09765625 c 2
 24.50390625 640.131835938 l 2
 24.5322265625 642.493164062 25.1220703125 646.240234375 25.8193359375 648.49609375 c 0
 34.140625 669.227539062 58.814453125 688.806640625 80.89453125 692.19921875 c 0
 99.8759765625 696.032226562 130.991210938 699.52734375 150.349609375 700 c 0
 183.578125 699.883789062 237.094726562 695.041992188 269.8046875 689.19140625 c 0
 285.989257812 687.174804688 303.799804688 673.153320312 309.560546875 657.89453125 c 0
EndSplineSet
Validated: 33
EndChar

StartChar: plusminus
Encoding: 177 177 88
Width: 391
VWidth: 0
Flags: MW
LayerCount: 2
Fore
SplineSet
367.30078125 227.029296875 m 1
 248.497070312 227.029296875 l 1
 248.497070312 128.250976562 l 1
 154.297851562 128.250976562 l 1
 139.661132812 227.029296875 l 1
 24 227.029296875 l 1
 24 321.318359375 l 1
 121.611328125 335.237304688 l 1
 110.296875 426.203125 l 1
 248.497070312 465.35546875 l 1
 248.497070312 353.465820312 l 1
 327.87890625 365.229492188 l 1
 367.30078125 227.029296875 l 1
11.5263671875 66.5087890625 m 1
 357.80078125 111 l 1
 380 -29.873046875 l 1
 11.5263671875 -29.873046875 l 1
 11.5263671875 66.5087890625 l 1
EndSplineSet
Validated: 1
EndChar

StartChar: acute
Encoding: 180 180 91
Width: 266
VWidth: 0
Flags: MW
AnchorPoint: "top" 133 537 mark 0
LayerCount: 2
Fore
SplineSet
56.6728515625 533.622070312 m 1
 24 591.120117188 l 1
 215.475585938 700 l 1
 241.212890625 603.349609375 l 1
 56.6728515625 533.622070312 l 1
EndSplineSet
Validated: 1
EndChar

StartChar: mu
Encoding: 181 181 92
Width: 519
VWidth: 0
Flags: MW
LayerCount: 2
Fore
SplineSet
461.616210938 467.336914062 m 0
 518.650390625 416.548828125 494.840820312 88.828125 449.213867188 46.279296875 c 0
 403.5859375 3.7294921875 322.651367188 2.734375 237.643554688 2.734375 c 0
 196.271484375 2.734375 168.387695312 3.27734375 143.854492188 9.251953125 c 1
 172.9140625 -170.1796875 l 1
 22 -164.11328125 l 1
 31.5966796875 163.244140625 l 1
 22.453125 254.58984375 28.15625 374.08984375 31.052734375 420.44140625 c 0
 31.73828125 431.427734375 41.107421875 441.810546875 51.9658203125 443.6171875 c 2
 182.329101562 464.982421875 l 2
 182.984375 465.099609375 184.056640625 465.1953125 184.721679688 465.1953125 c 0
 191.248046875 465.1953125 197.2734375 459.94921875 198.172851562 453.485351562 c 0
 212.56640625 334.708984375 145.302734375 181.079101562 160.874023438 149.936523438 c 0
 176.4453125 118.793945312 194.098632812 123.954101562 281.188476562 120.875976562 c 0
 368.279296875 117.797851562 400.41796875 139.525390625 393.174804688 197.646484375 c 0
 387.291015625 244.450195312 331.5234375 354.716796875 310.158203125 395.63671875 c 0
 308.693359375 398.4609375 307.504882812 403.334960938 307.504882812 406.516601562 c 0
 307.504882812 412.362304688 311.045898438 420.263671875 315.409179688 424.153320312 c 0
 345.194335938 450.950195312 417.255859375 506.8984375 461.616210938 467.336914062 c 0
EndSplineSet
Validated: 33
EndChar

StartChar: bracketright
Encoding: 93 93 93
Width: 272
VWidth: 0
Flags: MW
LayerCount: 2
Fore
SplineSet
22 700 m 1
 249.54296875 684.788085938 l 1
 188.787109375 0.2705078125 l 1
 59.6240234375 2.8798828125 l 1
 81.40625 58.505859375 l 1
 156.653320312 59.5859375 l 1
 155.483398438 546.8046875 l 1
 26.23046875 546.444335938 l 1
 22 700 l 1
EndSplineSet
Validated: 1
EndChar

StartChar: bracketleft
Encoding: 91 91 94
Width: 271
VWidth: 0
Flags: MW
LayerCount: 2
Fore
SplineSet
248.54296875 700 m 1
 244.3125 546.444335938 l 1
 114.969726562 546.8046875 l 1
 113.889648438 59.5859375 l 1
 189.13671875 58.505859375 l 1
 210.829101562 2.8798828125 l 1
 81.755859375 0.2705078125 l 1
 21 684.788085938 l 1
 248.54296875 700 l 1
EndSplineSet
Validated: 1
EndChar

StartChar: backslash
Encoding: 92 92 95
Width: 443
VWidth: 0
Flags: MW
LayerCount: 2
Fore
SplineSet
152.6640625 700 m 1
 178.499023438 600.73046875 229.536132812 442.53515625 266.586914062 346.883789062 c 0
 323.7734375 201.260742188 421.036132812 36.99609375 421.036132812 36.99609375 c 1
 271.630859375 -12.0859375 l 2
 279.916015625 0.7021484375 234.166015625 169.650390625 175.44921875 307.708984375 c 0
 116.731445312 445.767578125 21 649.02734375 21 649.02734375 c 1
 152.6640625 700 l 1
EndSplineSet
Validated: 33
EndChar

StartChar: grave
Encoding: 96 96 96
Width: 266
VWidth: 0
Flags: MW
AnchorPoint: "top" 133 537 mark 0
LayerCount: 2
Fore
SplineSet
208.540039062 533.622070312 m 1
 24 603.349609375 l 1
 49.7373046875 700 l 1
 241.212890625 591.120117188 l 1
 208.540039062 533.622070312 l 1
EndSplineSet
Validated: 1
EndChar

StartChar: percent
Encoding: 37 37 97
Width: 1022
VWidth: 0
Flags: MW
LayerCount: 2
Fore
SplineSet
599.891601562 602.58984375 m 1
 599.891601562 602.58984375 449.581054688 430.390625 354.360351562 313.37109375 c 0
 259.139648438 196.3515625 167.020507812 43.3056640625 170.759765625 28.89453125 c 2
 39.0556640625 118.278320312 l 1
 39.0556640625 118.278320312 179.879882812 251.076171875 276.1953125 376.942382812 c 0
 339.052734375 459.7265625 433.033203125 599.512695312 485.97265625 688.963867188 c 1
 599.891601562 602.58984375 l 1
622.784179688 191.8828125 m 2
 623.969726562 141.9921875 l 2
 623.969726562 75.8662109375 608.830078125 41.6640625 595.604492188 25.0634765625 c 0
 588.552734375 15.5615234375 573.23046875 7.59375 561.401367188 7.2783203125 c 2
 501.38671875 7.2783203125 l 2
 492.951171875 7.5322265625 480.325195312 11.4140625 473.204101562 15.943359375 c 2
 448.668945312 31.8134765625 l 2
 442.942382812 36.05078125 434.974609375 44.22265625 430.883789062 50.0546875 c 0
 397.866210938 99.671875 403.338867188 173.823242188 411 209.12109375 c 0
 413.961914062 222.557617188 427.200195312 236.165039062 440.551757812 239.493164062 c 0
 464.71875 245.154296875 504.475585938 249.853515625 529.296875 249.981445312 c 0
 543.782226562 249.510742188 566.909179688 246.119140625 580.919921875 242.411132812 c 0
 599.071289062 237.319335938 617.41796875 218.318359375 621.872070312 200 c 0
 622.375976562 197.791015625 622.784179688 194.159179688 622.784179688 191.893554688 c 0
 622.784179688 191.890625 622.784179688 191.885742188 622.784179688 191.8828125 c 2
561.857421875 96.662109375 m 0
 568.2421875 105.69140625 575.356445312 122.9296875 575.447265625 158.2265625 c 2
 574.900390625 183.764648438 l 2
 574.893554688 184.9609375 574.689453125 186.880859375 574.444335938 188.051757812 c 0
 572.598632812 197.41015625 563.772460938 207.502929688 554.743164062 210.580078125 c 0
 546.89453125 212.181640625 534.0234375 213.489257812 526.012695312 213.499023438 c 0
 525.26171875 213.512695312 524.041992188 213.5234375 523.290039062 213.5234375 c 0
 513.163085938 213.5234375 496.9765625 211.510742188 487.159179688 209.029296875 c 0
 480.502929688 206.849609375 474.291992188 199.454101562 473.294921875 192.520507812 c 0
 469.190429688 173.823242188 466.454101562 134.421875 482.416015625 108.245117188 c 0
 484.372070312 105.342773438 488.212890625 101.256835938 490.989257812 99.1240234375 c 2
 502.846679688 92.009765625 l 2
 505.704101562 90.4736328125 510.657226562 89.2275390625 513.901367188 89.2275390625 c 0
 514.603515625 89.2275390625 515.739257812 89.2890625 516.436523438 89.365234375 c 2
 545.349609375 89.365234375 l 2
 545.776367188 89.330078125 546.470703125 89.3017578125 546.899414062 89.3017578125 c 0
 552.02734375 89.3017578125 558.728515625 92.5986328125 561.857421875 96.662109375 c 0
84.568359375 463.31640625 m 2
 83.7724609375 463.260742188 82.478515625 463.215820312 81.6796875 463.215820312 c 0
 71.1845703125 463.215820312 57.1142578125 469.67578125 50.2744140625 477.635742188 c 0
 37.140625 494.69140625 22 526.25 22 592.375 c 2
 23.185546875 641.900390625 l 2
 23.185546875 641.903320312 23.185546875 641.908203125 23.185546875 641.911132812 c 0
 23.185546875 644.177734375 23.5947265625 647.809570312 24.09765625 650.018554688 c 0
 28.56640625 668.323242188 46.9130859375 687.323242188 65.0498046875 692.4296875 c 0
 79.060546875 696.137695312 102.188476562 699.529296875 116.673828125 700 c 0
 141.5078125 699.97265625 181.306640625 695.4375 205.509765625 689.875976562 c 0
 218.8671875 686.59375 232.10546875 673.028320312 235.060546875 659.594726562 c 0
 242.540039062 624.297851562 248.194335938 550.0546875 215.177734375 500.802734375 c 0
 211.112304688 494.9453125 203.14453125 486.7734375 197.392578125 482.561523438 c 2
 172.766601562 468.879882812 l 2
 166.528320312 465.715820312 155.790039062 463.1484375 148.795898438 463.1484375 c 0
 147.630859375 463.1484375 145.744140625 463.223632812 144.583007812 463.31640625 c 2
 84.568359375 463.31640625 l 2
70.978515625 633.600585938 m 2
 70.431640625 607.059570312 l 2
 70.5224609375 572.309570312 77.63671875 554.067382812 84.021484375 544.947265625 c 0
 87.3369140625 540.192382812 94.7333984375 536.310546875 100.529296875 536.282226562 c 2
 129.8984375 536.282226562 l 2
 133.999023438 536.30859375 140.086914062 538.188476562 143.48828125 540.477539062 c 2
 155.345703125 548.413085938 l 2
 158.154296875 550.747070312 161.995117188 555.16015625 163.918945312 558.263671875 c 0
 179.423828125 584.348632812 176.688476562 624.024414062 173.040039062 642.721679688 c 0
 171.856445312 649.595703125 165.481445312 656.827148438 158.811523438 658.865234375 c 0
 148.822265625 661.44140625 132.341796875 663.533203125 122.025390625 663.533203125 c 0
 121.428710938 663.533203125 120.461914062 663.525390625 119.866210938 663.516601562 c 0
 111.850585938 663.458007812 98.978515625 662.068359375 91.1357421875 660.416015625 c 0
 82.091796875 657.3515625 73.265625 647.258789062 71.4345703125 637.887695312 c 0
 71.189453125 636.716796875 70.984375 634.796875 70.978515625 633.600585938 c 2
EndSplineSet
Validated: 33
EndChar

StartChar: equal
Encoding: 61 61 98
Width: 368
VWidth: 0
Flags: MW
LayerCount: 2
Fore
SplineSet
305.890625 525.340820312 m 1
 344.325195312 388.666992188 l 1
 25 388.666992188 l 1
 25 479.903320312 l 1
 305.890625 525.340820312 l 1
25 300.305664062 m 1
 305.890625 345.743164062 l 1
 344.325195312 209.069335938 l 1
 25 209.069335938 l 1
 25 300.305664062 l 1
EndSplineSet
Validated: 1
EndChar

StartChar: at
Encoding: 64 64 99
Width: 779
VWidth: 0
Flags: MW
LayerCount: 2
Fore
SplineSet
754.158203125 237.119140625 m 2
 755.69140625 229.676757812 756.936523438 217.469726562 756.936523438 209.87109375 c 0
 756.936523438 208.83984375 756.913085938 207.165039062 756.884765625 206.133789062 c 0
 753.431640625 108.6328125 712.541015625 86.1884765625 685.280273438 63.1982421875 c 0
 670.469726562 50.75 608.770507812 26.306640625 599.68359375 22.671875 c 0
 575.087890625 13.3037109375 533.809570312 4.3486328125 507.54296875 2.6806640625 c 0
 507.321289062 2.6650390625 506.9609375 2.65234375 506.73828125 2.65234375 c 0
 501.1171875 2.65234375 496.022460938 7.18359375 495.3671875 12.7666015625 c 2
 493.731445312 25.8515625 l 2
 493.295898438 29.26953125 490.145507812 32.04296875 486.700195312 32.04296875 c 0
 486.584960938 32.04296875 486.396484375 32.0380859375 486.280273438 32.03125 c 0
 451.750976562 29.5771484375 293.913085938 19.400390625 274.467773438 36.3017578125 c 0
 252.568359375 55.29296875 253.568359375 74.2841796875 249.750976562 140.799804688 c 0
 245.934570312 207.314453125 257.384765625 237.665039062 274.467773438 245.297851562 c 0
 291.55078125 252.930664062 525.262695312 270.013671875 525.262695312 270.013671875 c 1
 525.262695312 270.013671875 518.62890625 358.427734375 504.36328125 374.51171875 c 0
 490.096679688 390.594726562 414.040039062 379.236328125 392.232421875 368.787109375 c 0
 379.23828125 362.607421875 380.146484375 346.615234375 383.145507812 334.438476562 c 0
 383.372070312 333.532226562 383.556640625 332.0390625 383.556640625 331.104492188 c 0
 383.556640625 324.224609375 377.999023438 318.106445312 371.150390625 317.446289062 c 0
 333.89453125 313.811523438 246.025390625 308.268554688 234.848632812 336.529296875 c 0
 220.764648438 372.240234375 231.487304688 417.12890625 251.659179688 452.203125 c 0
 271.83203125 487.278320312 415.221679688 486.370117188 415.221679688 486.370117188 c 1
 415.221679688 486.370117188 535.802734375 486.370117188 555.793945312 478.737304688 c 0
 575.78515625 471.104492188 594.776367188 443.571289062 605.2265625 408.405273438 c 0
 614.676757812 376.783203125 633.486328125 181.78125 636.484375 120.263671875 c 1
 662.654296875 129.350585938 l 2
 685.280273438 136.892578125 695.73046875 184.870117188 691.732421875 208.314453125 c 2
 647.297851562 470.649414062 l 2
 639.265625 518.176757812 593.626953125 556.749023438 545.42578125 556.749023438 c 0
 543.948242188 556.749023438 541.549804688 556.6875 540.07421875 556.610351562 c 2
 241.028320312 540.981445312 l 2
 193.811523438 538.576171875 144.635742188 499.821289062 131.259765625 454.475585938 c 0
 116.720703125 405.04296875 106.81640625 332.89453125 120.083007812 232.39453125 c 0
 138.892578125 90.27734375 206.770507812 10.8583984375 251.568359375 -27.8505859375 c 0
 269.75390625 -42.9248046875 303.682617188 -55.158203125 327.301757812 -55.158203125 c 0
 328.21875 -55.158203125 329.70703125 -55.13671875 330.624023438 -55.111328125 c 2
 559.610351562 -55.111328125 l 2
 568.655273438 -56.8408203125 576.796875 -65.673828125 577.784179688 -74.830078125 c 2
 577.784179688 -111.721679688 l 2
 576.515625 -120.395507812 568.374023438 -127.6015625 559.610351562 -127.805664062 c 2
 291.732421875 -127.805664062 l 2
 262.04296875 -127.686523438 219.095703125 -112.583007812 195.8671875 -94.09375 c 0
 110.767578125 -27.41796875 33.4208984375 114.045898438 23.2177734375 221.671875 c 0
 21.994140625 235.235351562 21 257.296875 21 270.915039062 c 0
 21 349.8046875 52.28125 469.6953125 90.8232421875 538.528320312 c 0
 117.31640625 585.924804688 182.857421875 625.982421875 237.12109375 627.94140625 c 2
 556.06640625 640.572265625 l 2
 557.56640625 640.631835938 560.001953125 640.6796875 561.502929688 640.6796875 c 0
 623.79296875 640.6796875 684.170898438 591.088867188 696.275390625 529.986328125 c 2
 754.158203125 237.119140625 l 2
461.655273438 88.369140625 m 0
 510.723632812 87.9150390625 555.33984375 80.4638671875 555.33984375 146.524414062 c 0
 555.33984375 212.584960938 540.165039062 227.487304688 515.17578125 229.395507812 c 0
 507.905273438 230.083984375 496.077148438 230.642578125 488.774414062 230.642578125 c 0
 484.973632812 230.642578125 478.80859375 230.491210938 475.012695312 230.3046875 c 2
 475.012695312 230.3046875 401.955078125 223.670898438 405.862304688 166.697265625 c 0
 409.76953125 109.72265625 412.586914062 88.8232421875 461.655273438 88.369140625 c 0
EndSplineSet
Validated: 33
EndChar

StartChar: parenright
Encoding: 41 41 100
Width: 287
VWidth: 0
Flags: MW
LayerCount: 2
Fore
SplineSet
21 610.505859375 m 1
 37.2880859375 700 l 1
 133.478515625 701.357421875 205.327148438 650.140625 222.249023438 627.608398438 c 0
 239.169921875 605.076171875 255.096679688 568.880859375 262.87890625 397.493164062 c 0
 270.661132812 226.106445312 242.518554688 77.703125 207.318359375 41.1455078125 c 0
 172.1171875 4.587890625 50.1376953125 3.23046875 50.1376953125 3.23046875 c 1
 52.8525390625 72.8173828125 l 1
 52.8525390625 72.8173828125 87.4189453125 71.8212890625 105.698242188 90.4619140625 c 0
 123.977539062 109.103515625 106.241210938 290.715820312 104.340820312 307.637695312 c 0
 102.440429688 324.55859375 72.216796875 554.040039062 66.2451171875 573.224609375 c 0
 60.2724609375 592.408203125 21 610.505859375 21 610.505859375 c 1
EndSplineSet
Validated: 33
EndChar

StartChar: parenleft
Encoding: 40 40 101
Width: 286
VWidth: 0
Flags: MW
LayerCount: 2
Fore
SplineSet
264.258789062 92.2724609375 m 1
 248.060546875 3.23046875 l 1
 151.870117188 1.6923828125 80.1123046875 53.54296875 63.1005859375 75.6220703125 c 0
 46.087890625 97.701171875 30.43359375 134.349609375 22.3798828125 305.737304688 c 0
 14.326171875 477.124023438 42.6494140625 625.52734375 77.9404296875 662.084960938 c 0
 113.231445312 698.642578125 235.12109375 700 235.12109375 700 c 1
 232.586914062 629.9609375 l 1
 232.586914062 629.9609375 198.01953125 630.956054688 179.741210938 612.315429688 c 0
 161.461914062 593.674804688 179.37890625 412.0625 181.098632812 395.140625 c 0
 182.817382812 378.21875 213.041015625 148.737304688 219.013671875 129.553710938 c 0
 224.986328125 110.370117188 264.258789062 92.2724609375 264.258789062 92.2724609375 c 1
EndSplineSet
Validated: 33
EndChar

StartChar: asciicircum
Encoding: 94 94 102
Width: 379
VWidth: 0
Flags: MW
AnchorPoint: "top" 189.5 476 mark 0
LayerCount: 2
Fore
SplineSet
23 522.500976562 m 1
 195.947265625 700 l 1
 355.241210938 558.911132812 l 1
 246.010742188 499.745117188 l 1
 159.537109375 599.873046875 l 1
 82.166015625 513.3984375 l 1
 23 522.500976562 l 1
EndSplineSet
Validated: 1
EndChar

StartChar: asciitilde
Encoding: 126 126 103
Width: 403
VWidth: 0
Flags: MW
AnchorPoint: "top" 201.5 545 mark 0
LayerCount: 2
Fore
SplineSet
28.8935546875 578.638671875 m 1
 25 684.331054688 l 2
 53.61328125 692.990234375 101.09765625 700.017578125 130.991210938 700.017578125 c 0
 131.983398438 700.017578125 133.594726562 700.009765625 134.586914062 700 c 0
 199.485351562 700 206.995117188 647.153320312 267.721679688 645.20703125 c 0
 328.44921875 643.259765625 369.520507812 700 369.520507812 700 c 1
 377.30859375 570.8515625 l 1
 377.30859375 570.8515625 345.971679688 565.009765625 271.616210938 566.95703125 c 0
 197.260742188 568.904296875 158.135742188 623.697265625 111.129882812 625.830078125 c 0
 64.125 627.961914062 28.8935546875 578.638671875 28.8935546875 578.638671875 c 1
EndSplineSet
Validated: 33
EndChar

StartChar: quotedbl
Encoding: 34 34 104
Width: 269
VWidth: 0
Flags: MW
LayerCount: 2
Fore
SplineSet
52.34375 481.340820312 m 1
 22 674.728515625 l 1
 118.014648438 700 l 1
 118.014648438 481.340820312 l 1
 52.34375 481.340820312 l 1
176.891601562 481.340820312 m 1
 146.637695312 674.728515625 l 1
 242.65234375 700 l 1
 242.65234375 481.340820312 l 1
 176.891601562 481.340820312 l 1
EndSplineSet
Validated: 1
EndChar

StartChar: dollar
Encoding: 36 36 105
Width: 503
VWidth: 0
Flags: MW
LayerCount: 2
Fore
SplineSet
477.612304688 186.704101562 m 0
 495.2578125 83.2744140625 432.8203125 27.9853515625 348.665039062 9.435546875 c 1
 355.08984375 -44.8583984375 l 1
 256.274414062 -60.060546875 l 1
 260.4375 2.015625 l 1
 230.123046875 0.8388671875 l 1
 234.918945312 -40.0625 l 1
 136.104492188 -55.2646484375 l 1
 139.633789062 -1.513671875 l 1
 101.084960938 -2.1767578125 62.56640625 -2.7802734375 24.078125 -3.3232421875 c 1
 33.7607421875 196.477539062 l 1
 92.759765625 167.068359375 150.40234375 147.522460938 217.364257812 146.165039062 c 0
 264.509765625 145.169921875 375.087890625 155.485351562 339.34375 233.939453125 c 0
 322.422851562 271.221679688 263.966796875 285.337890625 229.670898438 300.359375 c 0
 198.813476562 313.841796875 167.142578125 325.967773438 136.647460938 340.35546875 c 0
 27.607421875 391.84375 -19.447265625 550.201171875 62.537109375 650.462890625 c 0
 80.5439453125 672.452148438 106.876953125 683.853515625 135.833007812 689.645507812 c 2
 128.684570312 748.282226562 l 1
 227.499023438 763.846679688 l 1
 223.155273438 694.622070312 l 1
 246.049804688 693.807617188 l 1
 255.098632812 693.264648438 l 1
 248.9453125 743.939453125 l 1
 347.668945312 759.502929688 l 1
 343.0546875 684.849609375 l 1
 382.236328125 679.510742188 421.237304688 672.271484375 459.243164062 663.946289062 c 1
 455.3515625 468.036132812 l 1
 380.426757812 503.9609375 270.391601562 567.936523438 183.25 541.6953125 c 0
 131.037109375 525.94921875 113.573242188 458.806640625 158.817382812 425.416015625 c 0
 193.474609375 399.536132812 244.05859375 385.329101562 283.51171875 368.31640625 c 0
 371.015625 330.672851562 459.514648438 291.671875 477.612304688 186.704101562 c 0
EndSplineSet
Validated: 33
EndChar

StartChar: less
Encoding: 60 60 106
Width: 295
VWidth: 0
Flags: MW
LayerCount: 2
Fore
SplineSet
238.15625 492.110351562 m 1
 144.853515625 285.688476562 l 1
 271.734375 64.037109375 l 1
 21 278.073242188 l 1
 238.15625 492.110351562 l 1
EndSplineSet
Validated: 1
EndChar

StartChar: greater
Encoding: 62 62 107
Width: 294
VWidth: 0
Flags: MW
LayerCount: 2
Fore
SplineSet
54.669921875 492.110351562 m 1
 271.734375 278.073242188 l 1
 21 64.037109375 l 1
 147.880859375 285.688476562 l 1
 54.669921875 492.110351562 l 1
EndSplineSet
Validated: 1
EndChar

StartChar: bar
Encoding: 124 124 108
Width: 237
VWidth: 0
Flags: MW
LayerCount: 2
Fore
SplineSet
161.396484375 700 m 1
 158.75390625 651.612304688 156.608398438 573.010742188 156.608398438 524.55078125 c 0
 156.608398438 470.915039062 159.235351562 383.932617188 162.47265625 330.393554688 c 0
 172.610351562 174.8359375 215.04296875 -10.5048828125 215.04296875 -10.5048828125 c 1
 58.4091796875 -11.7607421875 l 2
 70.0712890625 -2.162109375 77.7861328125 173.311523438 64.060546875 320.794921875 c 0
 50.2451171875 469.624023438 21 691.477539062 21 691.477539062 c 1
 161.396484375 700 l 1
EndSplineSet
Validated: 33
EndChar

StartChar: braceleft
Encoding: 123 123 109
Width: 369
VWidth: 0
Flags: MW
LayerCount: 2
Fore
SplineSet
233.458007812 693.983398438 m 1
 335.290039062 700 l 1
 347.143554688 532.345703125 l 1
 347.143554688 532.345703125 305.20703125 541.325195312 221.424804688 538.362304688 c 0
 137.642578125 535.3984375 152.549804688 433.65625 149.5859375 292.94140625 c 0
 146.623046875 152.2265625 179.579101562 92.4208984375 227.44140625 77.4248046875 c 0
 240.419921875 73.83203125 261.8828125 70.9169921875 275.349609375 70.9169921875 c 0
 288.815429688 70.9169921875 310.278320312 73.83203125 323.256835938 77.4248046875 c 2
 323.256835938 11.5126953125 l 1
 323.256835938 11.5126953125 269.377929688 14.5654296875 221.514648438 17.5283203125 c 0
 173.65234375 20.4921875 104.866210938 65.4814453125 107.830078125 101.400390625 c 0
 110.79296875 137.3203125 137.552734375 249.569335938 94.359375 276.508789062 c 0
 85.857421875 282.235351562 71.09375 289.59765625 61.4033203125 292.94140625 c 2
 61.4033203125 292.94140625 -31.4482421875 312.427734375 64.3671875 324.37109375 c 0
 160.182617188 336.314453125 89.7802734375 502.352539062 107.740234375 598.16796875 c 0
 125.69921875 693.983398438 233.458007812 693.983398438 233.458007812 693.983398438 c 1
EndSplineSet
Validated: 33
EndChar

StartChar: braceright
Encoding: 125 125 110
Width: 369
VWidth: 0
Flags: MW
LayerCount: 2
Fore
SplineSet
134.685546875 693.983398438 m 1
 134.685546875 693.983398438 242.444335938 693.983398438 260.403320312 598.16796875 c 0
 278.36328125 502.352539062 207.9609375 336.314453125 303.776367188 324.37109375 c 0
 399.591796875 312.427734375 306.740234375 292.94140625 306.740234375 292.94140625 c 2
 297.049804688 289.59765625 282.28515625 282.235351562 273.784179688 276.508789062 c 0
 230.590820312 249.569335938 257.350585938 137.3203125 260.313476562 101.400390625 c 0
 263.27734375 65.4814453125 194.491210938 20.4921875 146.62890625 17.5283203125 c 0
 98.765625 14.5654296875 44.88671875 11.5126953125 44.88671875 11.5126953125 c 1
 44.88671875 77.4248046875 l 2
 57.865234375 73.83203125 79.328125 70.9169921875 92.7939453125 70.9169921875 c 0
 106.260742188 70.9169921875 127.723632812 73.83203125 140.702148438 77.4248046875 c 0
 188.564453125 92.4208984375 221.520507812 152.2265625 218.557617188 292.94140625 c 0
 215.59375 433.65625 230.500976562 535.3984375 146.71875 538.362304688 c 0
 62.935546875 541.325195312 21 532.345703125 21 532.345703125 c 1
 32.853515625 700 l 1
 134.685546875 693.983398438 l 1
EndSplineSet
Validated: 33
EndChar

StartChar: asterisk
Encoding: 42 42 111
Width: 305
VWidth: 0
Flags: MW
LayerCount: 2
Fore
SplineSet
280.9296875 619.874023438 m 0
 281.7421875 616.541015625 282.401367188 611.051757812 282.401367188 607.62109375 c 0
 282.401367188 605.669921875 282.185546875 602.518554688 281.920898438 600.5859375 c 0
 280.224609375 591.908203125 272.390625 581.732421875 264.435546875 577.873046875 c 0
 256.689453125 573.858398438 243.32421875 570.466796875 234.602539062 570.301757812 c 0
 234.012695312 570.286132812 233.055664062 570.272460938 232.465820312 570.272460938 c 0
 225.891601562 570.272460938 215.461914062 571.860351562 209.185546875 573.817382812 c 0
 206.868164062 574.715820312 202.970703125 575.444335938 200.485351562 575.444335938 c 0
 195.801757812 575.444335938 189.0390625 573.059570312 185.390625 570.122070312 c 0
 183.162109375 568.173828125 181.354492188 564.19140625 181.354492188 561.232421875 c 0
 181.354492188 558.853515625 182.59765625 555.447265625 184.12890625 553.627929688 c 0
 186.561523438 550.405273438 191.487304688 546.3671875 195.125 544.614257812 c 0
 207.919921875 538.309570312 227.140625 525.7109375 238.02734375 516.494140625 c 0
 241.287109375 513.7421875 245.76953125 508.57421875 248.03125 504.95703125 c 0
 249.318359375 502.146484375 250.362304688 497.356445312 250.362304688 494.264648438 c 0
 250.362304688 492.198242188 249.883789062 488.912109375 249.29296875 486.930664062 c 0
 247.907226562 477.859375 242.01171875 464.776367188 236.134765625 457.728515625 c 0
 226.040039062 445.741210938 212.33984375 445.291015625 200.08203125 456.737304688 c 0
 197.6796875 459.077148438 194.045898438 463.115234375 191.970703125 465.75 c 0
 191.392578125 466.700195312 190.747070312 468.35546875 190.528320312 469.4453125 c 0
 185.145507812 485.807617188 174.405273438 511.528320312 166.553710938 526.859375 c 0
 165.048828125 529.595703125 162.061523438 533.633789062 159.883789062 535.872070312 c 0
 158.090820312 538.163085938 154.275390625 540.021484375 151.366210938 540.021484375 c 0
 148.458007812 540.021484375 144.641601562 538.163085938 142.848632812 535.872070312 c 0
 139.365234375 532.147460938 134.358398438 525.606445312 131.672851562 521.270507812 c 0
 125.814453125 511.716796875 121.307617188 501.712890625 115.178710938 491.888671875 c 0
 110.362304688 483.33203125 100.388671875 471.21875 92.9169921875 464.848632812 c 0
 89.6298828125 462.012695312 83.5322265625 458.903320312 79.306640625 457.909179688 c 0
 78.19140625 457.688476562 76.36328125 457.508789062 75.2265625 457.508789062 c 0
 70.171875 457.508789062 63.2783203125 460.514648438 59.8388671875 464.217773438 c 0
 53.5458984375 470.69921875 45.8330078125 482.813476562 42.6240234375 491.256835938 c 0
 40.455078125 496.233398438 37.830078125 504.591796875 36.765625 509.9140625 c 0
 36.4697265625 511.171875 36.2294921875 513.241210938 36.2294921875 514.533203125 c 0
 36.2294921875 521.6953125 41.5166015625 529.921875 48.03125 532.897460938 c 0
 54.4404296875 536.015625 65.3828125 539.24609375 72.45703125 540.108398438 c 0
 81.650390625 541.73046875 91.2041015625 542.9921875 100.216796875 544.884765625 c 0
 106.336914062 545.950195312 114.897460938 550.3515625 119.325195312 554.708984375 c 0
 121.74609375 556.435546875 123.7109375 560.249023438 123.7109375 563.22265625 c 0
 123.7109375 568.143554688 119.767578125 572.768554688 114.908203125 573.546875 c 0
 113.379882812 574.111328125 110.8359375 574.797851562 109.23046875 575.079101562 c 0
 106.166015625 575.529296875 103.01171875 576.0703125 98.5947265625 576.0703125 c 0
 91.6552734375 575.168945312 83.6328125 574.087890625 75.521484375 573.186523438 c 0
 72.595703125 572.759765625 67.822265625 572.413085938 64.865234375 572.413085938 c 0
 58.7939453125 572.413085938 49.15234375 573.849609375 43.3447265625 575.620117188 c 0
 31.5625 578.354492188 22 590.389648438 22 602.485351562 c 0
 22 604.799804688 22.5576171875 608.470703125 23.24609375 610.680664062 c 0
 26.33984375 624.139648438 37.96875 641.583984375 49.203125 649.6171875 c 0
 52.7998046875 652.2109375 59.318359375 654.315429688 63.7529296875 654.315429688 c 0
 68.90625 654.315429688 76.2373046875 651.564453125 80.1181640625 648.174804688 c 0
 86.896484375 642.68359375 95.4970703125 631.862304688 99.31640625 624.01953125 c 0
 104.23046875 613.578125 115.25390625 598.920898438 123.921875 591.302734375 c 0
 126.21875 589.453125 130.256835938 586.94921875 132.934570312 585.713867188 c 0
 133.84375 585.14453125 135.451171875 584.682617188 136.524414062 584.682617188 c 0
 140.255859375 584.682617188 143.284179688 587.7109375 143.284179688 591.442382812 c 0
 143.284179688 591.856445312 143.209960938 592.520507812 143.119140625 592.924804688 c 0
 142.860351562 598.484375 141.366210938 607.327148438 139.784179688 612.663085938 c 0
 136.450195312 623.9296875 131.40234375 634.8359375 127.436523438 645.921875 c 0
 125.231445312 651.192382812 123.44140625 660.106445312 123.44140625 665.8203125 c 0
 123.44140625 668.256835938 123.778320312 672.182617188 124.192382812 674.583007812 c 0
 126.495117188 688.310546875 139.658203125 699.697265625 153.57421875 700 c 0
 154.6328125 700.126953125 156.357421875 700.23046875 157.423828125 700.23046875 c 0
 167.0390625 700.23046875 179.124023438 693.70703125 184.399414062 685.668945312 c 0
 187.040039062 681.602539062 189.182617188 674.368164062 189.182617188 669.51953125 c 0
 189.182617188 667.189453125 188.655273438 663.481445312 188.004882812 661.244140625 c 0
 186.728515625 656.5625 184.265625 649.091796875 182.506835938 644.569335938 c 0
 179.673828125 636.95703125 177.009765625 624.198242188 176.557617188 616.087890625 c 0
 176.505859375 614.684570312 176.463867188 612.404296875 176.463867188 611 c 0
 176.463867188 607.62109375 176.708007812 602.1484375 177.008789062 598.783203125 c 0
 177.188476562 596.169921875 177.91015625 593.014648438 180.974609375 592.383789062 c 0
 184.0390625 591.752929688 185.661132812 594.45703125 187.103515625 596.530273438 c 0
 188.525390625 598.643554688 190.543945312 602.237304688 191.609375 604.551757812 c 0
 196.715820312 615.892578125 207.173828125 632.97265625 214.953125 642.676757812 c 0
 218.911132812 647.739257812 226.624023438 654.482421875 232.168945312 657.728515625 c 0
 235.775390625 660.11328125 242.2109375 662.047851562 246.534179688 662.047851562 c 0
 254.23828125 662.047851562 263.954101562 656.842773438 268.220703125 650.427734375 c 0
 273.881835938 642.890625 279.575195312 629.202148438 280.9296875 619.874023438 c 0
164.299804688 564.803710938 m 0
 164.80859375 566.030273438 165.220703125 568.102539062 165.220703125 569.4296875 c 0
 165.220703125 576.095703125 159.810546875 581.506835938 153.143554688 581.506835938 c 0
 152.9140625 581.506835938 152.541992188 581.494140625 152.3125 581.478515625 c 0
 152.125 581.48828125 151.8203125 581.49609375 151.631835938 581.49609375 c 0
 146.407226562 581.49609375 140.897460938 577.450195312 139.333984375 572.46484375 c 0
 139.1953125 571.8125 139.083984375 570.741210938 139.083984375 570.07421875 c 0
 139.083984375 566.060546875 142.022460938 561.3984375 145.643554688 559.666992188 c 0
 147.350585938 558.768554688 150.301757812 558.040039062 152.23046875 558.040039062 c 0
 156.608398438 558.040039062 162.015625 561.0703125 164.299804688 564.803710938 c 0
EndSplineSet
Validated: 33
EndChar

StartChar: plus
Encoding: 43 43 112
Width: 391
VWidth: 0
Flags: MW
LayerCount: 2
Fore
SplineSet
367.30078125 227.029296875 m 1
 248.497070312 227.029296875 l 1
 248.497070312 128.250976562 l 1
 154.297851562 128.250976562 l 1
 139.661132812 227.029296875 l 1
 24 227.029296875 l 1
 24 321.318359375 l 1
 121.611328125 335.237304688 l 1
 110.296875 426.203125 l 1
 248.497070312 465.35546875 l 1
 248.497070312 353.465820312 l 1
 327.87890625 365.229492188 l 1
 367.30078125 227.029296875 l 1
EndSplineSet
Validated: 1
EndChar

StartChar: paragraph
Encoding: 182 182 113
Width: 476
VWidth: 0
Flags: MW
LayerCount: 2
Fore
SplineSet
63.578125 179.1328125 m 0
 40.2607421875 203.266601562 20.30078125 272.12890625 22.115234375 394.338867188 c 0
 23.9296875 516.548828125 21.3896484375 586.681640625 37.720703125 618.344726562 c 0
 54.0517578125 650.008789062 88.3466796875 685.301757812 127.086914062 690.473632812 c 0
 165.828125 695.645507812 308.723632812 702.540039062 357.807617188 699.092773438 c 0
 383.4140625 697.215820312 424.506835938 691.038085938 449.533203125 685.301757812 c 1
 449.533203125 0.126953125 l 1
 385.297851562 2.486328125 l 1
 382.303710938 528.706054688 l 1
 306.545898438 531.881835938 l 1
 297.473632812 6.8408203125 l 1
 244.397460938 8.6552734375 l 1
 244.397460938 151.9140625 l 1
 244.397460938 151.9140625 86.8037109375 154.999023438 63.578125 179.1328125 c 0
EndSplineSet
Validated: 33
EndChar

StartChar: questiondown
Encoding: 191 191 114
Width: 471
VWidth: 0
Flags: MW
LayerCount: 2
Fore
SplineSet
302.70703125 571.139648438 m 1
 165.001953125 555.551757812 l 1
 149.415039062 668.907226562 l 1
 276.051757812 699.990234375 l 1
 302.70703125 571.139648438 l 1
143.05078125 23.2705078125 m 0
 51.8310546875 34.615234375 9.6806640625 147.325195312 23.607421875 258.927734375 c 0
 37.53515625 370.53125 113.536132812 381.875976562 157.900390625 431.3125 c 0
 202.264648438 480.75 195.900390625 509.896484375 195.900390625 509.896484375 c 1
 262.032226562 508.604492188 l 1
 259.541992188 464.240234375 l 2
 257.54296875 425.66015625 226.8828125 382.521484375 191.104492188 367.948242188 c 0
 153.380859375 352.729492188 116.2109375 319.709960938 112.336914062 269.073242188 c 0
 108.462890625 218.4375 135.856445312 187.169921875 156.147460938 175.732421875 c 0
 175.236328125 165.48828125 208.29296875 156.397460938 229.934570312 155.44140625 c 0
 240.264648438 154.426757812 284.352539062 158.853515625 303.721679688 175.732421875 c 0
 344.028320312 210.78125 310.455078125 271.010742188 310.455078125 271.010742188 c 1
 433.403320312 280.233398438 l 1
 433.403320312 280.233398438 459.874023438 247.583007812 444.655273438 119.5625 c 0
 429.436523438 -8.4580078125 234.26953125 11.8330078125 143.05078125 23.2705078125 c 0
EndSplineSet
Validated: 33
EndChar

StartChar: guillemotright
Encoding: 187 187 115
Width: 493
VWidth: 0
Flags: MW
LayerCount: 2
Fore
SplineSet
54.669921875 492.110351562 m 1
 271.734375 278.073242188 l 1
 21 64.037109375 l 1
 147.880859375 285.688476562 l 1
 54.669921875 492.110351562 l 1
254.669921875 492.110351562 m 1
 471.734375 278.073242188 l 1
 221 64.037109375 l 1
 347.880859375 285.688476562 l 1
 254.669921875 492.110351562 l 1
EndSplineSet
Validated: 1
EndChar

StartChar: periodcentered
Encoding: 183 183 116
Width: 197
VWidth: 0
Flags: MW
AnchorPoint: "top" 101 254 basechar 0
LayerCount: 2
Fore
SplineSet
48.189453125 275.487304688 m 1
 22 402.083984375 l 1
 157.387695312 417.30859375 l 1
 172.611328125 306.026367188 l 1
 48.189453125 275.487304688 l 1
EndSplineSet
Validated: 1
EndChar

StartChar: numbersign
Encoding: 35 35 117
Width: 867
VWidth: 0
Flags: MW
LayerCount: 2
Fore
SplineSet
571 352.178710938 m 1
 823.170898438 377.650390625 l 1
 835.879882812 297 l 1
 571 297 l 1
 571 352.178710938 l 1
831.758789062 639.282226562 m 0
 840.668945312 598.044921875 847.14453125 510.650390625 808.23828125 453.041992188 c 0
 803.498046875 446.09375 794.213867188 436.322265625 787.516601562 431.232421875 c 2
 758.661132812 413.567382812 l 2
 750.384765625 408.317382812 735.716796875 403.815429688 725.919921875 403.516601562 c 2
 655.723632812 403.516601562 l 2
 641.951171875 403.658203125 623.963867188 412.640625 615.575195312 423.565429688 c 0
 600.189453125 443.614257812 582.885742188 483.918945312 582.5234375 561.263671875 c 2
 583.870117188 619.181640625 l 2
 583.87890625 621.83203125 584.365234375 626.079101562 584.958007812 628.662109375 c 0
 590.217773438 650.163085938 611.801757812 672.397460938 633.13671875 678.291992188 c 0
 649.532226562 682.615234375 676.594726562 686.560546875 693.541992188 687.098632812 c 0
 722.518554688 686.947265625 768.936523438 681.469726562 797.15234375 674.872070312 c 0
 812.805664062 670.982421875 828.30859375 655.038085938 831.758789062 639.282226562 c 0
748.041015625 521.374023438 m 0
 766.638671875 551.938476562 763.53125 598.252929688 759.231445312 620.424804688 c 0
 757.849609375 628.514648438 750.353515625 637.008789062 742.498046875 639.385742188 c 0
 731.067382812 642.264648438 712.22265625 644.600585938 700.435546875 644.600585938 c 0
 699.491210938 644.600585938 697.958007812 644.584960938 697.012695312 644.56640625 c 0
 687.638671875 644.553710938 672.576171875 643.021484375 663.391601562 641.147460938 c 0
 652.7890625 637.571289062 642.438476562 625.7578125 640.286132812 614.778320312 c 0
 640 613.412109375 639.767578125 611.169921875 639.767578125 609.774414062 c 0
 639.767578125 609.725585938 639.767578125 609.646484375 639.768554688 609.59765625 c 2
 639.146484375 578.98046875 l 2
 639.508789062 537.537109375 647.642578125 516.814453125 655.05078125 506.453125 c 0
 658.862304688 501.213867188 667.213867188 496.9609375 673.693359375 496.9609375 c 0
 673.895507812 496.9609375 674.223632812 496.966796875 674.42578125 496.97265625 c 2
 708.254882812 496.97265625 l 2
 708.498046875 496.965820312 708.893554688 496.958984375 709.137695312 496.958984375 c 0
 713.612304688 496.958984375 720.318359375 498.891601562 724.107421875 501.2734375 c 2
 737.939453125 509.873046875 l 2
 741.244140625 512.592773438 745.770507812 517.745117188 748.041015625 521.374023438 c 0
53.849609375 525.932617188 m 1
 20 525.932617188 l 1
 20 691.596679688 l 1
 197.484375 695 l 1
 366.642578125 329.821289062 l 1
 366.642578125 686.58203125 l 1
 534.0078125 686.58203125 l 1
 506.963867188 15.3271484375 l 1
 349.716796875 3.5078125 l 1
 153.606445312 515.813476562 l 1
 148.501953125 -1.5966796875 l 1
 45.341796875 -5 l 1
 53.849609375 525.932617188 l 1
EndSplineSet
Validated: 33
EndChar

StartChar: uni20B1
Encoding: 8369 8369 119
Width: 517
VWidth: 0
Flags: MW
LayerCount: 2
Fore
SplineSet
453.189453125 178.848632812 m 0
 429.950195312 154.702148438 273.723632812 151.252929688 273.723632812 151.252929688 c 1
 273.723632812 126.107421875 l 1
 293.966796875 127.015625 l 1
 320.655273438 27.16015625 l 1
 273.723632812 30.6103515625 l 1
 273.723632812 8.4599609375 l 1
 64.9365234375 -0.1630859375 l 1
 64.9365234375 45.2255859375 l 1
 21 48.40234375 l 1
 26.083984375 115.213867188 l 1
 64.9365234375 117.029296875 l 1
 64.9365234375 685.293945312 l 2
 90.1083984375 690.995117188 131.426757812 697.176757812 157.166015625 699.091796875 c 0
 205.913085938 702.541992188 349.522460938 696.369140625 388.284179688 690.921875 c 0
 427.045898438 685.475585938 461.72265625 650.344726562 478.0625 618.30078125 c 0
 494.40234375 586.256835938 492.1328125 516.44921875 493.857421875 394.171875 c 0
 495.58203125 271.895507812 476.428710938 202.99609375 453.189453125 178.848632812 c 0
179.76953125 229.139648438 m 0
 203.280273438 226.9609375 254.387695312 224.146484375 272.452148438 239.034179688 c 0
 296.599609375 259.186523438 291.424804688 270.080078125 289.700195312 404.4296875 c 0
 288.51953125 512.091796875 279.442382812 571.369140625 270.364257812 600.689453125 c 0
 266.163085938 614.2421875 251.23828125 625.263671875 237.049804688 625.290039062 c 2
 188.483398438 625.290039062 l 2
 183.696289062 625.067382812 179.62890625 621.000976562 179.40625 616.212890625 c 2
 168.05859375 242.483398438 l 2
 168.0546875 242.366210938 168.051757812 242.17578125 168.051757812 242.05859375 c 0
 168.051757812 235.560546875 173.30078125 229.772460938 179.76953125 229.139648438 c 0
EndSplineSet
Validated: 33
EndChar

StartChar: uni20B9
Encoding: 8377 8377 120
Width: 500
VWidth: 0
Flags: MW
LayerCount: 2
Fore
SplineSet
375.670898438 260.91796875 m 2
 477.565429688 -11.7099609375 l 1
 281.97265625 -22.0908203125 l 1
 232.254882812 217.392578125 l 1
 130.26953125 217.392578125 l 1
 36.7529296875 327.481445312 l 1
 262.850585938 325.205078125 l 2
 294.173828125 324.931640625 321.4921875 335.221679688 327.592773438 349.608398438 c 0
 335.696289062 370.005859375 344.620117188 404.971679688 346.259765625 461.8828125 c 1
 305.374023438 463.33984375 250.831054688 464.979492188 207.942382812 464.979492188 c 0
 130.26953125 465.161132812 39.2119140625 451.684570312 35.8427734375 444.58203125 c 2
 21 533.819335938 l 1
 69.4697265625 527.025390625 148.530273438 521.512695312 197.473632812 521.512695312 c 0
 199.106445312 521.512695312 201.756835938 521.518554688 203.389648438 521.526367188 c 0
 257.022460938 523.438476562 307.651367188 528.08203125 343.436523438 532.543945312 c 0
 341.17578125 554.73828125 331.79296875 589.209960938 322.493164062 609.48828125 c 0
 317.030273438 620.59765625 295.72265625 628.701171875 270.954101562 628.701171875 c 2
 38.392578125 629.885742188 l 1
 26.099609375 687.43359375 l 1
 26.099609375 687.43359375 215.318359375 701.092773438 265.30859375 700 c 0
 315.299804688 698.907226562 354.727539062 688.162109375 383.958007812 668.766601562 c 0
 419.288085938 645.365234375 434.859375 591.731445312 435.952148438 506.41015625 c 0
 437.044921875 421.088867188 430.76171875 347.241210938 415.190429688 310.817382812 c 0
 408.578125 293.643554688 390.874023438 271.2890625 375.670898438 260.91796875 c 2
EndSplineSet
Validated: 33
EndChar

StartChar: Euro
Encoding: 8364 8364 121
Width: 549
VWidth: 0
Flags: MW
LayerCount: 2
Fore
SplineSet
338.797851562 225.321289062 m 1
 526.688476562 207.981445312 l 1
 511.275390625 23.486328125 l 2
 510.309570312 13.3564453125 501.267578125 5.134765625 491.091796875 5.134765625 c 0
 490.990234375 5.134765625 490.826171875 5.1357421875 490.724609375 5.1376953125 c 0
 415.586914062 6.513671875 141.55078125 14.6787109375 102.834960938 64.2197265625 c 0
 86.2294921875 85.3212890625 77.60546875 143.578125 73.2021484375 203.302734375 c 1
 25.5869140625 203.302734375 l 1
 25.5869140625 300.091796875 l 1
 68.8896484375 308.073242188 l 2
 68.33984375 343.39453125 68.8896484375 367.981445312 68.8896484375 367.981445312 c 1
 68.8896484375 377.614257812 l 1
 21 377.614257812 l 1
 21 474.403320312 l 1
 68.248046875 483.119140625 l 1
 67.513671875 595.413085938 l 2
 67.3076171875 597.287109375 67.140625 600.33984375 67.140625 602.225585938 c 0
 67.140625 625.883789062 85.0634765625 651.971679688 107.146484375 660.458984375 c 0
 216.229492188 708.348632812 428.614257812 699.908203125 475.862304688 698.532226562 c 0
 523.110351562 697.15625 509.715820312 465.413085938 509.715820312 465.413085938 c 1
 341.458984375 465.413085938 l 1
 341.458984375 580 l 2
 340.6328125 593.9453125 322.375976562 615.504882812 262.375976562 615.321289062 c 0
 202.375976562 615.137695312 205.862304688 567.248046875 205.862304688 567.248046875 c 1
 204.486328125 508.440429688 l 1
 262.100585938 519.083007812 l 1
 293.110351562 378.440429688 l 1
 201.3671875 378.440429688 l 1
 200.541015625 341.743164062 l 1
 200.541015625 341.743164062 200.541015625 338.165039062 200.541015625 332.568359375 c 2
 266.688476562 344.770507812 l 1
 298.064453125 203.39453125 l 1
 200.357421875 203.39453125 l 2
 200.317382812 201.265625 200.28515625 197.810546875 200.28515625 195.682617188 c 0
 200.28515625 176.840820312 202.825195312 146.469726562 205.954101562 127.889648438 c 0
 215.12890625 99.6328125 253.293945312 89.724609375 293.568359375 89.724609375 c 0
 338.614257812 89.724609375 340.173828125 126.421875 340.173828125 126.421875 c 1
 338.797851562 225.321289062 l 1
EndSplineSet
Validated: 33
EndChar

StartChar: Igrave
Encoding: 204 204 133
Width: 236
VWidth: 0
Flags: M
LayerCount: 2
Fore
SplineSet
184.540039062 563.622070312 m 1
 0 633.349609375 l 1
 25.7373046875 730 l 1
 217.212890625 621.120117188 l 1
 184.540039062 563.622070312 l 1
41.2177734375 474.427734375 m 1
 177.01171875 470.184570312 l 1
 215.203125 -5 l 1
 32.73046875 11.974609375 l 1
 41.2177734375 474.427734375 l 1
EndSplineSet
Validated: 1
EndChar

StartChar: Iacute
Encoding: 205 205 134
Width: 236
VWidth: 0
Flags: M
LayerCount: 2
Fore
SplineSet
32.6728515625 563.622070312 m 1
 0 621.120117188 l 1
 191.475585938 730 l 1
 217.212890625 633.349609375 l 1
 32.6728515625 563.622070312 l 1
41.2177734375 474.427734375 m 1
 177.01171875 470.184570312 l 1
 215.203125 -5 l 1
 32.73046875 11.974609375 l 1
 41.2177734375 474.427734375 l 1
EndSplineSet
Validated: 1
EndChar

StartChar: Icircumflex
Encoding: 206 206 135
Width: 236
VWidth: 0
Flags: M
LayerCount: 2
Fore
SplineSet
-57.5 613.500976562 m 1
 115.447265625 791 l 1
 274.741210938 649.911132812 l 1
 165.510742188 590.745117188 l 1
 79.037109375 690.873046875 l 1
 1.666015625 604.3984375 l 1
 -57.5 613.500976562 l 1
41.2177734375 474.427734375 m 1
 177.01171875 470.184570312 l 1
 215.203125 -5 l 1
 32.73046875 11.974609375 l 1
 41.2177734375 474.427734375 l 1
EndSplineSet
Validated: 1
EndChar

StartChar: Idieresis
Encoding: 207 207 136
Width: 236
VWidth: 0
Flags: M
LayerCount: 2
Fore
SplineSet
210.274414062 638.900390625 m 1024,0,-1
19.435546875 638.900390625 m 1024,1,-1
260.370117188 696.15234375 m 0,2,-1
 264.568359375 678.977539062 267.526367188 642.717773438 249.301757812 618.862304688 c 0,5,-1
 247.068359375 615.9609375 242.79296875 611.943359375 239.759765625 609.893554688 c 2,8,-1
 226.49609375 602.259765625 l 2,9,-1
 222.5390625 600.15234375 215.688476562 598.442382812 211.205078125 598.442382812 c 0,12,-1
 211.185546875 598.442382812 211.153320312 598.442382812 211.133789062 598.442382812 c 2,15,-1
 178.786132812 598.442382812 l 2,16,-1
 178.551757812 598.434570312 178.169921875 598.427734375 177.934570312 598.427734375 c 0,19,-1
 171.926757812 598.427734375 163.758789062 602.025390625 159.702148438 606.458007812 c 0,22,-1
 152.545898438 615.141601562 144.33984375 631.553710938 144.33984375 663.709960938 c 2,25,-1
 145.0078125 687.8515625 l 2,26,-1
 145.0078125 687.859375 145.0078125 687.873046875 145.0078125 687.881835938 c 0,29,-1
 145.0078125 688.96875 145.221679688 690.708007812 145.484375 691.763671875 c 0,32,-1
 148.329101562 701.046875 158.33203125 710.280273438 167.8125 712.374023438 c 0,35,-1
 175.48046875 714.165039062 188.090820312 715.790039062 195.961914062 716 c 0,38,-1
 209.428710938 715.948242188 231.059570312 713.682617188 244.244140625 710.942382812 c 0,41,-1
 251.219726562 709.61328125 258.443359375 702.987304688 260.370117188 696.15234375 c 0,2,-1
69.5302734375 696.15234375 m 0,44,-1
 73.7294921875 678.977539062 76.6875 642.717773438 58.4619140625 618.862304688 c 0,47,-1
 56.228515625 615.9609375 51.9541015625 611.943359375 48.919921875 609.893554688 c 2,50,-1
 35.65625 602.259765625 l 2,51,-1
 31.69921875 600.15234375 24.8486328125 598.442382812 20.365234375 598.442382812 c 0,54,-1
 20.345703125 598.442382812 20.3134765625 598.442382812 20.2939453125 598.442382812 c 2,57,-1
 -12.0537109375 598.442382812 l 2,58,-1
 -12.2880859375 598.434570312 -12.669921875 598.427734375 -12.9052734375 598.427734375 c 0,61,-1
 -18.9130859375 598.427734375 -27.0810546875 602.025390625 -31.1376953125 606.458007812 c 0,64,-1
 -38.2939453125 615.141601562 -46.5 631.553710938 -46.5 663.709960938 c 2,67,-1
 -45.927734375 687.374023438 l 2,68,-1
 -45.927734375 687.387695312 -45.927734375 687.408203125 -45.927734375 687.421875 c 0,71,-1
 -45.927734375 688.615234375 -45.6708984375 690.517578125 -45.3544921875 691.66796875 c 0,74,-1
 -42.5361328125 700.98828125 -32.5322265625 710.264648438 -23.0263671875 712.374023438 c 0,77,-1
 -15.359375 714.165039062 -2.7490234375 715.790039062 5.1220703125 716 c 0,80,-1
 18.5888671875 715.948242188 40.2197265625 713.682617188 53.404296875 710.942382812 c 0,83,-1
 60.3798828125 709.61328125 67.6044921875 702.987304688 69.5302734375 696.15234375 c 0,44,-1
41.2177734375 474.427734375 m 1,86,-1
 177.01171875 470.184570312 l 1,87,-1
 215.203125 -5 l 1,88,-1
 32.73046875 11.974609375 l 1,89,-1
 41.2177734375 474.427734375 l 1,86,-1
EndSplineSet
Validated: 33
EndChar

StartChar: dotlessi
Encoding: 305 305 189
Width: 218
VWidth: 0
Flags: MW
AnchorPoint: "top" 113 429 basechar 0
LayerCount: 2
Fore
SplineSet
41.5751953125 4.3720703125 m 1
 30.013671875 359.127929688 l 1
 196.604492188 367.047851562 l 1
 176.577148438 4.3720703125 l 1
 41.5751953125 4.3720703125 l 1
EndSplineSet
Validated: 1
EndChar

StartChar: Utilde
Encoding: 360 360 212
Width: 512
VWidth: 0
Flags: M
LayerCount: 2
Fore
SplineSet
41.3935546875 681.638671875 m 1
 37.5 787.331054688 l 1
 66.11328125 795.990234375 113.59765625 803.017578125 143.491210938 803.017578125 c 0
 144.483398438 803.017578125 146.094726562 803.009765625 147.086914062 803 c 0
 211.985351562 803 219.495117188 750.153320312 280.221679688 748.20703125 c 0
 340.94921875 746.259765625 382.020507812 803 382.020507812 803 c 1
 389.191962307 684.077051529 l 1
 485.701171875 694.953125 l 1
 485.701171875 130.291015625 l 1
 485.701171875 130.291015625 481.528320312 44.48046875 430.368164062 19.626953125 c 0
 379.208984375 -5.2275390625 314.170898438 -5.2275390625 314.170898438 -5.2275390625 c 1
 200.78515625 -5.2275390625 l 2
 176.836914062 -6.044921875 100.641601562 7.2900390625 67.9873046875 31.0556640625 c 0
 48.935546875 45.447265625 31.5830078125 76.4130859375 29.25390625 100.17578125 c 2
 21 625.833007812 l 1
 152.708984375 591.001953125 l 1
 152.708984375 591.001953125 154.16015625 145.62109375 154.795898438 129.928710938 c 0
 155.883789062 104.983398438 185.455078125 99.8125 223.280273438 99.8125 c 0
 242.786132812 99.9306640625 273.630859375 105.05078125 292.12890625 111.2421875 c 0
 316.983398438 123.669921875 314.26171875 166.57421875 314.26171875 166.57421875 c 1
 314.26171875 669.560018366 l 1
 305.125032442 669.55193273 295.089043953 669.669668116 284.116210938 669.95703125 c 0
 209.760742188 671.904296875 170.635742188 726.697265625 123.629882812 728.830078125 c 0
 76.625 730.961914062 41.3935546875 681.638671875 41.3935546875 681.638671875 c 1
EndSplineSet
Validated: 33
EndChar

StartChar: uni0237
Encoding: 567 567 221
Width: 337
VWidth: 0
Flags: MW
AnchorPoint: "top" 205 508 basechar 0
LayerCount: 2
Fore
SplineSet
125.12890625 390.212890625 m 1
 301.926757812 418.91796875 l 1
 301.926757812 -220.994140625 l 2
 276.354492188 -250.478515625 224.997070312 -282.586914062 187.291015625 -292.6640625 c 0
 110.8671875 -314.147460938 72.6552734375 -297.41796875 72.6552734375 -297.41796875 c 1
 20 -140.090820312 l 1
 221.115234375 -140.090820312 l 1
 125.12890625 390.212890625 l 1
EndSplineSet
Validated: 33
EndChar

StartChar: ring
Encoding: 730 730 222
Width: 341
VWidth: 0
Flags: MW
AnchorPoint: "top" 162 432 mark 0
LayerCount: 2
Fore
SplineSet
309.560546875 657.89453125 m 0
 319.8984375 621.522460938 327.323242188 544.737304688 283.056640625 493.703125 c 0
 277.266601562 487.463867188 266.529296875 479.041992188 259.08984375 474.90625 c 2
 225.913085938 459.680664062 l 2
 216.079101562 455.270507812 199.350585938 451.69140625 188.573242188 451.69140625 c 0
 188.502929688 451.69140625 188.389648438 451.69140625 188.319335938 451.69140625 c 2
 107.586914062 451.69140625 l 2
 106.791992188 451.657226562 105.501953125 451.62890625 104.70703125 451.62890625 c 0
 90.7275390625 451.62890625 70.96484375 459.236328125 60.59375 468.609375 c 0
 43.30078125 485.713867188 23 520.958984375 23 589.09765625 c 2
 24.50390625 640.131835938 l 2
 24.5322265625 642.493164062 25.1220703125 646.240234375 25.8193359375 648.49609375 c 0
 34.140625 669.227539062 58.814453125 688.806640625 80.89453125 692.19921875 c 0
 99.8759765625 696.032226562 130.991210938 699.52734375 150.349609375 700 c 0
 183.578125 699.883789062 237.094726562 695.041992188 269.8046875 689.19140625 c 0
 285.989257812 687.174804688 303.799804688 673.153320312 309.560546875 657.89453125 c 0
213.319335938 553.947265625 m 0
 234.748046875 580.920898438 231.176757812 621.7109375 225.725585938 641.165039062 c 0
 223.315429688 648.895507812 214.893554688 656.34765625 206.928710938 657.80078125 c 0
 193.668945312 660.359375 171.94921875 662.435546875 158.4453125 662.435546875 c 0
 157.377929688 662.435546875 155.645507812 662.421875 154.579101562 662.40625 c 0
 143.877929688 662.368164062 126.614257812 660.978515625 116.044921875 659.3046875 c 0
 104.983398438 657.16015625 93.0673828125 646.760742188 89.447265625 636.08984375 c 0
 89.1064453125 634.89453125 88.8115234375 632.916015625 88.7890625 631.672851562 c 2
 88.1318359375 604.51171875 l 2
 88.7890625 568.420898438 98.1875 549.624023438 106.364257812 540.977539062 c 0
 111.290039062 535.788085938 121.092773438 531.576171875 128.248046875 531.576171875 c 0
 128.35546875 531.576171875 128.53125 531.577148438 128.638671875 531.579101562 c 2
 167.361328125 531.579101562 l 2
 167.418945312 531.579101562 167.513671875 531.578125 167.572265625 531.578125 c 0
 172.8203125 531.578125 180.893554688 533.473632812 185.59375 535.80859375 c 2
 201.571289062 543.890625 l 2
 205.268554688 546.135742188 210.53125 550.640625 213.319335938 553.947265625 c 0
EndSplineSet
Validated: 33
EndChar

StartChar: divide
Encoding: 247 247 224
Width: 364
VWidth: 0
Flags: MW
LayerCount: 2
Fore
SplineSet
204.561523438 302.01171875 m 0
 211.5703125 300.467773438 218.610351562 293.547851562 220.275390625 286.56640625 c 0
 224.2265625 268.516601562 227.100585938 230.172851562 210.12890625 204.938476562 c 0
 208.080078125 201.864257812 204.057617188 197.51953125 201.1484375 195.240234375 c 2
 188.487304688 187.249023438 l 2
 184.861328125 184.823242188 178.384765625 182.650390625 174.029296875 182.399414062 c 2
 143.228515625 182.399414062 l 2
 137.068359375 182.471679688 129.022460938 186.494140625 125.268554688 191.37890625 c 0
 118.534179688 200.08984375 110.811523438 218.319335938 110.811523438 252.172851562 c 2
 111.349609375 277.5859375 l 2
 111.349609375 277.59765625 111.349609375 277.615234375 111.349609375 277.625976562 c 0
 111.349609375 278.768554688 111.55078125 280.6015625 111.798828125 281.716796875 c 0
 114.029296875 291.061523438 123.322265625 300.837890625 132.541992188 303.538085938 c 0
 139.732421875 305.434570312 151.600585938 307.165039062 159.033203125 307.399414062 c 0
 171.766601562 307.333007812 192.163085938 304.918945312 204.561523438 302.01171875 c 0
142.599609375 433.56640625 m 2
 136.610351562 433.859375 128.845703125 438.002929688 125.268554688 442.81640625 c 0
 118.534179688 451.526367188 110.811523438 469.755859375 110.811523438 503.610351562 c 2
 111.349609375 529.0234375 l 2
 111.349609375 529.037109375 111.349609375 529.05859375 111.349609375 529.073242188 c 0
 111.349609375 530.212890625 111.55078125 532.041015625 111.798828125 533.153320312 c 0
 114.024414062 542.454101562 123.27734375 552.189453125 132.452148438 554.884765625 c 0
 139.642578125 556.78125 151.510742188 558.510742188 158.943359375 558.74609375 c 0
 171.676757812 558.680664062 192.07421875 556.266601562 204.471679688 553.358398438 c 0
 211.3359375 551.645507812 218.134765625 544.645507812 219.647460938 537.733398438 c 0
 223.598632812 519.68359375 226.471679688 481.33984375 209.5 456.106445312 c 0
 207.451171875 453.03125 203.428710938 448.686523438 200.520507812 446.408203125 c 2
 187.858398438 438.416015625 l 2
 184.232421875 435.990234375 177.755859375 433.818359375 173.400390625 433.56640625 c 2
 142.599609375 433.56640625 l 2
302.890625 423.240234375 m 1
 341.325195312 325.80859375 l 1
 22 325.80859375 l 1
 22 394.59375 l 1
 302.890625 423.240234375 l 1
EndSplineSet
Validated: 33
EndChar

StartChar: Oslash
Encoding: 216 216 225
Width: 529
VWidth: 0
Flags: MW
LayerCount: 2
Fore
SplineSet
351.002929688 764.349609375 m 1
 519.26171875 701.518554688 l 1
 519.26171875 701.518554688 501.34119991 664.851462723 475.016723819 610.037680704 c 0
 476.136753015 606.306313625 477.243410686 602.426535296 478.344726562 598.393554688 c 0
 497.5234375 528.16015625 505.357421875 319.258789062 505.357421875 319.258789062 c 1
 505.357421875 319.258789062 517.333007812 65.78515625 462.766601562 24.275390625 c 0
 408.200195312 -17.234375 237.1171875 -2.73828125 237.1171875 -2.73828125 c 1
 237.1171875 -2.73828125 230.627212281 -2.88514099552 220.023140734 -2.83990755785 c 1
 202.832742355 -63.4477655437 194.370234703 -106.606748382 198.971679688 -113.409179688 c 1
 8.0400390625 -53.01953125 l 1
 8.0400390625 -53.01953125 26.2361279576 -23.3336384227 52.803283597 23.3795349911 c 0
 51.5455773753 24.3337484614 50.4002693392 25.3223869108 49.3759765625 26.3466796875 c 0
 16.7802734375 58.9423828125 22.36328125 350.50390625 22.36328125 350.50390625 c 1
 22.36328125 350.50390625 29.3857421875 614.151367188 47.3046875 652.150390625 c 0
 65.2236328125 690.1484375 121.411132812 689.068359375 121.411132812 689.068359375 c 1
 241.709960938 692.399414062 l 1
 241.709960938 692.399414062 288.09538468 694.51465639 331.239793407 695.109312412 c 1
 338.618329621 719.846041871 345.292431548 743.184432712 351.002929688 764.349609375 c 1
315.455078125 80.1025390625 m 0
 338.326171875 98.021484375 336.975585938 195.087890625 335.715820312 276.66796875 c 0
 335.54775153 287.534812327 335.403664732 298.996024453 335.240354994 310.763860245 c 1
 330.653709085 300.511673997 326.191747471 290.461719914 321.88671875 280.676757812 c 0
 291.307360854 211.174195118 263.45041519 135.365591927 241.907443213 68.9121825985 c 1
 262.129460514 69.1141426759 303.374314239 70.706955509 315.455078125 80.1025390625 c 0
130.508102762 167.391860948 m 1
 156.913370174 219.303478734 183.459240823 275.229737392 205.416992188 329.078125 c 0
 227.134784888 383.158273169 252.613018798 453.45888099 277.018806757 525.530384834 c 1
 257.696283679 531.67422691 239.458984375 533.653320312 239.458984375 533.653320312 c 2
 239.458984375 533.653320312 180.299804688 535.813476562 159.049804688 509.071289062 c 0
 137.798828125 482.328125 132.756835938 291.794921875 132.756835938 291.794921875 c 1
 132.756835938 291.794921875 128.855892678 224.723865191 130.508102762 167.391860948 c 1
EndSplineSet
Validated: 33
EndChar

StartChar: AE
Encoding: 198 198 226
Width: 813
VWidth: 0
Flags: MW
LayerCount: 2
Fore
SplineSet
232.458984375 285.528320312 m 1
 398.958984375 293.0625 l 1
 343.866210938 555.998046875 l 1
 266.266601562 548.463867188 l 1
 232.458984375 285.528320312 l 1
428.694236731 692 m 1
 795.823242188 692 l 1
 795.823242188 608.81640625 l 1
 503.450195312 608.81640625 l 1
 503.450195312 536.474609375 l 1
 701.979492188 536.474609375 l 1
 701.979492188 413.020507812 l 1
 565.131835938 413.020507812 l 1
 565.131835938 206.564453125 l 1
 779.696289062 206.564453125 l 1
 779.696289062 16.14453125 l 1
 338.310546875 -5 l 1
 338.310546875 162.818359375 l 1
 168.795898438 160.276367188 l 1
 168.795898438 20.05078125 l 1
 20 12.5166015625 l 1
 151.844726562 513.431640625 l 1
 74.6220703125 511.077148438 l 1
 74.6220703125 671.173828125 l 1
 428.694236731 692 l 1
EndSplineSet
Validated: 1
EndChar

StartChar: ae
Encoding: 230 230 227
Width: 852
VWidth: 0
Flags: MW
LayerCount: 2
Fore
SplineSet
641.958984375 263.522460938 m 0
 648.509765625 273.668945312 653.826171875 291.704101562 653.826171875 303.78125 c 0
 653.826171875 312.119140625 651.180664062 325.114257812 647.921875 332.7890625 c 0
 642.14453125 346.52734375 625.705078125 360.54296875 611.224609375 364.073242188 c 0
 592.963867188 368.399414062 562.911132812 371.91015625 544.14453125 371.91015625 c 0
 528.791992188 371.91015625 504.09765625 369.549804688 489.0234375 366.642578125 c 0
 468.619140625 362.616210938 447.370117188 343.134765625 441.591796875 323.15625 c 0
 438.0078125 309.638671875 435.099609375 287.319335938 435.099609375 273.334960938 c 0
 435.099609375 271.892578125 435.130859375 269.551757812 435.169921875 268.110351562 c 0
 435.904296875 238.293945312 442.142578125 232.697265625 452.41796875 231.962890625 c 0
 491.958984375 230.586914062 598.508789062 243.389648438 609.940429688 244.348632812 c 0
 621.372070312 245.307617188 635.716796875 253.897460938 641.958984375 263.522460938 c 0
788.10546875 423.33984375 m 0
 819.848632812 386.55078125 823.977539062 342.7890625 823.059570312 296.734375 c 0
 822.142578125 250.678710938 818.013671875 250.678710938 786.362304688 229.2109375 c 0
 754.7109375 207.743164062 678.013671875 206.734375 678.013671875 206.734375 c 1
 467.004882812 196.55078125 l 1
 467.004882812 196.55078125 465.99609375 164.899414062 481.31640625 145.44921875 c 0
 504.161132812 116.55078125 538.564453125 122.97265625 571.31640625 120.954101562 c 0
 604.069335938 118.935546875 625.078125 120.954101562 642.41796875 129.119140625 c 0
 659.756835938 137.284179688 653.151367188 157.743164062 653.151367188 157.743164062 c 1
 808.564453125 163.889648438 l 1
 811.591796875 72.146484375 791.224609375 39.9453125 777.830078125 24.5322265625 c 0
 753.518554688 -3.541015625 653.793945312 2.0546875 577.463867188 2.0546875 c 0
 502.601392647 2.0546875 459.420261322 4.17291411231 418.579740605 29.6134084619 c 1
 413.123098711 22.9381907448 405.460169816 17.2273282255 394.784179688 12.880859375 c 0
 370.090820312 3.3564453125 328.620117188 -5.8505859375 302.215820312 -7.669921875 c 0
 301.991210938 -7.685546875 301.626953125 -7.6982421875 301.40234375 -7.6982421875 c 0
 295.7265625 -7.6982421875 290.583984375 -3.123046875 289.921875 2.513671875 c 2
 288.270507812 15.724609375 l 2
 287.873046875 19.1787109375 284.729492188 21.9814453125 281.252929688 21.9814453125 c 0
 281.11328125 21.9814453125 280.88671875 21.9736328125 280.748046875 21.962890625 c 0
 245.9765625 19.486328125 86.435546875 9.2109375 66.802734375 26.275390625 c 0
 44.7841796875 45.265625 45.2431640625 64.4404296875 41.8486328125 131.596679688 c 0
 38.4541015625 198.751953125 49.279296875 229.853515625 66.802734375 237.284179688 c 0
 84.3251953125 244.715820312 319.73828125 261.962890625 319.73828125 261.962890625 c 1
 319.73828125 261.962890625 313.041015625 351.229492188 298.637695312 367.467773438 c 0
 284.234375 383.706054688 207.4453125 372.23828125 185.426757812 361.688476562 c 0
 172.307617188 355.44921875 173.224609375 339.302734375 176.251953125 327.008789062 c 0
 176.481445312 326.09375 176.66796875 324.5859375 176.66796875 323.642578125 c 0
 176.66796875 316.696289062 171.056640625 310.518554688 164.142578125 309.853515625 c 0
 126.52734375 306.091796875 37.8115234375 300.495117188 26.52734375 329.02734375 c 0
 12.1240234375 365.724609375 23.224609375 410.770507812 43.591796875 446.18359375 c 0
 63.958984375 481.596679688 208.729492188 480.678710938 208.729492188 480.678710938 c 1
 208.729492188 480.678710938 330.47265625 480.678710938 350.65625 472.97265625 c 0
 370.83984375 465.265625 390.10546875 437.375976562 400.564453125 401.962890625 c 0
 400.622905797 401.76496264 400.681604972 401.561637857 400.740546094 401.352976076 c 1
 408.172117385 415.86463816 418.438189119 428.011484699 432.509765625 441.780273438 c 0
 466.637695312 475.173828125 534.7109375 481.596679688 604.252929688 480.586914062 c 0
 648.748046875 479.9453125 684.986328125 476.734375 705.169921875 474.532226562 c 0
 716.555664062 473.37890625 733.735351562 467.625 743.518554688 461.688476562 c 0
 757.448242188 452.991210938 777.422851562 435.811523438 788.10546875 423.33984375 c 0
255.059570312 78.935546875 m 2
 255.426757812 78.935546875 l 2
 304.967773438 78.4775390625 349.646484375 70.9541015625 349.646484375 137.651367188 c 0
 349.646484375 204.348632812 334.325195312 219.39453125 309.096679688 221.321289062 c 0
 301.755859375 222.016601562 289.815429688 222.580078125 282.442382812 222.580078125 c 0
 278.604492188 222.580078125 272.37890625 222.426757812 268.545898438 222.23828125 c 2
 268.545898438 222.23828125 194.784179688 215.541015625 198.729492188 158.018554688 c 0
 202.673828125 100.495117188 205.518554688 79.39453125 255.059570312 78.935546875 c 2
EndSplineSet
Validated: 33
EndChar

StartChar: oslash
Encoding: 248 248 228
Width: 491
VWidth: 0
Flags: MW
LayerCount: 2
Fore
SplineSet
277.811523438 565.907226562 m 1
 407.317382812 522.694335938 l 1
 407.317382812 522.694335938 391.780583889 494.288388694 369.463628255 452.704161218 c 1
 378.943005767 450.95774649 387.845144348 449.127056062 395.8984375 447.244140625 c 0
 423.239257812 440.44921875 450.319335938 412.598632812 456.345703125 385.078125 c 0
 471.909179688 313.047851562 483.220703125 160.392578125 415.262695312 59.767578125 c 0
 406.981445312 47.6298828125 390.765625 30.5625 379.067382812 21.671875 c 2
 328.6640625 -9.1845703125 l 2
 314.208007812 -18.3544921875 288.586914062 -26.21875 271.474609375 -26.740234375 c 2
 160.283549816 -26.740234375 l 1
 159.567477398 -32.5319266651 159.705563449 -36.3364453966 160.794921875 -37.775390625 c 2
 13.837890625 3.7578125 l 1
 13.837890625 3.7578125 28.8610800745 25.6583544975 50.506018297 59.7871747877 c 1
 34.2261995811 100.972412546 21.4103738681 161.324121722 21 248.80078125 c 2
 23.3525390625 349.967773438 l 2
 23.3671875 354.596679688 24.2177734375 362.015625 25.2529296875 366.52734375 c 0
 34.439453125 404.083984375 72.140625 442.920898438 109.408203125 453.216796875 c 0
 138.046875 460.768554688 185.31640625 467.66015625 214.918945312 468.599609375 c 0
 224.098339651 468.551612773 234.279765233 468.19763625 245.091843079 467.581504063 c 1
 257.834316369 503.407944589 269.234908006 537.50297661 277.811523438 565.907226562 c 1
310.114257812 179.124023438 m 0
 342.599609375 232.512695312 337.170898438 313.41015625 329.66015625 352.139648438 c 0
 328.822748675 357.041463814 326.700245917 362.028239306 323.712261479 366.624475517 c 1
 300.197529421 321.904328877 275.562897732 274.207618593 255.400390625 233.258789062 c 0
 239.940297097 201.860538456 225.384309375 168.591046428 212.515861847 136.502929688 c 1
 240.618164062 136.502929688 l 2
 241.043945312 136.490234375 241.734375 136.478515625 242.16015625 136.478515625 c 0
 249.9765625 136.478515625 261.690429688 139.854492188 268.307617188 144.013671875 c 2
 292.46875 159.03515625 l 2
 298.2421875 163.786132812 306.147460938 172.786132812 310.114257812 179.124023438 c 0
129.646064269 194.269960909 m 1
 142.500128976 218.207880162 154.861681447 242.674292323 165.755859375 266.546875 c 0
 181.640867495 301.892486615 200.139766541 347.312191198 218.060230111 394.277779293 c 1
 201.613808276 393.975259532 177.374715321 391.421028013 162.25390625 388.3359375 c 0
 143.735351562 382.08984375 125.655273438 361.455078125 121.895507812 342.276367188 c 0
 121.395507812 339.889648438 120.990234375 335.973632812 120.990234375 333.53515625 c 0
 120.990234375 333.450195312 120.990234375 333.3125 120.991210938 333.227539062 c 2
 119.905273438 279.748046875 l 2
 120.2309654 242.489992164 124.152319077 214.81967888 129.646064269 194.269960909 c 1
EndSplineSet
Validated: 33
EndChar

StartChar: caron
Encoding: 711 711 230
Width: 379
VWidth: 0
Flags: MW
AnchorPoint: "top" 174 473 mark 0
LayerCount: 2
Fore
SplineSet
346.947265625 674.499023438 m 1
 174 497 l 1
 14.7060546875 638.088867188 l 1
 123.936523438 697.254882812 l 1
 210.41015625 597.126953125 l 1
 287.78125 683.6015625 l 1
 346.947265625 674.499023438 l 1
EndSplineSet
Validated: 1
EndChar

StartChar: breve
Encoding: 728 728 231
Width: 313
VWidth: 0
Flags: MW
AnchorPoint: "top" 181.761 480 mark 0
LayerCount: 2
Fore
SplineSet
20 646.868164062 m 5
 88.7607421875 656 l 5
 88.7607421875 656 94.4228515625 602.762695312 109.581054688 589.522460938 c 4
 124.739257812 576.28125 122.365234375 577.924804688 167.658203125 577.194335938 c 4
 212.950195312 576.463867188 230.026367188 582.307617188 239.796875 592.079101562 c 4
 249.568359375 601.849609375 256.5078125 641.845703125 256.5078125 641.845703125 c 5
 291.755859375 637.737304688 l 5
 291.755859375 637.737304688 291.755859375 587.6953125 259.88671875 553.909179688 c 4
 228.017578125 520.122070312 187.747070312 522.313476562 144.098632812 525.965820312 c 4
 100.44921875 529.619140625 76.9814453125 536.28515625 51.869140625 553.909179688 c 4
 26.7578125 571.533203125 20 646.868164062 20 646.868164062 c 5
EndSplineSet
Validated: 33
EndChar

StartChar: OE
Encoding: 338 338 242
Width: 807
VWidth: 0
Flags: MW
LayerCount: 2
Fore
SplineSet
414 695 m 1
 786.823242188 695 l 1
 786.823242188 611.81640625 l 1
 494.450195312 611.81640625 l 1
 494.450195312 539.474609375 l 1
 692.979492188 539.474609375 l 1
 692.979492188 416.020507812 l 1
 556.131835938 416.020507812 l 1
 556.131835938 209.564453125 l 1
 770.696289062 209.564453125 l 1
 770.696289062 19.14453125 l 1
 414 -5 l 1
 414 4.5061978871 l 1
 342.277008171 -11.648614536 237.1171875 -2.73828125 237.1171875 -2.73828125 c 2
 237.1171875 -2.73828125 81.9716796875 -6.2490234375 49.3759765625 26.3466796875 c 0
 16.7802734375 58.9423828125 22.36328125 350.50390625 22.36328125 350.50390625 c 1
 22.36328125 350.50390625 29.3857421875 614.151367188 47.3046875 652.150390625 c 0
 65.2236328125 690.1484375 121.411132812 689.068359375 121.411132812 689.068359375 c 1
 241.709960938 692.399414062 l 1
 241.709960938 692.399414062 326.62109375 696.271484375 373.533203125 695.010742188 c 0
 389.474008527 694.368672632 402.752790278 692.447398249 414 688.870752958 c 1
 414 695 l 1
315.455078125 80.1025390625 m 0
 338.326171875 98.021484375 336.975585938 195.087890625 335.715820312 276.66796875 c 0
 334.454101562 358.247070312 334.543945312 473.323242188 317.706054688 500.15625 c 0
 300.868164062 526.989257812 239.458984375 533.653320312 239.458984375 533.653320312 c 1
 239.458984375 533.653320312 180.299804688 535.813476562 159.049804688 509.071289062 c 0
 137.798828125 482.328125 132.756835938 291.794921875 132.756835938 291.794921875 c 1
 132.756835938 291.794921875 122.130859375 109.096679688 143.381835938 89.0166015625 c 0
 164.631835938 68.9365234375 230.543945312 68.9365234375 230.543945312 68.9365234375 c 1
 230.543945312 68.9365234375 299.247070312 67.4970703125 315.455078125 80.1025390625 c 0
EndSplineSet
Validated: 33
EndChar

StartChar: oe
Encoding: 339 339 243
Width: 818
VWidth: 0
Flags: MW
LayerCount: 2
Fore
SplineSet
621.958984375 263.522460938 m 0
 628.509765625 273.668945312 633.826171875 291.704101562 633.826171875 303.78125 c 0
 633.826171875 312.119140625 631.180664062 325.114257812 627.921875 332.7890625 c 0
 622.14453125 346.52734375 605.705078125 360.54296875 591.224609375 364.073242188 c 0
 572.963867188 368.399414062 542.911132812 371.91015625 524.14453125 371.91015625 c 0
 508.791992188 371.91015625 484.09765625 369.549804688 469.0234375 366.642578125 c 0
 448.619140625 362.616210938 427.370117188 343.134765625 421.591796875 323.15625 c 0
 418.0078125 309.638671875 415.099609375 287.319335938 415.099609375 273.334960938 c 0
 415.099609375 271.892578125 415.130859375 269.551757812 415.169921875 268.110351562 c 0
 415.904296875 238.293945312 422.142578125 232.697265625 432.41796875 231.962890625 c 0
 471.958984375 230.586914062 578.508789062 243.389648438 589.940429688 244.348632812 c 0
 601.372070312 245.307617188 615.716796875 253.897460938 621.958984375 263.522460938 c 0
768.10546875 423.33984375 m 0
 799.848632812 386.55078125 803.977539062 342.7890625 803.059570312 296.734375 c 0
 802.142578125 250.678710938 798.013671875 250.678710938 766.362304688 229.2109375 c 0
 734.7109375 207.743164062 658.013671875 206.734375 658.013671875 206.734375 c 1
 460.402377174 197.197363985 l 1
 458.252037149 185.473718349 455.598657596 173.808607209 452.373566931 162.323464299 c 0
 454.453869463 156.387754749 457.333248381 150.50611274 461.31640625 145.44921875 c 0
 484.161132812 116.55078125 518.564453125 122.97265625 551.31640625 120.954101562 c 0
 584.069335938 118.935546875 605.078125 120.954101562 622.41796875 129.119140625 c 0
 639.756835938 137.284179688 633.151367188 157.743164062 633.151367188 157.743164062 c 1
 788.564453125 163.889648438 l 1
 791.591796875 72.146484375 771.224609375 39.9453125 757.830078125 24.5322265625 c 0
 733.518554688 -3.541015625 633.793945312 2.0546875 557.463867188 2.0546875 c 0
 481.1328125 2.0546875 437.73828125 4.2568359375 396.178710938 31.1376953125 c 0
 391.38231335 34.5262434057 386.733805193 39.116946353 382.51490845 44.4174194747 c 1
 381.332047466 43.4358675039 380.179307843 42.5169343101 379.067382812 41.671875 c 2
 328.6640625 10.8154296875 l 2
 314.208007812 1.6455078125 288.586914062 -6.21875 271.474609375 -6.740234375 c 2
 148.861328125 -6.740234375 l 2
 124.803710938 -6.4921875 93.3857421875 9.197265625 78.732421875 28.279296875 c 0
 51.857421875 63.298828125 21.6337890625 133.700195312 21 268.80078125 c 2
 23.3525390625 369.967773438 l 2
 23.3671875 374.596679688 24.2177734375 382.015625 25.2529296875 386.52734375 c 0
 34.439453125 424.083984375 72.140625 462.920898438 109.408203125 473.216796875 c 0
 138.046875 480.768554688 185.31640625 487.66015625 214.918945312 488.599609375 c 0
 265.533203125 488.334960938 346.612304688 478.767578125 395.8984375 467.244140625 c 0
 406.067147719 464.716945365 416.199790112 459.27717184 425.226621582 452.025059769 c 1
 461.924414513 476.520941373 522.509775156 481.483438782 584.252929688 480.586914062 c 0
 628.748046875 479.9453125 664.986328125 476.734375 685.169921875 474.532226562 c 0
 696.555664062 473.37890625 713.735351562 467.625 723.518554688 461.688476562 c 0
 737.448242188 452.991210938 757.422851562 435.811523438 768.10546875 423.33984375 c 0
310.114257812 199.124023438 m 0
 342.599609375 252.512695312 337.170898438 333.41015625 329.66015625 372.139648438 c 0
 327.24609375 386.270507812 314.15234375 401.107421875 300.431640625 405.258789062 c 0
 280.46484375 410.287109375 247.549804688 414.3671875 226.959960938 414.3671875 c 0
 225.310546875 414.3671875 222.631835938 414.340820312 220.981445312 414.307617188 c 0
 204.607421875 414.28515625 178.297851562 411.609375 162.25390625 408.3359375 c 0
 143.735351562 402.08984375 125.655273438 381.455078125 121.895507812 362.276367188 c 0
 121.395507812 359.889648438 120.990234375 355.973632812 120.990234375 353.53515625 c 0
 120.990234375 353.450195312 120.990234375 353.3125 120.991210938 353.227539062 c 2
 119.905273438 299.748046875 l 2
 120.538085938 227.356445312 134.745117188 191.16015625 147.685546875 173.0625 c 0
 154.342773438 163.91015625 168.931640625 156.482421875 180.249023438 156.482421875 c 0
 180.602539062 156.482421875 181.17578125 156.4921875 181.528320312 156.502929688 c 2
 240.618164062 156.502929688 l 2
 241.043945312 156.490234375 241.734375 156.478515625 242.16015625 156.478515625 c 0
 249.9765625 156.478515625 261.690429688 159.854492188 268.307617188 164.013671875 c 2
 292.46875 179.03515625 l 2
 298.2421875 183.786132812 306.147460938 192.786132812 310.114257812 199.124023438 c 0
EndSplineSet
Validated: 33
EndChar

StartChar: trademark
Encoding: 8482 8482 244
Width: 430
VWidth: 0
Flags: MW
LayerCount: 2
Fore
SplineSet
405.454101562 442.338867188 m 1
 352.91015625 442.338867188 l 1
 356.8671875 555.158203125 l 1
 343.984375 555.986328125 l 1
 318.217773438 442.338867188 l 1
 304.322265625 442.338867188 l 1
 268.158203125 619.11328125 l 1
 257.66796875 626.291015625 l 1
 262.63671875 442.338867188 l 1
 212.1171875 442.338867188 l 1
 215.521484375 621.413085938 l 1
 206.04296875 623.8984375 l 1
 206.04296875 690.797851562 l 1
 277.543945312 690.797851562 l 1
 315.181640625 549.63671875 l 1
 344.904296875 700 l 1
 399.47265625 700 l 1
 405.454101562 442.338867188 l 1
22 617.180664062 m 1
 22 700 l 1
 178.436523438 700 l 1
 178.436523438 630.431640625 l 1
 101.322265625 636.689453125 l 1
 109.97265625 442.983398438 l 1
 57.6123046875 436.450195312 l 1
 63.9619140625 617.180664062 l 1
 22 617.180664062 l 1
EndSplineSet
Validated: 1
EndChar

StartChar: perthousand
Encoding: 8240 8240 245
Width: 801
VWidth: 0
Flags: MW
LayerCount: 2
Fore
SplineSet
354.360351562 313.37109375 m 0
 259.139648438 196.3515625 167.020507812 43.3056640625 170.759765625 28.89453125 c 2
 39.0556640625 118.278320312 l 1
 39.0556640625 118.278320312 179.879882812 251.076171875 276.1953125 376.942382812 c 0
 339.052734375 459.7265625 433.033203125 599.512695312 485.97265625 688.963867188 c 1
 599.891601562 602.58984375 l 1
 599.891601562 602.58984375 450.037109375 431.393554688 354.360351562 313.37109375 c 0
530.665039062 200 m 0
 531.190429688 197.739257812 531.640625 194.020507812 531.66796875 191.700195312 c 2
 532.762695312 141.9921875 l 2
 532.762695312 75.8662109375 517.622070312 41.6640625 504.396484375 25.0634765625 c 0
 497.345703125 15.5615234375 482.022460938 7.59375 470.194335938 7.2783203125 c 2
 410.1796875 7.2783203125 l 2
 401.744140625 7.5322265625 389.118164062 11.4140625 381.99609375 15.943359375 c 2
 357.461914062 31.8134765625 l 2
 351.734375 36.05078125 343.766601562 44.22265625 339.67578125 50.0546875 c 0
 306.659179688 99.671875 312.130859375 173.823242188 319.79296875 209.12109375 c 0
 322.75390625 222.557617188 335.993164062 236.165039062 349.34375 239.493164062 c 0
 373.510742188 245.154296875 413.268554688 249.853515625 438.088867188 249.981445312 c 0
 452.57421875 249.510742188 475.702148438 246.119140625 489.712890625 242.411132812 c 0
 507.864257812 237.319335938 526.2109375 218.318359375 530.665039062 200 c 0
470.650390625 96.662109375 m 0
 477.034179688 105.69140625 484.1484375 122.9296875 484.240234375 158.2265625 c 2
 483.692382812 183.764648438 l 2
 483.685546875 184.9609375 483.481445312 186.880859375 483.236328125 188.051757812 c 0
 481.390625 197.41015625 472.565429688 207.502929688 463.536132812 210.580078125 c 0
 455.6875 212.181640625 442.81640625 213.489257812 434.805664062 213.499023438 c 0
 434.053710938 213.512695312 432.833984375 213.5234375 432.08203125 213.5234375 c 0
 421.956054688 213.5234375 405.76953125 211.510742188 395.951171875 209.029296875 c 0
 389.294921875 206.849609375 383.083984375 199.454101562 382.087890625 192.520507812 c 0
 377.983398438 173.823242188 375.247070312 134.421875 391.208007812 108.245117188 c 0
 393.165039062 105.342773438 397.005859375 101.256835938 399.782226562 99.1240234375 c 2
 411.638671875 92.009765625 l 2
 414.497070312 90.4736328125 419.44921875 89.2275390625 422.694335938 89.2275390625 c 0
 423.395507812 89.2275390625 424.53125 89.2890625 425.228515625 89.365234375 c 2
 454.141601562 89.365234375 l 2
 454.568359375 89.330078125 455.263671875 89.3017578125 455.69140625 89.3017578125 c 0
 460.8203125 89.3017578125 467.521484375 92.5986328125 470.650390625 96.662109375 c 0
84.568359375 463.31640625 m 2
 83.7724609375 463.260742188 82.478515625 463.215820312 81.6796875 463.215820312 c 0
 71.1845703125 463.215820312 57.1142578125 469.67578125 50.2744140625 477.635742188 c 0
 37.140625 494.69140625 22 526.25 22 592.375 c 2
 23.185546875 641.900390625 l 2
 23.185546875 641.903320312 23.185546875 641.908203125 23.185546875 641.911132812 c 0
 23.185546875 644.177734375 23.5947265625 647.809570312 24.09765625 650.018554688 c 0
 28.56640625 668.323242188 46.9130859375 687.323242188 65.0498046875 692.4296875 c 0
 79.060546875 696.137695312 102.188476562 699.529296875 116.673828125 700 c 0
 141.5078125 699.97265625 181.306640625 695.4375 205.509765625 689.875976562 c 0
 218.8671875 686.59375 232.10546875 673.028320312 235.060546875 659.594726562 c 0
 242.540039062 624.297851562 248.194335938 550.0546875 215.177734375 500.802734375 c 0
 211.112304688 494.9453125 203.14453125 486.7734375 197.392578125 482.561523438 c 2
 172.766601562 468.879882812 l 2
 166.528320312 465.715820312 155.790039062 463.1484375 148.795898438 463.1484375 c 0
 147.630859375 463.1484375 145.744140625 463.223632812 144.583007812 463.31640625 c 2
 84.568359375 463.31640625 l 2
70.978515625 633.600585938 m 2
 70.431640625 607.059570312 l 2
 70.5224609375 572.309570312 77.63671875 554.067382812 84.021484375 544.947265625 c 0
 87.3369140625 540.192382812 94.7333984375 536.310546875 100.529296875 536.282226562 c 2
 129.8984375 536.282226562 l 2
 133.999023438 536.30859375 140.086914062 538.188476562 143.48828125 540.477539062 c 2
 155.345703125 548.413085938 l 2
 158.154296875 550.747070312 161.995117188 555.16015625 163.918945312 558.263671875 c 0
 179.423828125 584.348632812 176.688476562 624.024414062 173.040039062 642.721679688 c 0
 171.856445312 649.595703125 165.481445312 656.827148438 158.811523438 658.865234375 c 0
 148.822265625 661.44140625 132.341796875 663.533203125 122.025390625 663.533203125 c 0
 121.428710938 663.533203125 120.461914062 663.525390625 119.866210938 663.516601562 c 0
 111.850585938 663.458007812 98.978515625 662.068359375 91.1357421875 660.416015625 c 0
 82.091796875 657.3515625 73.265625 647.258789062 71.4345703125 637.887695312 c 0
 71.189453125 636.716796875 70.984375 634.796875 70.978515625 633.600585938 c 2
777.836914062 191.8828125 m 2
 779.0234375 141.9921875 l 2
 779.0234375 75.8662109375 763.8828125 41.6640625 750.657226562 25.0634765625 c 0
 743.606445312 15.5615234375 728.283203125 7.59375 716.454101562 7.2783203125 c 2
 656.440429688 7.2783203125 l 2
 648.00390625 7.5322265625 635.377929688 11.4140625 628.256835938 15.943359375 c 2
 603.721679688 31.8134765625 l 2
 597.995117188 36.05078125 590.02734375 44.22265625 585.936523438 50.0546875 c 0
 552.918945312 99.671875 558.391601562 173.823242188 566.053710938 209.12109375 c 0
 569.014648438 222.557617188 582.252929688 236.165039062 595.604492188 239.493164062 c 0
 619.771484375 245.154296875 659.529296875 249.853515625 684.349609375 249.981445312 c 0
 698.834960938 249.510742188 721.961914062 246.119140625 735.97265625 242.411132812 c 0
 754.125 237.319335938 772.470703125 218.318359375 776.924804688 200 c 0
 777.428710938 197.791015625 777.836914062 194.159179688 777.836914062 191.893554688 c 0
 777.836914062 191.890625 777.836914062 191.885742188 777.836914062 191.8828125 c 2
716.91015625 96.662109375 m 0
 723.294921875 105.69140625 730.409179688 122.9296875 730.500976562 158.2265625 c 2
 729.953125 183.764648438 l 2
 729.946289062 184.9609375 729.7421875 186.880859375 729.497070312 188.051757812 c 0
 727.651367188 197.41015625 718.825195312 207.502929688 709.796875 210.580078125 c 0
 701.947265625 212.181640625 689.076171875 213.489257812 681.06640625 213.499023438 c 0
 680.314453125 213.512695312 679.094726562 213.5234375 678.342773438 213.5234375 c 0
 668.216796875 213.5234375 652.029296875 211.510742188 642.211914062 209.029296875 c 0
 635.555664062 206.849609375 629.344726562 199.454101562 628.34765625 192.520507812 c 0
 624.244140625 173.823242188 621.5078125 134.421875 637.46875 108.245117188 c 0
 639.424804688 105.342773438 643.266601562 101.256835938 646.041992188 99.1240234375 c 2
 657.899414062 92.009765625 l 2
 660.756835938 90.4736328125 665.709960938 89.2275390625 668.954101562 89.2275390625 c 0
 669.65625 89.2275390625 670.791992188 89.2890625 671.489257812 89.365234375 c 2
 700.40234375 89.365234375 l 2
 700.829101562 89.330078125 701.5234375 89.3017578125 701.952148438 89.3017578125 c 0
 707.080078125 89.3017578125 713.78125 92.5986328125 716.91015625 96.662109375 c 0
EndSplineSet
Validated: 33
EndChar

